%TF.GenerationSoftware,KiCad,Pcbnew,9.0.7*%
%TF.CreationDate,2026-02-19T00:10:07+05:30*%
%TF.ProjectId,breakout_board,62726561-6b6f-4757-945f-626f6172642e,rev?*%
%TF.SameCoordinates,Original*%
%TF.FileFunction,Soldermask,Top*%
%TF.FilePolarity,Negative*%
%FSLAX46Y46*%
G04 Gerber Fmt 4.6, Leading zero omitted, Abs format (unit mm)*
G04 Created by KiCad (PCBNEW 9.0.7) date 2026-02-19 00:10:07*
%MOMM*%
%LPD*%
G01*
G04 APERTURE LIST*
G04 Aperture macros list*
%AMRoundRect*
0 Rectangle with rounded corners*
0 $1 Rounding radius*
0 $2 $3 $4 $5 $6 $7 $8 $9 X,Y pos of 4 corners*
0 Add a 4 corners polygon primitive as box body*
4,1,4,$2,$3,$4,$5,$6,$7,$8,$9,$2,$3,0*
0 Add four circle primitives for the rounded corners*
1,1,$1+$1,$2,$3*
1,1,$1+$1,$4,$5*
1,1,$1+$1,$6,$7*
1,1,$1+$1,$8,$9*
0 Add four rect primitives between the rounded corners*
20,1,$1+$1,$2,$3,$4,$5,0*
20,1,$1+$1,$4,$5,$6,$7,0*
20,1,$1+$1,$6,$7,$8,$9,0*
20,1,$1+$1,$8,$9,$2,$3,0*%
G04 Aperture macros list end*
%ADD10RoundRect,0.237500X0.300000X0.237500X-0.300000X0.237500X-0.300000X-0.237500X0.300000X-0.237500X0*%
%ADD11C,2.100000*%
%ADD12RoundRect,0.102000X-0.750000X-0.325000X0.750000X-0.325000X0.750000X0.325000X-0.750000X0.325000X0*%
%ADD13RoundRect,0.237500X-0.237500X0.300000X-0.237500X-0.300000X0.237500X-0.300000X0.237500X0.300000X0*%
%ADD14RoundRect,0.237500X0.237500X-0.300000X0.237500X0.300000X-0.237500X0.300000X-0.237500X-0.300000X0*%
%ADD15RoundRect,0.237500X-0.300000X-0.237500X0.300000X-0.237500X0.300000X0.237500X-0.300000X0.237500X0*%
%ADD16RoundRect,0.237500X-0.237500X0.250000X-0.237500X-0.250000X0.237500X-0.250000X0.237500X0.250000X0*%
%ADD17RoundRect,0.237500X0.250000X0.237500X-0.250000X0.237500X-0.250000X-0.237500X0.250000X-0.237500X0*%
%ADD18RoundRect,0.237500X-0.250000X-0.237500X0.250000X-0.237500X0.250000X0.237500X-0.250000X0.237500X0*%
%ADD19R,1.700000X1.700000*%
%ADD20C,1.700000*%
%ADD21C,0.650000*%
%ADD22O,1.800000X1.000000*%
%ADD23O,2.100000X1.000000*%
G04 APERTURE END LIST*
D10*
%TO.C,C1*%
X144931300Y-70027800D03*
X143206300Y-70027800D03*
%TD*%
D11*
%TO.C,H3*%
X118414800Y-94208600D03*
%TD*%
D12*
%TO.C,IC2*%
X130472200Y-77266800D03*
X130472200Y-78536800D03*
X130472200Y-79806800D03*
X130472200Y-81076800D03*
X135872200Y-81076800D03*
X135872200Y-79806800D03*
X135872200Y-78536800D03*
X135872200Y-77266800D03*
%TD*%
D13*
%TO.C,DC2*%
X123698000Y-78233100D03*
X123698000Y-79958100D03*
%TD*%
D14*
%TO.C,DC4*%
X136220200Y-85317500D03*
X136220200Y-83592500D03*
%TD*%
D10*
%TO.C,C7*%
X122528500Y-72288400D03*
X120803500Y-72288400D03*
%TD*%
D11*
%TO.C,H4*%
X118440200Y-64566800D03*
%TD*%
D10*
%TO.C,DC3*%
X136015900Y-72694800D03*
X134290900Y-72694800D03*
%TD*%
D15*
%TO.C,C8*%
X121490400Y-75234800D03*
X123215400Y-75234800D03*
%TD*%
%TO.C,C6*%
X130201500Y-72720200D03*
X131926500Y-72720200D03*
%TD*%
D16*
%TO.C,R1*%
X139039600Y-83517100D03*
X139039600Y-85342100D03*
%TD*%
D11*
%TO.C,H2*%
X150520400Y-94056200D03*
%TD*%
D14*
%TO.C,C9*%
X138176000Y-75285600D03*
X138176000Y-73560600D03*
%TD*%
D11*
%TO.C,H1*%
X150368000Y-64236600D03*
%TD*%
D15*
%TO.C,DC1*%
X129134700Y-86258400D03*
X130859700Y-86258400D03*
%TD*%
D17*
%TO.C,R2*%
X127582300Y-76225400D03*
X125757300Y-76225400D03*
%TD*%
D18*
%TO.C,R4*%
X136171300Y-90652600D03*
X137996300Y-90652600D03*
%TD*%
%TO.C,R3*%
X125706500Y-74574400D03*
X127531500Y-74574400D03*
%TD*%
D19*
%TO.C,J1*%
X121335800Y-91059000D03*
D20*
X121335800Y-88519000D03*
X121335800Y-85979000D03*
X121335800Y-83439000D03*
%TD*%
D19*
%TO.C,J2*%
X147523200Y-71983600D03*
D20*
X147523200Y-74523600D03*
X147523200Y-77063600D03*
X147523200Y-79603600D03*
%TD*%
D21*
%TO.C,J3*%
X142124200Y-84257400D03*
X142124200Y-90037400D03*
D22*
X145804200Y-82827400D03*
D23*
X141624200Y-82827400D03*
D22*
X145804200Y-91467400D03*
D23*
X141624200Y-91467400D03*
%TD*%
M02*
