M48
; DRILL file {KiCad 9.0.7} date 2026-02-19T00:10:22+0530
; FORMAT={-:-/ absolute / metric / decimal}
; #@! TF.CreationDate,2026-02-19T00:10:22+05:30
; #@! TF.GenerationSoftware,Kicad,Pcbnew,9.0.7
; #@! TF.FileFunction,Plated,1,2,PTH
FMAT,2
METRIC
; #@! TA.AperFunction,Plated,PTH,ViaDrill
T1C0.300
; #@! TA.AperFunction,Plated,PTH,ComponentDrill
T2C0.600
; #@! TA.AperFunction,Plated,PTH,ComponentDrill
T3C1.000
%
G90
G05
T1
X123.622Y-70.841
X124.612Y-82.296
X125.106Y-78.892
X125.247Y-86.538
X125.247Y-91.313
X125.451Y-72.263
X125.515Y-80.32
X125.697Y-78.301
X128.771Y-85.065
X130.454Y-85.293
X131.166Y-89.002
X132.232Y-79.502
X132.613Y-78.588
X133.426Y-79.146
X133.441Y-82.155
X133.604Y-77.064
X134.188Y-77.8
X134.696Y-73.762
X136.042Y-74.041
X137.097Y-84.785
X137.271Y-81.362
X138.405Y-78.791
X138.938Y-89.713
X139.446Y-91.973
X139.7Y-70.764
X139.725Y-82.271
X139.929Y-80.67
X139.979Y-85.897
X141.351Y-81.356
X142.418Y-71.272
X142.469Y-73.914
X143.114Y-69.072
X143.866Y-78.029
X145.288Y-81.356
X146.634Y-69.85
X147.523Y-87.376
X148.107Y-66.294
T3
X121.336Y-83.439
X121.336Y-85.979
X121.336Y-88.519
X121.336Y-91.059
X147.523Y-71.984
X147.523Y-74.524
X147.523Y-77.064
X147.523Y-79.604
T2
G00X142.174Y-82.827
M15
G01X141.074Y-82.827
M16
G05
G00X142.174Y-91.467
M15
G01X141.074Y-91.467
M16
G05
G00X146.204Y-82.827
M15
G01X145.404Y-82.827
M16
G05
G00X146.204Y-91.467
M15
G01X145.404Y-91.467
M16
G05
M30
