%TF.GenerationSoftware,KiCad,Pcbnew,9.0.7*%
%TF.CreationDate,2026-02-19T19:28:42+05:30*%
%TF.ProjectId,breakout_board,62726561-6b6f-4757-945f-626f6172642e,rev?*%
%TF.SameCoordinates,Original*%
%TF.FileFunction,Copper,L2,Bot*%
%TF.FilePolarity,Positive*%
%FSLAX46Y46*%
G04 Gerber Fmt 4.6, Leading zero omitted, Abs format (unit mm)*
G04 Created by KiCad (PCBNEW 9.0.7) date 2026-02-19 19:28:42*
%MOMM*%
%LPD*%
G01*
G04 APERTURE LIST*
G04 Aperture macros list*
%AMRoundRect*
0 Rectangle with rounded corners*
0 $1 Rounding radius*
0 $2 $3 $4 $5 $6 $7 $8 $9 X,Y pos of 4 corners*
0 Add a 4 corners polygon primitive as box body*
4,1,4,$2,$3,$4,$5,$6,$7,$8,$9,$2,$3,0*
0 Add four circle primitives for the rounded corners*
1,1,$1+$1,$2,$3*
1,1,$1+$1,$4,$5*
1,1,$1+$1,$6,$7*
1,1,$1+$1,$8,$9*
0 Add four rect primitives between the rounded corners*
20,1,$1+$1,$2,$3,$4,$5,0*
20,1,$1+$1,$4,$5,$6,$7,0*
20,1,$1+$1,$6,$7,$8,$9,0*
20,1,$1+$1,$8,$9,$2,$3,0*%
G04 Aperture macros list end*
%TA.AperFunction,HeatsinkPad*%
%ADD10O,2.100000X1.000000*%
%TD*%
%TA.AperFunction,HeatsinkPad*%
%ADD11O,1.800000X1.000000*%
%TD*%
%TA.AperFunction,SMDPad,CuDef*%
%ADD12RoundRect,0.150000X-0.425000X0.150000X-0.425000X-0.150000X0.425000X-0.150000X0.425000X0.150000X0*%
%TD*%
%TA.AperFunction,SMDPad,CuDef*%
%ADD13RoundRect,0.075000X-0.500000X0.075000X-0.500000X-0.075000X0.500000X-0.075000X0.500000X0.075000X0*%
%TD*%
%TA.AperFunction,SMDPad,CuDef*%
%ADD14RoundRect,0.237500X0.287500X0.237500X-0.287500X0.237500X-0.287500X-0.237500X0.287500X-0.237500X0*%
%TD*%
%TA.AperFunction,SMDPad,CuDef*%
%ADD15RoundRect,0.237500X0.237500X-0.287500X0.237500X0.287500X-0.237500X0.287500X-0.237500X-0.287500X0*%
%TD*%
%TA.AperFunction,SMDPad,CuDef*%
%ADD16RoundRect,0.375000X-0.375000X0.625000X-0.375000X-0.625000X0.375000X-0.625000X0.375000X0.625000X0*%
%TD*%
%TA.AperFunction,SMDPad,CuDef*%
%ADD17RoundRect,0.500000X-1.400000X0.500000X-1.400000X-0.500000X1.400000X-0.500000X1.400000X0.500000X0*%
%TD*%
%TA.AperFunction,SMDPad,CuDef*%
%ADD18RoundRect,0.237500X-0.237500X0.250000X-0.237500X-0.250000X0.237500X-0.250000X0.237500X0.250000X0*%
%TD*%
%TA.AperFunction,ComponentPad*%
%ADD19R,1.700000X1.700000*%
%TD*%
%TA.AperFunction,ComponentPad*%
%ADD20C,1.700000*%
%TD*%
%TA.AperFunction,SMDPad,CuDef*%
%ADD21RoundRect,0.250000X-3.687500X-0.750000X3.687500X-0.750000X3.687500X0.750000X-3.687500X0.750000X0*%
%TD*%
%TA.AperFunction,SMDPad,CuDef*%
%ADD22RoundRect,0.237500X0.237500X-0.250000X0.237500X0.250000X-0.237500X0.250000X-0.237500X-0.250000X0*%
%TD*%
%TA.AperFunction,SMDPad,CuDef*%
%ADD23RoundRect,0.075000X-0.662500X-0.075000X0.662500X-0.075000X0.662500X0.075000X-0.662500X0.075000X0*%
%TD*%
%TA.AperFunction,SMDPad,CuDef*%
%ADD24RoundRect,0.075000X-0.075000X-0.662500X0.075000X-0.662500X0.075000X0.662500X-0.075000X0.662500X0*%
%TD*%
%TA.AperFunction,SMDPad,CuDef*%
%ADD25RoundRect,0.237500X-0.237500X0.287500X-0.237500X-0.287500X0.237500X-0.287500X0.237500X0.287500X0*%
%TD*%
%TA.AperFunction,SMDPad,CuDef*%
%ADD26RoundRect,0.237500X0.250000X0.237500X-0.250000X0.237500X-0.250000X-0.237500X0.250000X-0.237500X0*%
%TD*%
%TA.AperFunction,ViaPad*%
%ADD27C,0.600000*%
%TD*%
%TA.AperFunction,Conductor*%
%ADD28C,0.300000*%
%TD*%
%TA.AperFunction,Conductor*%
%ADD29C,0.200000*%
%TD*%
G04 APERTURE END LIST*
D10*
%TO.P,J3,S1,SHIELD*%
%TO.N,unconnected-(J3-SHIELD-PadS1)_3*%
X141624200Y-91467400D03*
D11*
%TO.N,unconnected-(J3-SHIELD-PadS1)_2*%
X145804200Y-91467400D03*
D10*
%TO.N,unconnected-(J3-SHIELD-PadS1)*%
X141624200Y-82827400D03*
D11*
%TO.N,unconnected-(J3-SHIELD-PadS1)_1*%
X145804200Y-82827400D03*
D12*
%TO.P,J3,B12,GND*%
%TO.N,GND*%
X141049200Y-83947400D03*
%TO.P,J3,B9,VBUS*%
%TO.N,VBUS*%
X141049200Y-84747400D03*
D13*
%TO.P,J3,B8,SBU2*%
%TO.N,unconnected-(J3-SBU2-PadB8)*%
X141049200Y-85397400D03*
%TO.P,J3,B7,D-*%
%TO.N,USB_D-*%
X141049200Y-86397400D03*
%TO.P,J3,B6,D+*%
%TO.N,USB_D+*%
X141049200Y-87897400D03*
%TO.P,J3,B5,CC2*%
%TO.N,Net-(J3-CC2)*%
X141049200Y-88897400D03*
D12*
%TO.P,J3,B4,VBUS*%
%TO.N,VBUS*%
X141049200Y-89547400D03*
%TO.P,J3,B1,GND*%
%TO.N,GND*%
X141049200Y-90347400D03*
%TO.P,J3,A12,GND*%
X141049200Y-90347400D03*
%TO.P,J3,A9,VBUS*%
%TO.N,VBUS*%
X141049200Y-89547400D03*
D13*
%TO.P,J3,A8,SBU1*%
%TO.N,unconnected-(J3-SBU1-PadA8)*%
X141049200Y-88397400D03*
%TO.P,J3,A7,D-*%
%TO.N,USB_D-*%
X141049200Y-87397400D03*
%TO.P,J3,A6,D+*%
%TO.N,USB_D+*%
X141049200Y-86897400D03*
%TO.P,J3,A5,CC1*%
%TO.N,Net-(J3-CC1)*%
X141049200Y-85897400D03*
D12*
%TO.P,J3,A4,VBUS*%
%TO.N,VBUS*%
X141049200Y-84747400D03*
%TO.P,J3,A1,GND*%
%TO.N,GND*%
X141049200Y-83947400D03*
%TD*%
D14*
%TO.P,LED,2,A*%
%TO.N,Net-(D3-A)*%
X144782600Y-67868800D03*
%TO.P,LED,1,K*%
%TO.N,GND*%
X146532600Y-67868800D03*
%TD*%
D15*
%TO.P,D1,1,K*%
%TO.N,Net-(D1-K)*%
X127025400Y-87283900D03*
%TO.P,D1,2,A*%
%TO.N,LED*%
X127025400Y-85533900D03*
%TD*%
D16*
%TO.P,AMS1117,1,GND*%
%TO.N,GND*%
X139152600Y-72516600D03*
%TO.P,AMS1117,2,VO*%
%TO.N,VDD_c*%
X141452600Y-72516600D03*
D17*
X141452600Y-78816600D03*
D16*
%TO.P,AMS1117,3,VI*%
%TO.N,VBUS*%
X143752600Y-72516600D03*
%TD*%
D18*
%TO.P,R7,1*%
%TO.N,Net-(D2-A)*%
X133654800Y-89758850D03*
%TO.P,R7,2*%
%TO.N,VBUS*%
X133654800Y-91583850D03*
%TD*%
D19*
%TO.P,J1,1,Pin_1*%
%TO.N,DP1*%
X121335800Y-91059000D03*
D20*
%TO.P,J1,2,Pin_2*%
%TO.N,DP2*%
X121335800Y-88519000D03*
%TO.P,J1,3,Pin_3*%
%TO.N,DP3*%
X121335800Y-85979000D03*
%TO.P,J1,4,Pin_4*%
%TO.N,DP4*%
X121335800Y-83439000D03*
%TD*%
D19*
%TO.P,J2,1,Pin_1*%
%TO.N,VDD_c*%
X147523200Y-71983600D03*
D20*
%TO.P,J2,2,Pin_2*%
%TO.N,SWDIO*%
X147523200Y-74523600D03*
%TO.P,J2,3,Pin_3*%
%TO.N,SWCLK*%
X147523200Y-77063600D03*
%TO.P,J2,4,Pin_4*%
%TO.N,GND*%
X147523200Y-79603600D03*
%TD*%
D21*
%TO.P,Oscillator,1,1*%
%TO.N,OSC_IN*%
X124053600Y-68199000D03*
%TO.P,Oscillator,2,2*%
%TO.N,OSC_OUT*%
X135928600Y-68199000D03*
%TD*%
D22*
%TO.P,1k,1*%
%TO.N,GND*%
X127025400Y-91131400D03*
%TO.P,1k,2*%
%TO.N,Net-(D1-K)*%
X127025400Y-89306400D03*
%TD*%
D23*
%TO.P,U1,1,VBAT*%
%TO.N,unconnected-(U1-VBAT-Pad1)*%
X127358700Y-81972600D03*
%TO.P,U1,2,PC13*%
%TO.N,LED*%
X127358700Y-81472600D03*
%TO.P,U1,3,PC14*%
%TO.N,unconnected-(U1-PC14-Pad3)*%
X127358700Y-80972600D03*
%TO.P,U1,4,PC15*%
%TO.N,unconnected-(U1-PC15-Pad4)*%
X127358700Y-80472600D03*
%TO.P,U1,5,PD0*%
%TO.N,OSC_IN*%
X127358700Y-79972600D03*
%TO.P,U1,6,PD1*%
%TO.N,OSC_OUT*%
X127358700Y-79472600D03*
%TO.P,U1,7,NRST*%
%TO.N,unconnected-(U1-NRST-Pad7)*%
X127358700Y-78972600D03*
%TO.P,U1,8,VSSA*%
%TO.N,GND*%
X127358700Y-78472600D03*
%TO.P,U1,9,VDDA*%
%TO.N,VDD_c*%
X127358700Y-77972600D03*
%TO.P,U1,10,PA0*%
%TO.N,DP1*%
X127358700Y-77472600D03*
%TO.P,U1,11,PA1*%
%TO.N,DP2*%
X127358700Y-76972600D03*
%TO.P,U1,12,PA2*%
%TO.N,DP3*%
X127358700Y-76472600D03*
D24*
%TO.P,U1,13,PA3*%
%TO.N,DP4*%
X128771200Y-75060100D03*
%TO.P,U1,14,PA4*%
%TO.N,unconnected-(U1-PA4-Pad14)*%
X129271200Y-75060100D03*
%TO.P,U1,15,PA5*%
%TO.N,unconnected-(U1-PA5-Pad15)*%
X129771200Y-75060100D03*
%TO.P,U1,16,PA6*%
%TO.N,unconnected-(U1-PA6-Pad16)*%
X130271200Y-75060100D03*
%TO.P,U1,17,PA7*%
%TO.N,unconnected-(U1-PA7-Pad17)*%
X130771200Y-75060100D03*
%TO.P,U1,18,PB0*%
%TO.N,unconnected-(U1-PB0-Pad18)*%
X131271200Y-75060100D03*
%TO.P,U1,19,PB1*%
%TO.N,unconnected-(U1-PB1-Pad19)*%
X131771200Y-75060100D03*
%TO.P,U1,20,PB2*%
%TO.N,unconnected-(U1-PB2-Pad20)*%
X132271200Y-75060100D03*
%TO.P,U1,21,PB10*%
%TO.N,unconnected-(U1-PB10-Pad21)*%
X132771200Y-75060100D03*
%TO.P,U1,22,PB11*%
%TO.N,unconnected-(U1-PB11-Pad22)*%
X133271200Y-75060100D03*
%TO.P,U1,23,VSS*%
%TO.N,GND*%
X133771200Y-75060100D03*
%TO.P,U1,24,VDD*%
%TO.N,VDD_c*%
X134271200Y-75060100D03*
D23*
%TO.P,U1,25,PB12*%
%TO.N,unconnected-(U1-PB12-Pad25)*%
X135683700Y-76472600D03*
%TO.P,U1,26,PB13*%
%TO.N,unconnected-(U1-PB13-Pad26)*%
X135683700Y-76972600D03*
%TO.P,U1,27,PB14*%
%TO.N,unconnected-(U1-PB14-Pad27)*%
X135683700Y-77472600D03*
%TO.P,U1,28,PB15*%
%TO.N,unconnected-(U1-PB15-Pad28)*%
X135683700Y-77972600D03*
%TO.P,U1,29,PA8*%
%TO.N,SWDIO*%
X135683700Y-78472600D03*
%TO.P,U1,30,PA9*%
%TO.N,SWCLK*%
X135683700Y-78972600D03*
%TO.P,U1,31,PA10*%
%TO.N,unconnected-(U1-PA10-Pad31)*%
X135683700Y-79472600D03*
%TO.P,U1,32,PA11*%
%TO.N,USB_D-*%
X135683700Y-79972600D03*
%TO.P,U1,33,PA12*%
%TO.N,USB_D+*%
X135683700Y-80472600D03*
%TO.P,U1,34,PA13*%
%TO.N,unconnected-(U1-PA13-Pad34)*%
X135683700Y-80972600D03*
%TO.P,U1,35,VSS*%
%TO.N,GND*%
X135683700Y-81472600D03*
%TO.P,U1,36,VDD*%
%TO.N,VDD_c*%
X135683700Y-81972600D03*
D24*
%TO.P,U1,37,PA14*%
%TO.N,unconnected-(U1-PA14-Pad37)*%
X134271200Y-83385100D03*
%TO.P,U1,38,PA15*%
%TO.N,unconnected-(U1-PA15-Pad38)*%
X133771200Y-83385100D03*
%TO.P,U1,39,PB3*%
%TO.N,unconnected-(U1-PB3-Pad39)*%
X133271200Y-83385100D03*
%TO.P,U1,40,PB4*%
%TO.N,OUT*%
X132771200Y-83385100D03*
%TO.P,U1,41,PB5*%
%TO.N,DIR*%
X132271200Y-83385100D03*
%TO.P,U1,42,PB6*%
%TO.N,SCL_ENC*%
X131771200Y-83385100D03*
%TO.P,U1,43,PB7*%
%TO.N,SDA_ENC*%
X131271200Y-83385100D03*
%TO.P,U1,44,BOOT0*%
%TO.N,unconnected-(U1-BOOT0-Pad44)*%
X130771200Y-83385100D03*
%TO.P,U1,45,PB8*%
%TO.N,unconnected-(U1-PB8-Pad45)*%
X130271200Y-83385100D03*
%TO.P,U1,46,PB9*%
%TO.N,unconnected-(U1-PB9-Pad46)*%
X129771200Y-83385100D03*
%TO.P,U1,47,VSS*%
%TO.N,GND*%
X129271200Y-83385100D03*
%TO.P,U1,48,VDD*%
%TO.N,VDD_c*%
X128771200Y-83385100D03*
%TD*%
D25*
%TO.P,D2,1,K*%
%TO.N,GND*%
X133654800Y-85986350D03*
%TO.P,D2,2,A*%
%TO.N,Net-(D2-A)*%
X133654800Y-87736350D03*
%TD*%
D26*
%TO.P,1k,1*%
%TO.N,Net-(D3-A)*%
X142875000Y-68097400D03*
%TO.P,1k,2*%
%TO.N,VDD_c*%
X141050000Y-68097400D03*
%TD*%
%TO.P,1k5,1*%
%TO.N,USB_D+*%
X138199500Y-87655400D03*
%TO.P,1k5,2*%
%TO.N,VDD_c*%
X136374500Y-87655400D03*
%TD*%
D27*
%TO.N,GND*%
X139446000Y-82296000D03*
X134696200Y-73761600D03*
X147320000Y-86588600D03*
X130454400Y-85293200D03*
X125247400Y-91313000D03*
X139700000Y-70764400D03*
X139446000Y-91973400D03*
X132613400Y-78587600D03*
X141782800Y-69596000D03*
X125105744Y-78891695D03*
X141681200Y-80975200D03*
X131165600Y-89001600D03*
X125247400Y-86537800D03*
X133604000Y-77063600D03*
X147853400Y-66548000D03*
X144957800Y-80975200D03*
X137271104Y-81361505D03*
%TO.N,VDD_c*%
X139928600Y-80670400D03*
X136042400Y-74041000D03*
X125696920Y-78300520D03*
X143865600Y-78028800D03*
X142468600Y-73914000D03*
X142417800Y-71272400D03*
X128771200Y-85064600D03*
X137363200Y-84734400D03*
X138404600Y-78790800D03*
%TO.N,OSC_IN*%
X123621800Y-70840600D03*
X124612400Y-82296000D03*
%TO.N,OSC_OUT*%
X125514875Y-80319955D03*
X125450600Y-72263000D03*
%TO.N,OUT*%
X133441218Y-82155339D03*
%TO.N,DIR*%
X134188200Y-77800200D03*
%TO.N,SCL_ENC*%
X133426200Y-79146400D03*
%TO.N,SDA_ENC*%
X132232400Y-79502000D03*
%TO.N,Net-(J3-CC1)*%
X139979400Y-85897400D03*
%TO.N,Net-(J3-CC2)*%
X138938000Y-89712800D03*
%TO.N,VBUS*%
X148031200Y-69240400D03*
%TD*%
D28*
%TO.N,VDD_c*%
X141050000Y-72114000D02*
X141452600Y-72516600D01*
X141050000Y-68097400D02*
X141050000Y-72114000D01*
%TO.N,VBUS*%
X147028800Y-69240400D02*
X143752600Y-72516600D01*
X148031200Y-69240400D02*
X147028800Y-69240400D01*
X148031200Y-69240400D02*
X148005800Y-69265800D01*
%TO.N,GND*%
X140474201Y-83947400D02*
X141049200Y-83947400D01*
X139446000Y-82296000D02*
X139725400Y-82575400D01*
X139725400Y-82575400D02*
X139725400Y-83198599D01*
X139725400Y-83198599D02*
X140474201Y-83947400D01*
D29*
%TO.N,Net-(D3-A)*%
X143103600Y-67868800D02*
X142875000Y-68097400D01*
X144782600Y-67868800D02*
X143103600Y-67868800D01*
D28*
%TO.N,VDD_c*%
X136176200Y-81972600D02*
X135683700Y-81972600D01*
X137109200Y-84480400D02*
X137109200Y-82905600D01*
X137363200Y-84734400D02*
X137109200Y-84480400D01*
X136374500Y-85507700D02*
X136374500Y-87655400D01*
X137147800Y-84734400D02*
X136374500Y-85507700D01*
X137363200Y-84734400D02*
X137147800Y-84734400D01*
X137109200Y-82905600D02*
X136176200Y-81972600D01*
D29*
%TO.N,GND*%
X125115569Y-78901520D02*
X125105744Y-78891695D01*
X141049200Y-90347400D02*
X139446000Y-91950600D01*
X133771200Y-74288776D02*
X134298376Y-73761600D01*
X137271104Y-81361505D02*
X137160009Y-81472600D01*
X134298376Y-73761600D02*
X134696200Y-73761600D01*
X139700000Y-71969200D02*
X139152600Y-72516600D01*
X126374783Y-78472600D02*
X125945863Y-78901520D01*
X139446000Y-91950600D02*
X139446000Y-91973400D01*
X125945863Y-78901520D02*
X125115569Y-78901520D01*
X129271200Y-84156424D02*
X130407976Y-85293200D01*
X130407976Y-85293200D02*
X130454400Y-85293200D01*
X137160009Y-81472600D02*
X135683700Y-81472600D01*
X133771200Y-75060100D02*
X133771200Y-74288776D01*
X127358700Y-78472600D02*
X126374783Y-78472600D01*
X129271200Y-83385100D02*
X129271200Y-84156424D01*
D28*
%TO.N,VBUS*%
X145415000Y-85115400D02*
X141946734Y-85115400D01*
X143752600Y-72516600D02*
X144540400Y-73304400D01*
X148724200Y-74096840D02*
X148828000Y-74200640D01*
X138525072Y-91583850D02*
X140561522Y-89547400D01*
X144540400Y-73304400D02*
X148002471Y-73304400D01*
X148828000Y-74200640D02*
X148828000Y-81727800D01*
X140561522Y-89547400D02*
X141049200Y-89547400D01*
X148724200Y-74026129D02*
X148724200Y-74096840D01*
X141946734Y-85115400D02*
X141727734Y-84896400D01*
X148828000Y-81727800D02*
X148699600Y-81856200D01*
X142158800Y-89311400D02*
X148828000Y-82642200D01*
D29*
X141508024Y-84747400D02*
X141049200Y-84747400D01*
D28*
X141823481Y-89311400D02*
X142158800Y-89311400D01*
X141587481Y-89547400D02*
X141823481Y-89311400D01*
X141727734Y-84896400D02*
X141657024Y-84896400D01*
X141049200Y-89547400D02*
X141587481Y-89547400D01*
X148828000Y-82642200D02*
X148828000Y-81727800D01*
X148002471Y-73304400D02*
X148724200Y-74026129D01*
X148674200Y-81856200D02*
X145415000Y-85115400D01*
X148699600Y-81856200D02*
X148674200Y-81856200D01*
X141657024Y-84896400D02*
X141508024Y-84747400D01*
X133654800Y-91583850D02*
X138525072Y-91583850D01*
%TO.N,VDD_c*%
X141020800Y-80619600D02*
X141452600Y-80187800D01*
D29*
X141452600Y-72516600D02*
X141452600Y-72237600D01*
X125696920Y-78300520D02*
X126024840Y-77972600D01*
X126024840Y-77972600D02*
X127358700Y-77972600D01*
D28*
X141452600Y-80187800D02*
X141452600Y-78816600D01*
D29*
X136042400Y-74041000D02*
X135290300Y-74041000D01*
X143077800Y-78816600D02*
X143865600Y-78028800D01*
X128771200Y-85064600D02*
X128771200Y-83385100D01*
D28*
X140970000Y-80670400D02*
X139928600Y-80670400D01*
X141020800Y-80619600D02*
X140970000Y-80670400D01*
D29*
X138404600Y-78790800D02*
X138430400Y-78816600D01*
X141452600Y-78816600D02*
X143077800Y-78816600D01*
X134271200Y-75060100D02*
X135290300Y-74041000D01*
X141452600Y-72516600D02*
X141452600Y-72898000D01*
X141452600Y-72898000D02*
X142468600Y-73914000D01*
X138430400Y-78816600D02*
X141452600Y-78816600D01*
X141452600Y-72237600D02*
X142417800Y-71272400D01*
%TO.N,OSC_IN*%
X127309700Y-80021600D02*
X127358700Y-79972600D01*
X123805700Y-68199000D02*
X123805700Y-70656700D01*
X127358700Y-79972600D02*
X126580200Y-79972600D01*
X126580200Y-79972600D02*
X126196614Y-80356186D01*
X126196614Y-80711786D02*
X124612400Y-82296000D01*
X123805700Y-70656700D02*
X123621800Y-70840600D01*
X126196614Y-80356186D02*
X126196614Y-80711786D01*
%TO.N,OSC_OUT*%
X125795614Y-80264362D02*
X125795614Y-79791986D01*
X125795614Y-79791986D02*
X126115000Y-79472600D01*
X126115000Y-79472600D02*
X127358700Y-79472600D01*
X129514600Y-68199000D02*
X125450600Y-72263000D01*
X125450600Y-72263000D02*
X125450600Y-72110600D01*
X135680700Y-68199000D02*
X129514600Y-68199000D01*
D28*
%TO.N,LED*%
X126250100Y-85533900D02*
X127025400Y-85533900D01*
X127358700Y-81472600D02*
X126502600Y-81472600D01*
X125704600Y-82270600D02*
X125704600Y-84988400D01*
X125704600Y-84988400D02*
X126250100Y-85533900D01*
X126502600Y-81472600D02*
X125704600Y-82270600D01*
%TO.N,Net-(D1-K)*%
X127025400Y-87283900D02*
X127025400Y-89306400D01*
%TO.N,Net-(D2-A)*%
X133654800Y-87736350D02*
X133654800Y-89758850D01*
D29*
%TO.N,OUT*%
X133229637Y-82155339D02*
X132771200Y-82613776D01*
X132771200Y-82613776D02*
X132771200Y-83385100D01*
X133441218Y-82155339D02*
X133229637Y-82155339D01*
%TO.N,DIR*%
X132271200Y-82415776D02*
X134188200Y-80498776D01*
X134188200Y-80498776D02*
X134188200Y-77800200D01*
X132271200Y-83385100D02*
X132271200Y-82415776D01*
%TO.N,SCL_ENC*%
X131722200Y-83336100D02*
X131771200Y-83385100D01*
X133426200Y-79629000D02*
X133426200Y-79146400D01*
X132884200Y-80182743D02*
X132884200Y-80171000D01*
X132532143Y-80534800D02*
X132884200Y-80182743D01*
X131771200Y-81284000D02*
X132520400Y-80534800D01*
X132884200Y-80171000D02*
X133426200Y-79629000D01*
X131771200Y-83385100D02*
X131771200Y-81284000D01*
X132520400Y-80534800D02*
X132532143Y-80534800D01*
%TO.N,SDA_ENC*%
X131934404Y-80282596D02*
X131271200Y-80945800D01*
X132232400Y-79502000D02*
X132232400Y-79984600D01*
X132232400Y-79984600D02*
X131934404Y-80282596D01*
X131271200Y-80945800D02*
X131271200Y-83385100D01*
X131222200Y-83336100D02*
X131271200Y-83385100D01*
%TO.N,SWCLK*%
X138665224Y-77063600D02*
X138462024Y-77063600D01*
X138462024Y-77063600D02*
X136553024Y-78972600D01*
X136553024Y-78972600D02*
X135683700Y-78972600D01*
X138665224Y-77063600D02*
X147523200Y-77063600D01*
%TO.N,SWDIO*%
X136504024Y-78423600D02*
X136485800Y-78423600D01*
X136485800Y-78423600D02*
X136436800Y-78472600D01*
X136722200Y-78187200D02*
X136722200Y-78205424D01*
X140639800Y-74523600D02*
X140385800Y-74523600D01*
X140385800Y-74523600D02*
X136722200Y-78187200D01*
X136436800Y-78472600D02*
X135683700Y-78472600D01*
X136722200Y-78205424D02*
X136504024Y-78423600D01*
X140639800Y-74523600D02*
X147523200Y-74523600D01*
%TO.N,USB_D+*%
X138003600Y-81039700D02*
X138003600Y-86754700D01*
X137411500Y-80447600D02*
X138003600Y-81039700D01*
X141925200Y-87630224D02*
X141658024Y-87897400D01*
X138003600Y-86754700D02*
X139146300Y-87897400D01*
X141049200Y-86897400D02*
X141658024Y-86897400D01*
X135683700Y-80472600D02*
X135708700Y-80447600D01*
X141658024Y-86897400D02*
X141925200Y-87164576D01*
X135708700Y-80447600D02*
X137411500Y-80447600D01*
X139146300Y-87897400D02*
X141049200Y-87897400D01*
X141658024Y-87897400D02*
X141049200Y-87897400D01*
X141925200Y-87164576D02*
X141925200Y-87630224D01*
%TO.N,USB_D-*%
X135708700Y-79997600D02*
X137528600Y-79997600D01*
X141049200Y-86397400D02*
X140440376Y-86397400D01*
X138404600Y-86588600D02*
X139217400Y-87401400D01*
X137528600Y-79997600D02*
X138404600Y-80873600D01*
X139217400Y-87401400D02*
X141045200Y-87401400D01*
X135683700Y-79972600D02*
X135708700Y-79997600D01*
X140173200Y-86664576D02*
X140173200Y-87261000D01*
X141000200Y-86446400D02*
X141049200Y-86397400D01*
X141045200Y-87401400D02*
X141049200Y-87397400D01*
X140309600Y-87397400D02*
X141049200Y-87397400D01*
X140173200Y-87261000D02*
X140309600Y-87397400D01*
X138404600Y-80873600D02*
X138404600Y-86588600D01*
X140440376Y-86397400D02*
X140173200Y-86664576D01*
D28*
%TO.N,Net-(J3-CC1)*%
X139979400Y-85897400D02*
X141049200Y-85897400D01*
%TO.N,Net-(J3-CC2)*%
X138938000Y-89710900D02*
X138938000Y-89712800D01*
X138962450Y-89686450D02*
X139751500Y-88897400D01*
X138962450Y-89686450D02*
X138938000Y-89710900D01*
X139751500Y-88897400D02*
X141049200Y-88897400D01*
D29*
%TO.N,Net-(D3-A)*%
X144842500Y-68097400D02*
X144852500Y-68087400D01*
D28*
%TO.N,DP2*%
X123063000Y-79298800D02*
X123063000Y-88087200D01*
X127358700Y-76972600D02*
X125389200Y-76972600D01*
X125389200Y-76972600D02*
X123063000Y-79298800D01*
X122631200Y-88519000D02*
X121335800Y-88519000D01*
X123063000Y-88087200D02*
X122631200Y-88519000D01*
%TO.N,DP4*%
X125726900Y-75060100D02*
X120218200Y-80568800D01*
X128771200Y-75060100D02*
X125726900Y-75060100D01*
X120218200Y-82321400D02*
X121335800Y-83439000D01*
X120218200Y-80568800D02*
X120218200Y-82321400D01*
%TO.N,DP1*%
X123825000Y-90322400D02*
X123088400Y-91059000D01*
X123748800Y-80608280D02*
X123825000Y-80684480D01*
X127358700Y-77472600D02*
X125605600Y-77472600D01*
X125605600Y-77472600D02*
X123748800Y-79329400D01*
X123088400Y-91059000D02*
X121335800Y-91059000D01*
X123748800Y-79329400D02*
X123748800Y-80608280D01*
X123825000Y-80684480D02*
X123825000Y-90322400D01*
%TO.N,DP3*%
X122555000Y-78968600D02*
X122555000Y-84759800D01*
X125051000Y-76472600D02*
X122555000Y-78968600D01*
X121335800Y-85979000D02*
X121234200Y-85877400D01*
X122555000Y-84759800D02*
X121335800Y-85979000D01*
X127358700Y-76472600D02*
X125051000Y-76472600D01*
%TD*%
%TA.AperFunction,Conductor*%
%TO.N,GND*%
G36*
X149412104Y-65271719D02*
G01*
X149448319Y-65321035D01*
X149453321Y-65352382D01*
X149451824Y-65889551D01*
X149451754Y-65889762D01*
X149451822Y-65889975D01*
X149442234Y-65918784D01*
X149432754Y-65947689D01*
X149432572Y-65947819D01*
X149432503Y-65948030D01*
X149407865Y-65965665D01*
X149383154Y-65983514D01*
X149382815Y-65983596D01*
X149382750Y-65983643D01*
X149376019Y-65985777D01*
X149357278Y-65988895D01*
X149336707Y-65998243D01*
X149331057Y-66000036D01*
X149326875Y-66001262D01*
X149316464Y-66004063D01*
X149310748Y-66005601D01*
X149310741Y-66005604D01*
X149279153Y-66023882D01*
X149279154Y-66023883D01*
X149274944Y-66026319D01*
X149237306Y-66043428D01*
X149218158Y-66059179D01*
X149211129Y-66063247D01*
X149211125Y-66063250D01*
X149196689Y-66071605D01*
X149196682Y-66071609D01*
X149170899Y-66097441D01*
X149170900Y-66097442D01*
X149167463Y-66100885D01*
X149135536Y-66127153D01*
X149121117Y-66147323D01*
X149115375Y-66153078D01*
X149115375Y-66153079D01*
X149103595Y-66164883D01*
X149103590Y-66164889D01*
X149085369Y-66196521D01*
X149082945Y-66200728D01*
X149058903Y-66234366D01*
X149050195Y-66257581D01*
X149046140Y-66264623D01*
X149046140Y-66264625D01*
X149037814Y-66279081D01*
X149028398Y-66314358D01*
X149027145Y-66319050D01*
X149012631Y-66357759D01*
X149010229Y-66382434D01*
X149008134Y-66390287D01*
X149008134Y-66390289D01*
X149003835Y-66406400D01*
X149003834Y-66406407D01*
X149003834Y-66406408D01*
X149003875Y-66447769D01*
X148999872Y-66488924D01*
X149003939Y-66513379D01*
X149003947Y-66521510D01*
X149003948Y-66521511D01*
X149010991Y-73578132D01*
X148992142Y-73636342D01*
X148942678Y-73672355D01*
X148881492Y-73672416D01*
X148841987Y-73648234D01*
X148386211Y-73192457D01*
X148358434Y-73137941D01*
X148368005Y-73077509D01*
X148411270Y-73034244D01*
X148436897Y-73025357D01*
X148451431Y-73022467D01*
X148517752Y-72978152D01*
X148562067Y-72911831D01*
X148573700Y-72853348D01*
X148573700Y-71113852D01*
X148562067Y-71055369D01*
X148517752Y-70989048D01*
X148481891Y-70965086D01*
X148451433Y-70944734D01*
X148451431Y-70944733D01*
X148451428Y-70944732D01*
X148451427Y-70944732D01*
X148392958Y-70933101D01*
X148392948Y-70933100D01*
X146653452Y-70933100D01*
X146653451Y-70933100D01*
X146653441Y-70933101D01*
X146594972Y-70944732D01*
X146594966Y-70944734D01*
X146528651Y-70989045D01*
X146528645Y-70989051D01*
X146484334Y-71055366D01*
X146484332Y-71055372D01*
X146472701Y-71113841D01*
X146472700Y-71113853D01*
X146472700Y-72854900D01*
X146453793Y-72913091D01*
X146404293Y-72949055D01*
X146373700Y-72953900D01*
X144802100Y-72953900D01*
X144743909Y-72934993D01*
X144707945Y-72885493D01*
X144703100Y-72854900D01*
X144703100Y-72102790D01*
X144722007Y-72044599D01*
X144732096Y-72032786D01*
X147144986Y-69619896D01*
X147199503Y-69592119D01*
X147214990Y-69590900D01*
X147632879Y-69590900D01*
X147691070Y-69609807D01*
X147702876Y-69619890D01*
X147723886Y-69640900D01*
X147723888Y-69640901D01*
X147723890Y-69640903D01*
X147838010Y-69706790D01*
X147838008Y-69706790D01*
X147838012Y-69706791D01*
X147838014Y-69706792D01*
X147965308Y-69740900D01*
X147965310Y-69740900D01*
X148097090Y-69740900D01*
X148097092Y-69740900D01*
X148224386Y-69706792D01*
X148224388Y-69706790D01*
X148224390Y-69706790D01*
X148338509Y-69640903D01*
X148338509Y-69640902D01*
X148338514Y-69640900D01*
X148431700Y-69547714D01*
X148477777Y-69467907D01*
X148497590Y-69433590D01*
X148497590Y-69433588D01*
X148497592Y-69433586D01*
X148531700Y-69306292D01*
X148531700Y-69174508D01*
X148497592Y-69047214D01*
X148497590Y-69047211D01*
X148497590Y-69047209D01*
X148431703Y-68933090D01*
X148431701Y-68933088D01*
X148431700Y-68933086D01*
X148338514Y-68839900D01*
X148338511Y-68839898D01*
X148338509Y-68839896D01*
X148224389Y-68774009D01*
X148224391Y-68774009D01*
X148174999Y-68760775D01*
X148097092Y-68739900D01*
X147965308Y-68739900D01*
X147887400Y-68760775D01*
X147838009Y-68774009D01*
X147723890Y-68839896D01*
X147723889Y-68839897D01*
X147723886Y-68839899D01*
X147723886Y-68839900D01*
X147702880Y-68860905D01*
X147648366Y-68888681D01*
X147632879Y-68889900D01*
X146982656Y-68889900D01*
X146933897Y-68902965D01*
X146893507Y-68913787D01*
X146813591Y-68959927D01*
X146813590Y-68959928D01*
X144441119Y-71332397D01*
X144386602Y-71360174D01*
X144333231Y-71353858D01*
X144326150Y-71350925D01*
X144277836Y-71330913D01*
X144277833Y-71330912D01*
X144277835Y-71330912D01*
X144165320Y-71316100D01*
X143339880Y-71316100D01*
X143339879Y-71316100D01*
X143227367Y-71330912D01*
X143227361Y-71330914D01*
X143087368Y-71388901D01*
X143077567Y-71396422D01*
X143019891Y-71416845D01*
X142961225Y-71399467D01*
X142923978Y-71350925D01*
X142918300Y-71317879D01*
X142918300Y-71206509D01*
X142918300Y-71206508D01*
X142884192Y-71079214D01*
X142884190Y-71079211D01*
X142884190Y-71079209D01*
X142818303Y-70965090D01*
X142818301Y-70965088D01*
X142818300Y-70965086D01*
X142725114Y-70871900D01*
X142725111Y-70871898D01*
X142725109Y-70871896D01*
X142610989Y-70806009D01*
X142610991Y-70806009D01*
X142561599Y-70792775D01*
X142483692Y-70771900D01*
X142351908Y-70771900D01*
X142274000Y-70792775D01*
X142224609Y-70806009D01*
X142110490Y-70871896D01*
X142017296Y-70965090D01*
X141951409Y-71079209D01*
X141917300Y-71206509D01*
X141917300Y-71217100D01*
X141898393Y-71275291D01*
X141848893Y-71311255D01*
X141818300Y-71316100D01*
X141499500Y-71316100D01*
X141441309Y-71297193D01*
X141405345Y-71247693D01*
X141400500Y-71217100D01*
X141400500Y-68834017D01*
X141419407Y-68775826D01*
X141466801Y-68740573D01*
X141506975Y-68726516D01*
X141613211Y-68648111D01*
X141691616Y-68541875D01*
X141735225Y-68417249D01*
X141738000Y-68387656D01*
X141738000Y-67807144D01*
X141738000Y-67807138D01*
X141737999Y-67807133D01*
X142187000Y-67807133D01*
X142187000Y-68387666D01*
X142189774Y-68417244D01*
X142189776Y-68417252D01*
X142233384Y-68541876D01*
X142308607Y-68643800D01*
X142311789Y-68648111D01*
X142311792Y-68648113D01*
X142311793Y-68648114D01*
X142418023Y-68726515D01*
X142418024Y-68726515D01*
X142418025Y-68726516D01*
X142542651Y-68770125D01*
X142569941Y-68772684D01*
X142572233Y-68772899D01*
X142572238Y-68772900D01*
X142572244Y-68772900D01*
X143177762Y-68772900D01*
X143177765Y-68772899D01*
X143207349Y-68770125D01*
X143331975Y-68726516D01*
X143438211Y-68648111D01*
X143516616Y-68541875D01*
X143560225Y-68417249D01*
X143563000Y-68387656D01*
X143563000Y-68268300D01*
X143581907Y-68210109D01*
X143631407Y-68174145D01*
X143662000Y-68169300D01*
X143982861Y-68169300D01*
X144041052Y-68188207D01*
X144076305Y-68235602D01*
X144103484Y-68313276D01*
X144181885Y-68419506D01*
X144181889Y-68419511D01*
X144181892Y-68419513D01*
X144181893Y-68419514D01*
X144288123Y-68497915D01*
X144288124Y-68497915D01*
X144288125Y-68497916D01*
X144412751Y-68541525D01*
X144440041Y-68544084D01*
X144442333Y-68544299D01*
X144442338Y-68544300D01*
X144442344Y-68544300D01*
X145122862Y-68544300D01*
X145122865Y-68544299D01*
X145152449Y-68541525D01*
X145277075Y-68497916D01*
X145383311Y-68419511D01*
X145461716Y-68313275D01*
X145505325Y-68188649D01*
X145508100Y-68159056D01*
X145508100Y-68118801D01*
X145707600Y-68118801D01*
X145707600Y-68148382D01*
X145717973Y-68234758D01*
X145772176Y-68372208D01*
X145772179Y-68372212D01*
X145861454Y-68489939D01*
X145861460Y-68489945D01*
X145979187Y-68579220D01*
X145979191Y-68579223D01*
X146116641Y-68633426D01*
X146203017Y-68643799D01*
X146203024Y-68643800D01*
X146282599Y-68643800D01*
X146282600Y-68643799D01*
X146282600Y-68118801D01*
X146782600Y-68118801D01*
X146782600Y-68643799D01*
X146782601Y-68643800D01*
X146862176Y-68643800D01*
X146862182Y-68643799D01*
X146948558Y-68633426D01*
X147086008Y-68579223D01*
X147086012Y-68579220D01*
X147203739Y-68489945D01*
X147203745Y-68489939D01*
X147293020Y-68372212D01*
X147293023Y-68372208D01*
X147347226Y-68234758D01*
X147357599Y-68148382D01*
X147357600Y-68148376D01*
X147357600Y-68118801D01*
X147357599Y-68118800D01*
X146782601Y-68118800D01*
X146782600Y-68118801D01*
X146282600Y-68118801D01*
X146282599Y-68118800D01*
X145707601Y-68118800D01*
X145707600Y-68118801D01*
X145508100Y-68118801D01*
X145508100Y-67589217D01*
X145707600Y-67589217D01*
X145707600Y-67618799D01*
X145707601Y-67618800D01*
X146282599Y-67618800D01*
X146282600Y-67618799D01*
X146282600Y-67093801D01*
X146782600Y-67093801D01*
X146782600Y-67618799D01*
X146782601Y-67618800D01*
X147357599Y-67618800D01*
X147357600Y-67618799D01*
X147357600Y-67589223D01*
X147357599Y-67589217D01*
X147347226Y-67502841D01*
X147293023Y-67365391D01*
X147293020Y-67365387D01*
X147203745Y-67247660D01*
X147203739Y-67247654D01*
X147086012Y-67158379D01*
X147086008Y-67158376D01*
X146948558Y-67104173D01*
X146862182Y-67093800D01*
X146782601Y-67093800D01*
X146782600Y-67093801D01*
X146282600Y-67093801D01*
X146282599Y-67093800D01*
X146203017Y-67093800D01*
X146116641Y-67104173D01*
X145979191Y-67158376D01*
X145979187Y-67158379D01*
X145861460Y-67247654D01*
X145861454Y-67247660D01*
X145772179Y-67365387D01*
X145772176Y-67365391D01*
X145717973Y-67502841D01*
X145707600Y-67589217D01*
X145508100Y-67589217D01*
X145508100Y-67578544D01*
X145508100Y-67578538D01*
X145508099Y-67578533D01*
X145505325Y-67548955D01*
X145505325Y-67548951D01*
X145461716Y-67424325D01*
X145459926Y-67421900D01*
X145383314Y-67318093D01*
X145383313Y-67318092D01*
X145383311Y-67318089D01*
X145383306Y-67318085D01*
X145277076Y-67239684D01*
X145152452Y-67196076D01*
X145152451Y-67196075D01*
X145152449Y-67196075D01*
X145152447Y-67196074D01*
X145152444Y-67196074D01*
X145122866Y-67193300D01*
X145122856Y-67193300D01*
X144442344Y-67193300D01*
X144442333Y-67193300D01*
X144412755Y-67196074D01*
X144412747Y-67196076D01*
X144288123Y-67239684D01*
X144181893Y-67318085D01*
X144181885Y-67318093D01*
X144103484Y-67424323D01*
X144076305Y-67501998D01*
X144039240Y-67550678D01*
X143982861Y-67568300D01*
X143500071Y-67568300D01*
X143441880Y-67549393D01*
X143441283Y-67548956D01*
X143406960Y-67523625D01*
X143331975Y-67468284D01*
X143331973Y-67468283D01*
X143207352Y-67424676D01*
X143207351Y-67424675D01*
X143207349Y-67424675D01*
X143207347Y-67424674D01*
X143207344Y-67424674D01*
X143177766Y-67421900D01*
X143177756Y-67421900D01*
X142572244Y-67421900D01*
X142572233Y-67421900D01*
X142542655Y-67424674D01*
X142542647Y-67424676D01*
X142418023Y-67468284D01*
X142311793Y-67546685D01*
X142311785Y-67546693D01*
X142233384Y-67652923D01*
X142189776Y-67777547D01*
X142189774Y-67777555D01*
X142187000Y-67807133D01*
X141737999Y-67807133D01*
X141735225Y-67777555D01*
X141735225Y-67777551D01*
X141691616Y-67652925D01*
X141636716Y-67578538D01*
X141613214Y-67546693D01*
X141613213Y-67546692D01*
X141613211Y-67546689D01*
X141553799Y-67502841D01*
X141506976Y-67468284D01*
X141382352Y-67424676D01*
X141382351Y-67424675D01*
X141382349Y-67424675D01*
X141382347Y-67424674D01*
X141382344Y-67424674D01*
X141352766Y-67421900D01*
X141352756Y-67421900D01*
X140747244Y-67421900D01*
X140747233Y-67421900D01*
X140717655Y-67424674D01*
X140717647Y-67424676D01*
X140593023Y-67468284D01*
X140486793Y-67546685D01*
X140486785Y-67546693D01*
X140408384Y-67652923D01*
X140364776Y-67777547D01*
X140364774Y-67777555D01*
X140362000Y-67807133D01*
X140362000Y-68387666D01*
X140364774Y-68417244D01*
X140364776Y-68417252D01*
X140408384Y-68541876D01*
X140483607Y-68643800D01*
X140486789Y-68648111D01*
X140486792Y-68648113D01*
X140486793Y-68648114D01*
X140593021Y-68726514D01*
X140593023Y-68726514D01*
X140593025Y-68726516D01*
X140633198Y-68740573D01*
X140681878Y-68777638D01*
X140699500Y-68834017D01*
X140699500Y-71407791D01*
X140680593Y-71465982D01*
X140670504Y-71477795D01*
X140667147Y-71481151D01*
X140574901Y-71601368D01*
X140516914Y-71741361D01*
X140516912Y-71741367D01*
X140502100Y-71853879D01*
X140502100Y-73179320D01*
X140504317Y-73196164D01*
X140516913Y-73291836D01*
X140516914Y-73291838D01*
X140568151Y-73415536D01*
X140574902Y-73431833D01*
X140667149Y-73552051D01*
X140787367Y-73644298D01*
X140927364Y-73702287D01*
X141039880Y-73717100D01*
X141805721Y-73717100D01*
X141813318Y-73719568D01*
X141821208Y-73718319D01*
X141841863Y-73728843D01*
X141863912Y-73736007D01*
X141875725Y-73746096D01*
X141939104Y-73809475D01*
X141966881Y-73863992D01*
X141968100Y-73879479D01*
X141968100Y-73979892D01*
X141999874Y-74098478D01*
X141996672Y-74159579D01*
X141958167Y-74207128D01*
X141904248Y-74223100D01*
X140346235Y-74223100D01*
X140269812Y-74243578D01*
X140204202Y-74281457D01*
X140204199Y-74281460D01*
X140201291Y-74283139D01*
X140201289Y-74283140D01*
X136780961Y-77703466D01*
X136726444Y-77731243D01*
X136666012Y-77721672D01*
X136622747Y-77678407D01*
X136613176Y-77617975D01*
X136613860Y-77614146D01*
X136621699Y-77574740D01*
X136621699Y-77574738D01*
X136621700Y-77574733D01*
X136621699Y-77370468D01*
X136620432Y-77364100D01*
X136605715Y-77290106D01*
X136605715Y-77290105D01*
X136597359Y-77277600D01*
X136580751Y-77218714D01*
X136597359Y-77167599D01*
X136605715Y-77155095D01*
X136621700Y-77074733D01*
X136621699Y-76870468D01*
X136605715Y-76790105D01*
X136597359Y-76777599D01*
X136580751Y-76718714D01*
X136597359Y-76667599D01*
X136605715Y-76655095D01*
X136621700Y-76574733D01*
X136621699Y-76370468D01*
X136620266Y-76363265D01*
X136605715Y-76290105D01*
X136605714Y-76290103D01*
X136544826Y-76198979D01*
X136544824Y-76198976D01*
X136544820Y-76198973D01*
X136453697Y-76138086D01*
X136453696Y-76138085D01*
X136453695Y-76138085D01*
X136373333Y-76122100D01*
X136373332Y-76122100D01*
X134994070Y-76122100D01*
X134994063Y-76122101D01*
X134913705Y-76138084D01*
X134913703Y-76138085D01*
X134822579Y-76198973D01*
X134822573Y-76198979D01*
X134761686Y-76290101D01*
X134761686Y-76290103D01*
X134761685Y-76290105D01*
X134749482Y-76351452D01*
X134745700Y-76370467D01*
X134745700Y-76574729D01*
X134745701Y-76574737D01*
X134761684Y-76655094D01*
X134761686Y-76655098D01*
X134770040Y-76667601D01*
X134786647Y-76726489D01*
X134770040Y-76777599D01*
X134761685Y-76790103D01*
X134761684Y-76790104D01*
X134745700Y-76870464D01*
X134745700Y-77074729D01*
X134745701Y-77074737D01*
X134761684Y-77155094D01*
X134761686Y-77155098D01*
X134770040Y-77167601D01*
X134786647Y-77226489D01*
X134784454Y-77243676D01*
X134780460Y-77262005D01*
X134761685Y-77290105D01*
X134745700Y-77370467D01*
X134745700Y-77421540D01*
X134743431Y-77431955D01*
X134733113Y-77449616D01*
X134726793Y-77469070D01*
X134718030Y-77475436D01*
X134712568Y-77484787D01*
X134693842Y-77493010D01*
X134677293Y-77505034D01*
X134666462Y-77505034D01*
X134656547Y-77509388D01*
X134636564Y-77505034D01*
X134616107Y-77505034D01*
X134604819Y-77498117D01*
X134596764Y-77496362D01*
X134590516Y-77489352D01*
X134576698Y-77480884D01*
X134495514Y-77399700D01*
X134495511Y-77399698D01*
X134495509Y-77399696D01*
X134381389Y-77333809D01*
X134381391Y-77333809D01*
X134331999Y-77320575D01*
X134254092Y-77299700D01*
X134122308Y-77299700D01*
X134044400Y-77320575D01*
X133995009Y-77333809D01*
X133880890Y-77399696D01*
X133787696Y-77492890D01*
X133721809Y-77607009D01*
X133704095Y-77673121D01*
X133687700Y-77734308D01*
X133687700Y-77866092D01*
X133691314Y-77879579D01*
X133721809Y-77993390D01*
X133787696Y-78107509D01*
X133787698Y-78107511D01*
X133787700Y-78107514D01*
X133858705Y-78178519D01*
X133886481Y-78233034D01*
X133887700Y-78248521D01*
X133887700Y-78663458D01*
X133868793Y-78721649D01*
X133819293Y-78757613D01*
X133758107Y-78757613D01*
X133739772Y-78748038D01*
X133739134Y-78749144D01*
X133619389Y-78680009D01*
X133619391Y-78680009D01*
X133557620Y-78663458D01*
X133492092Y-78645900D01*
X133360308Y-78645900D01*
X133294780Y-78663458D01*
X133233009Y-78680009D01*
X133118890Y-78745896D01*
X133025696Y-78839090D01*
X132959809Y-78953209D01*
X132951273Y-78985066D01*
X132925700Y-79080508D01*
X132925700Y-79212292D01*
X132951561Y-79308809D01*
X132959809Y-79339590D01*
X133025696Y-79453709D01*
X133025698Y-79453711D01*
X133025700Y-79453714D01*
X133031105Y-79459119D01*
X133058881Y-79513634D01*
X133049310Y-79574066D01*
X133031106Y-79599121D01*
X132898634Y-79731595D01*
X132873575Y-79756654D01*
X132819058Y-79784431D01*
X132758626Y-79774860D01*
X132715361Y-79731595D01*
X132705790Y-79671163D01*
X132707940Y-79661041D01*
X132732900Y-79567892D01*
X132732900Y-79436108D01*
X132698792Y-79308814D01*
X132698790Y-79308811D01*
X132698790Y-79308809D01*
X132632903Y-79194690D01*
X132632901Y-79194688D01*
X132632900Y-79194686D01*
X132539714Y-79101500D01*
X132539711Y-79101498D01*
X132539709Y-79101496D01*
X132425589Y-79035609D01*
X132425591Y-79035609D01*
X132376199Y-79022375D01*
X132298292Y-79001500D01*
X132166508Y-79001500D01*
X132088600Y-79022375D01*
X132039209Y-79035609D01*
X131925090Y-79101496D01*
X131831896Y-79194690D01*
X131766009Y-79308809D01*
X131755492Y-79348059D01*
X131731900Y-79436108D01*
X131731900Y-79567892D01*
X131755266Y-79655095D01*
X131766009Y-79695190D01*
X131831896Y-79809309D01*
X131831898Y-79809311D01*
X131831900Y-79809314D01*
X131837305Y-79814719D01*
X131865081Y-79869234D01*
X131855510Y-79929666D01*
X131837305Y-79954722D01*
X131749893Y-80042136D01*
X131086689Y-80705340D01*
X131086688Y-80705339D01*
X131030739Y-80761289D01*
X130991180Y-80829807D01*
X130991178Y-80829811D01*
X130970700Y-80906235D01*
X130970700Y-82348100D01*
X130951793Y-82406291D01*
X130902293Y-82442255D01*
X130871700Y-82447100D01*
X130669070Y-82447100D01*
X130669062Y-82447101D01*
X130588705Y-82463084D01*
X130588701Y-82463086D01*
X130576199Y-82471440D01*
X130517311Y-82488047D01*
X130466201Y-82471440D01*
X130453696Y-82463085D01*
X130453695Y-82463084D01*
X130373334Y-82447100D01*
X130169070Y-82447100D01*
X130169062Y-82447101D01*
X130088705Y-82463084D01*
X130088701Y-82463086D01*
X130076199Y-82471440D01*
X130017311Y-82488047D01*
X129966201Y-82471440D01*
X129953696Y-82463085D01*
X129953695Y-82463084D01*
X129873334Y-82447100D01*
X129669071Y-82447100D01*
X129669064Y-82447101D01*
X129664209Y-82448067D01*
X129603448Y-82440869D01*
X129574900Y-82420971D01*
X129567115Y-82413186D01*
X129454680Y-82358220D01*
X129421200Y-82353342D01*
X129421200Y-82685525D01*
X129420054Y-82689051D01*
X129420223Y-82690604D01*
X129420700Y-82690604D01*
X129420700Y-82695002D01*
X129420724Y-82695224D01*
X129420700Y-82695466D01*
X129420700Y-82695467D01*
X129420700Y-83380689D01*
X129420701Y-83385100D01*
X129420701Y-84074729D01*
X129420723Y-84074953D01*
X129420701Y-84075053D01*
X129420701Y-84079597D01*
X129420398Y-84079597D01*
X129421200Y-84084661D01*
X129421200Y-84416857D01*
X129454679Y-84411980D01*
X129567117Y-84357012D01*
X129574895Y-84349234D01*
X129629410Y-84321452D01*
X129664220Y-84322135D01*
X129669067Y-84323100D01*
X129873332Y-84323099D01*
X129953695Y-84307115D01*
X129966196Y-84298761D01*
X130025083Y-84282151D01*
X130076200Y-84298759D01*
X130088705Y-84307115D01*
X130169067Y-84323100D01*
X130373332Y-84323099D01*
X130453695Y-84307115D01*
X130466196Y-84298761D01*
X130525083Y-84282151D01*
X130576200Y-84298759D01*
X130588705Y-84307115D01*
X130669067Y-84323100D01*
X130873332Y-84323099D01*
X130953695Y-84307115D01*
X130966196Y-84298761D01*
X131025083Y-84282151D01*
X131076200Y-84298759D01*
X131088705Y-84307115D01*
X131169067Y-84323100D01*
X131373332Y-84323099D01*
X131453695Y-84307115D01*
X131466196Y-84298761D01*
X131525083Y-84282151D01*
X131576200Y-84298759D01*
X131588705Y-84307115D01*
X131669067Y-84323100D01*
X131873332Y-84323099D01*
X131953695Y-84307115D01*
X131966196Y-84298761D01*
X132025083Y-84282151D01*
X132076200Y-84298759D01*
X132088705Y-84307115D01*
X132169067Y-84323100D01*
X132373332Y-84323099D01*
X132453695Y-84307115D01*
X132466196Y-84298761D01*
X132525083Y-84282151D01*
X132576200Y-84298759D01*
X132588705Y-84307115D01*
X132669067Y-84323100D01*
X132873332Y-84323099D01*
X132953695Y-84307115D01*
X132966196Y-84298761D01*
X133025083Y-84282151D01*
X133076200Y-84298759D01*
X133088705Y-84307115D01*
X133169067Y-84323100D01*
X133373332Y-84323099D01*
X133453695Y-84307115D01*
X133466196Y-84298761D01*
X133525083Y-84282151D01*
X133576200Y-84298759D01*
X133588705Y-84307115D01*
X133669067Y-84323100D01*
X133873332Y-84323099D01*
X133953695Y-84307115D01*
X133966196Y-84298761D01*
X134025083Y-84282151D01*
X134076200Y-84298759D01*
X134088705Y-84307115D01*
X134169067Y-84323100D01*
X134373332Y-84323099D01*
X134453695Y-84307115D01*
X134544824Y-84246224D01*
X134605715Y-84155095D01*
X134621700Y-84074733D01*
X134621699Y-82695468D01*
X134605715Y-82615105D01*
X134605712Y-82615101D01*
X134544826Y-82523979D01*
X134544824Y-82523976D01*
X134521003Y-82508059D01*
X134453697Y-82463086D01*
X134453696Y-82463085D01*
X134453695Y-82463085D01*
X134373333Y-82447100D01*
X134373332Y-82447100D01*
X134169070Y-82447100D01*
X134169062Y-82447101D01*
X134088705Y-82463084D01*
X134088701Y-82463086D01*
X134076199Y-82471440D01*
X134050317Y-82478738D01*
X134025090Y-82488047D01*
X134021200Y-82486950D01*
X134017311Y-82488047D01*
X133966201Y-82471440D01*
X133947561Y-82458986D01*
X133909680Y-82410938D01*
X133906933Y-82351045D01*
X133907606Y-82348530D01*
X133907610Y-82348525D01*
X133941718Y-82221231D01*
X133941718Y-82089447D01*
X133907610Y-81962153D01*
X133907608Y-81962150D01*
X133907608Y-81962148D01*
X133841721Y-81848029D01*
X133841719Y-81848027D01*
X133841718Y-81848025D01*
X133748532Y-81754839D01*
X133748529Y-81754837D01*
X133748527Y-81754835D01*
X133634407Y-81688948D01*
X133634408Y-81688948D01*
X133634262Y-81688909D01*
X133633303Y-81688652D01*
X133632618Y-81688207D01*
X133628412Y-81686465D01*
X133628734Y-81685685D01*
X133581990Y-81655329D01*
X133560064Y-81598207D01*
X133575900Y-81539107D01*
X133588919Y-81523027D01*
X134428660Y-80683287D01*
X134438788Y-80665744D01*
X134468221Y-80614765D01*
X134488700Y-80538338D01*
X134488700Y-78248521D01*
X134507607Y-78190330D01*
X134517690Y-78178523D01*
X134588700Y-78107514D01*
X134588701Y-78107511D01*
X134593288Y-78102925D01*
X134595297Y-78104934D01*
X134635914Y-78076986D01*
X134697079Y-78078552D01*
X134745642Y-78115772D01*
X134753816Y-78130066D01*
X134758858Y-78140882D01*
X134761685Y-78155095D01*
X134774247Y-78173895D01*
X134777453Y-78180773D01*
X134780299Y-78203981D01*
X134786647Y-78226489D01*
X134784043Y-78234502D01*
X134784902Y-78241503D01*
X134777333Y-78255152D01*
X134770040Y-78277599D01*
X134761685Y-78290103D01*
X134761684Y-78290104D01*
X134745700Y-78370464D01*
X134745700Y-78574729D01*
X134745701Y-78574737D01*
X134761684Y-78655094D01*
X134761686Y-78655098D01*
X134770040Y-78667601D01*
X134786647Y-78726489D01*
X134770040Y-78777599D01*
X134761685Y-78790103D01*
X134761684Y-78790104D01*
X134745700Y-78870464D01*
X134745700Y-79074729D01*
X134745701Y-79074737D01*
X134761684Y-79155094D01*
X134761686Y-79155098D01*
X134770040Y-79167601D01*
X134786647Y-79226489D01*
X134770040Y-79277599D01*
X134761685Y-79290103D01*
X134761684Y-79290104D01*
X134745700Y-79370464D01*
X134745700Y-79574729D01*
X134745701Y-79574737D01*
X134761684Y-79655094D01*
X134761686Y-79655098D01*
X134770040Y-79667601D01*
X134786647Y-79726489D01*
X134770040Y-79777599D01*
X134761685Y-79790103D01*
X134761684Y-79790104D01*
X134745700Y-79870464D01*
X134745700Y-80074729D01*
X134745701Y-80074737D01*
X134761684Y-80155094D01*
X134761686Y-80155098D01*
X134770040Y-80167601D01*
X134786647Y-80226489D01*
X134770040Y-80277599D01*
X134761685Y-80290103D01*
X134761684Y-80290104D01*
X134745700Y-80370464D01*
X134745700Y-80574729D01*
X134745701Y-80574737D01*
X134761684Y-80655094D01*
X134761686Y-80655098D01*
X134770040Y-80667601D01*
X134774371Y-80682958D01*
X134783160Y-80696278D01*
X134782466Y-80711664D01*
X134786647Y-80726489D01*
X134781017Y-80743814D01*
X134780405Y-80757401D01*
X134773990Y-80765442D01*
X134770040Y-80777599D01*
X134761685Y-80790103D01*
X134761684Y-80790104D01*
X134745700Y-80870464D01*
X134745700Y-81074729D01*
X134745701Y-81074736D01*
X134746666Y-81079586D01*
X134739471Y-81140347D01*
X134719573Y-81168896D01*
X134711787Y-81176682D01*
X134656820Y-81289119D01*
X134651942Y-81322600D01*
X134984126Y-81322600D01*
X134987652Y-81323745D01*
X134989204Y-81323577D01*
X134989204Y-81323100D01*
X134993605Y-81323099D01*
X134993827Y-81323076D01*
X134994054Y-81323097D01*
X134994067Y-81323100D01*
X136373332Y-81323099D01*
X136373335Y-81323098D01*
X136373562Y-81323076D01*
X136373667Y-81323099D01*
X136378195Y-81323099D01*
X136378195Y-81323403D01*
X136383263Y-81322600D01*
X136715457Y-81322600D01*
X136710579Y-81289119D01*
X136655613Y-81176684D01*
X136647828Y-81168899D01*
X136620051Y-81114382D01*
X136620735Y-81079580D01*
X136621700Y-81074733D01*
X136621699Y-80870468D01*
X136620892Y-80866410D01*
X136628087Y-80805649D01*
X136669621Y-80760721D01*
X136717991Y-80748100D01*
X137246021Y-80748100D01*
X137304212Y-80767007D01*
X137316025Y-80777096D01*
X137674104Y-81135175D01*
X137701881Y-81189692D01*
X137703100Y-81205179D01*
X137703100Y-84181239D01*
X137684193Y-84239430D01*
X137634693Y-84275394D01*
X137573507Y-84275394D01*
X137572848Y-84275177D01*
X137563302Y-84272001D01*
X137556386Y-84268008D01*
X137530244Y-84261003D01*
X137527448Y-84260073D01*
X137505073Y-84243576D01*
X137481761Y-84228436D01*
X137480664Y-84225579D01*
X137478201Y-84223763D01*
X137469793Y-84197256D01*
X137459836Y-84171314D01*
X137459700Y-84166135D01*
X137459700Y-82859457D01*
X137459700Y-82859456D01*
X137435814Y-82770312D01*
X137393198Y-82696500D01*
X137389670Y-82690389D01*
X137389668Y-82690387D01*
X137324412Y-82625130D01*
X137324412Y-82625131D01*
X136650695Y-81951413D01*
X136648929Y-81947947D01*
X136645609Y-81945926D01*
X136639498Y-81929438D01*
X136622918Y-81896896D01*
X136622028Y-81889467D01*
X136621699Y-81885438D01*
X136621699Y-81870468D01*
X136619624Y-81860038D01*
X136619161Y-81854362D01*
X136624966Y-81829860D01*
X136627925Y-81804859D01*
X136632418Y-81798412D01*
X136633268Y-81794826D01*
X136637381Y-81791292D01*
X136647834Y-81776295D01*
X136655613Y-81768516D01*
X136710579Y-81656080D01*
X136715458Y-81622600D01*
X136383274Y-81622600D01*
X136373573Y-81622124D01*
X136373336Y-81622100D01*
X136373333Y-81622100D01*
X136222344Y-81622100D01*
X135637556Y-81622100D01*
X135637554Y-81622100D01*
X134994071Y-81622100D01*
X134993838Y-81622124D01*
X134984137Y-81622600D01*
X134651942Y-81622600D01*
X134656820Y-81656080D01*
X134711786Y-81768515D01*
X134719570Y-81776299D01*
X134747347Y-81830816D01*
X134746665Y-81865612D01*
X134745700Y-81870461D01*
X134745700Y-82074729D01*
X134745701Y-82074737D01*
X134761684Y-82155094D01*
X134761685Y-82155096D01*
X134822420Y-82245991D01*
X134822576Y-82246224D01*
X134913705Y-82307115D01*
X134994067Y-82323100D01*
X135626024Y-82323099D01*
X135626034Y-82323100D01*
X135637556Y-82323100D01*
X135990010Y-82323100D01*
X136048201Y-82342007D01*
X136060014Y-82352096D01*
X136729704Y-83021785D01*
X136757481Y-83076302D01*
X136758700Y-83091789D01*
X136758700Y-84526543D01*
X136765308Y-84551206D01*
X136762105Y-84612308D01*
X136739685Y-84646831D01*
X136094030Y-85292487D01*
X136063930Y-85344622D01*
X136063929Y-85344621D01*
X136047888Y-85372407D01*
X136047886Y-85372410D01*
X136047886Y-85372412D01*
X136028285Y-85445565D01*
X136024000Y-85461557D01*
X136024000Y-86918782D01*
X136005093Y-86976973D01*
X135957698Y-87012226D01*
X135917527Y-87026282D01*
X135917521Y-87026285D01*
X135811293Y-87104685D01*
X135811285Y-87104693D01*
X135732884Y-87210923D01*
X135689276Y-87335547D01*
X135689274Y-87335555D01*
X135686500Y-87365133D01*
X135686500Y-87945666D01*
X135689274Y-87975244D01*
X135689276Y-87975252D01*
X135732884Y-88099876D01*
X135811285Y-88206106D01*
X135811289Y-88206111D01*
X135811292Y-88206113D01*
X135811293Y-88206114D01*
X135917523Y-88284515D01*
X135917524Y-88284515D01*
X135917525Y-88284516D01*
X136042151Y-88328125D01*
X136069441Y-88330684D01*
X136071733Y-88330899D01*
X136071738Y-88330900D01*
X136071744Y-88330900D01*
X136677262Y-88330900D01*
X136677265Y-88330899D01*
X136706849Y-88328125D01*
X136831475Y-88284516D01*
X136937711Y-88206111D01*
X137016116Y-88099875D01*
X137059725Y-87975249D01*
X137062500Y-87945656D01*
X137062500Y-87365144D01*
X137062500Y-87365138D01*
X137062499Y-87365133D01*
X137059725Y-87335555D01*
X137059725Y-87335551D01*
X137016116Y-87210925D01*
X136952711Y-87125014D01*
X136937714Y-87104693D01*
X136937713Y-87104692D01*
X136937711Y-87104689D01*
X136937706Y-87104685D01*
X136831478Y-87026285D01*
X136831472Y-87026282D01*
X136791302Y-87012226D01*
X136742621Y-86975160D01*
X136725000Y-86918782D01*
X136725000Y-85693889D01*
X136743907Y-85635698D01*
X136753996Y-85623886D01*
X137135177Y-85242704D01*
X137189694Y-85214926D01*
X137230802Y-85217079D01*
X137297308Y-85234900D01*
X137297310Y-85234900D01*
X137429090Y-85234900D01*
X137429092Y-85234900D01*
X137556386Y-85200792D01*
X137556388Y-85200790D01*
X137556391Y-85200790D01*
X137562384Y-85198308D01*
X137563092Y-85200018D01*
X137614448Y-85189102D01*
X137670344Y-85213988D01*
X137700937Y-85266976D01*
X137703100Y-85287560D01*
X137703100Y-86794262D01*
X137707679Y-86811349D01*
X137723579Y-86870689D01*
X137734209Y-86889100D01*
X137734209Y-86889101D01*
X137747995Y-86912979D01*
X137760717Y-86972827D01*
X137735830Y-87028723D01*
X137721047Y-87042134D01*
X137636294Y-87104684D01*
X137636285Y-87104693D01*
X137557884Y-87210923D01*
X137514276Y-87335547D01*
X137514274Y-87335555D01*
X137511500Y-87365133D01*
X137511500Y-87945666D01*
X137514274Y-87975244D01*
X137514276Y-87975252D01*
X137557884Y-88099876D01*
X137636285Y-88206106D01*
X137636289Y-88206111D01*
X137636292Y-88206113D01*
X137636293Y-88206114D01*
X137742523Y-88284515D01*
X137742524Y-88284515D01*
X137742525Y-88284516D01*
X137867151Y-88328125D01*
X137894441Y-88330684D01*
X137896733Y-88330899D01*
X137896738Y-88330900D01*
X137896744Y-88330900D01*
X138502262Y-88330900D01*
X138502265Y-88330899D01*
X138531849Y-88328125D01*
X138656475Y-88284516D01*
X138762711Y-88206111D01*
X138807916Y-88144859D01*
X138857681Y-88109268D01*
X138918865Y-88109724D01*
X138957571Y-88133642D01*
X138961789Y-88137860D01*
X138961791Y-88137861D01*
X139030307Y-88177419D01*
X139030311Y-88177421D01*
X139106735Y-88197899D01*
X139106737Y-88197900D01*
X139106738Y-88197900D01*
X140174700Y-88197900D01*
X140189612Y-88202745D01*
X140205292Y-88202745D01*
X140217977Y-88211961D01*
X140232891Y-88216807D01*
X140242108Y-88229493D01*
X140254792Y-88238709D01*
X140259636Y-88253619D01*
X140268855Y-88266307D01*
X140273700Y-88296899D01*
X140273701Y-88447899D01*
X140254794Y-88506090D01*
X140205294Y-88542054D01*
X140174701Y-88546900D01*
X139705356Y-88546900D01*
X139650286Y-88561656D01*
X139616212Y-88570786D01*
X139536288Y-88616930D01*
X138969914Y-89183304D01*
X138915397Y-89211081D01*
X138899910Y-89212300D01*
X138872108Y-89212300D01*
X138794200Y-89233175D01*
X138744809Y-89246409D01*
X138630690Y-89312296D01*
X138537496Y-89405490D01*
X138471609Y-89519609D01*
X138471608Y-89519614D01*
X138437500Y-89646908D01*
X138437500Y-89778692D01*
X138461862Y-89869614D01*
X138471609Y-89905990D01*
X138537496Y-90020109D01*
X138537498Y-90020111D01*
X138537500Y-90020114D01*
X138630686Y-90113300D01*
X138630688Y-90113301D01*
X138630690Y-90113303D01*
X138744810Y-90179190D01*
X138744808Y-90179190D01*
X138744812Y-90179191D01*
X138744814Y-90179192D01*
X138872108Y-90213300D01*
X138872110Y-90213300D01*
X139003890Y-90213300D01*
X139003892Y-90213300D01*
X139131186Y-90179192D01*
X139196527Y-90141466D01*
X139256376Y-90128745D01*
X139312271Y-90153631D01*
X139342864Y-90206619D01*
X139336469Y-90267469D01*
X139316032Y-90297207D01*
X138408886Y-91204354D01*
X138354369Y-91232131D01*
X138338882Y-91233350D01*
X134391418Y-91233350D01*
X134333227Y-91214443D01*
X134297974Y-91167048D01*
X134283917Y-91126877D01*
X134283914Y-91126871D01*
X134205514Y-91020643D01*
X134205513Y-91020642D01*
X134205511Y-91020639D01*
X134205506Y-91020635D01*
X134099276Y-90942234D01*
X133974652Y-90898626D01*
X133974651Y-90898625D01*
X133974649Y-90898625D01*
X133974647Y-90898624D01*
X133974644Y-90898624D01*
X133945066Y-90895850D01*
X133945056Y-90895850D01*
X133364544Y-90895850D01*
X133364533Y-90895850D01*
X133334955Y-90898624D01*
X133334947Y-90898626D01*
X133210323Y-90942234D01*
X133104093Y-91020635D01*
X133104085Y-91020643D01*
X133025684Y-91126873D01*
X132982076Y-91251497D01*
X132982074Y-91251505D01*
X132979300Y-91281083D01*
X132979300Y-91886616D01*
X132982074Y-91916194D01*
X132982076Y-91916202D01*
X133025684Y-92040826D01*
X133104085Y-92147056D01*
X133104089Y-92147061D01*
X133123281Y-92161225D01*
X133158874Y-92210992D01*
X133158417Y-92272176D01*
X133122085Y-92321406D01*
X133064494Y-92339881D01*
X120495589Y-92339881D01*
X120472985Y-92335973D01*
X120429938Y-92339881D01*
X120425438Y-92339881D01*
X120425438Y-92339882D01*
X120386736Y-92339882D01*
X120372792Y-92343618D01*
X120356136Y-92346583D01*
X120341738Y-92347891D01*
X120305372Y-92361262D01*
X120305373Y-92361263D01*
X120301158Y-92362812D01*
X120259441Y-92373991D01*
X120239589Y-92385451D01*
X120231612Y-92388385D01*
X120231610Y-92388385D01*
X120218057Y-92393369D01*
X120186380Y-92415704D01*
X120185226Y-92416060D01*
X120184482Y-92417009D01*
X120178834Y-92420528D01*
X120145313Y-92439882D01*
X120135105Y-92450089D01*
X120122163Y-92460985D01*
X120110352Y-92469314D01*
X120110350Y-92469316D01*
X120085540Y-92499081D01*
X120081751Y-92501465D01*
X120079500Y-92505694D01*
X120052127Y-92533067D01*
X120044911Y-92545567D01*
X120039103Y-92550795D01*
X120035227Y-92559446D01*
X120025975Y-92570546D01*
X120025973Y-92570549D01*
X120009719Y-92605708D01*
X120009479Y-92605966D01*
X120005596Y-92613660D01*
X119986235Y-92647196D01*
X119986233Y-92647200D01*
X119982497Y-92661142D01*
X119976737Y-92677051D01*
X119970676Y-92690163D01*
X119970675Y-92690166D01*
X119964074Y-92728335D01*
X119963943Y-92729075D01*
X119963211Y-92733119D01*
X119952127Y-92774491D01*
X119952127Y-92794434D01*
X119950548Y-92803169D01*
X119940064Y-92822680D01*
X119933220Y-92843748D01*
X119925881Y-92849079D01*
X119921590Y-92857068D01*
X119901641Y-92866690D01*
X119883720Y-92879712D01*
X119870012Y-92881948D01*
X119866482Y-92883652D01*
X119863205Y-92883059D01*
X119854053Y-92884553D01*
X119606926Y-92886865D01*
X119548561Y-92868503D01*
X119512136Y-92819341D01*
X119507000Y-92787869D01*
X119507000Y-92648175D01*
X119525907Y-92589984D01*
X119575407Y-92554020D01*
X119591134Y-92550463D01*
X119592488Y-92550100D01*
X119592491Y-92550100D01*
X119599464Y-92548231D01*
X119618484Y-92545078D01*
X119625689Y-92544598D01*
X119669173Y-92529777D01*
X119675421Y-92527878D01*
X119719785Y-92515992D01*
X119734427Y-92507538D01*
X119750428Y-92502085D01*
X119791303Y-92474700D01*
X119833913Y-92450100D01*
X119839014Y-92444998D01*
X119853914Y-92432754D01*
X119859913Y-92428736D01*
X119890144Y-92394176D01*
X119893954Y-92390105D01*
X119893996Y-92390021D01*
X119894067Y-92389983D01*
X119894639Y-92389373D01*
X119910022Y-92373991D01*
X119927099Y-92356914D01*
X119930709Y-92350659D01*
X119941935Y-92334976D01*
X119946683Y-92329549D01*
X119966941Y-92288341D01*
X119970028Y-92282556D01*
X119992991Y-92242786D01*
X119994860Y-92235809D01*
X120001641Y-92217760D01*
X120004825Y-92211285D01*
X120014364Y-92163017D01*
X120027099Y-92115492D01*
X120027099Y-92098586D01*
X120030377Y-92082001D01*
X120027319Y-92036203D01*
X120027099Y-92029608D01*
X120027099Y-82864989D01*
X120046006Y-82806798D01*
X120095506Y-82770834D01*
X120156692Y-82770834D01*
X120196103Y-82794985D01*
X120339825Y-82938707D01*
X120367602Y-82993224D01*
X120361285Y-83046596D01*
X120325670Y-83132578D01*
X120325670Y-83132580D01*
X120285300Y-83335532D01*
X120285300Y-83542467D01*
X120325669Y-83745418D01*
X120404858Y-83936597D01*
X120497157Y-84074733D01*
X120519823Y-84108655D01*
X120666145Y-84254977D01*
X120838202Y-84369941D01*
X121029380Y-84449130D01*
X121232335Y-84489500D01*
X121232336Y-84489500D01*
X121439264Y-84489500D01*
X121439265Y-84489500D01*
X121642220Y-84449130D01*
X121833398Y-84369941D01*
X122005455Y-84254977D01*
X122035498Y-84224933D01*
X122090013Y-84197158D01*
X122150445Y-84206729D01*
X122193710Y-84249994D01*
X122204500Y-84294939D01*
X122204500Y-84573610D01*
X122185593Y-84631801D01*
X122175503Y-84643614D01*
X121836091Y-84983025D01*
X121781575Y-85010802D01*
X121728203Y-85004485D01*
X121642220Y-84968870D01*
X121439267Y-84928500D01*
X121439265Y-84928500D01*
X121232335Y-84928500D01*
X121232332Y-84928500D01*
X121029381Y-84968869D01*
X120838202Y-85048058D01*
X120666148Y-85163020D01*
X120519820Y-85309348D01*
X120404858Y-85481402D01*
X120325669Y-85672581D01*
X120285300Y-85875532D01*
X120285300Y-86082467D01*
X120325669Y-86285418D01*
X120404858Y-86476597D01*
X120519820Y-86648651D01*
X120519823Y-86648655D01*
X120666145Y-86794977D01*
X120838202Y-86909941D01*
X121029380Y-86989130D01*
X121232335Y-87029500D01*
X121232336Y-87029500D01*
X121439264Y-87029500D01*
X121439265Y-87029500D01*
X121642220Y-86989130D01*
X121833398Y-86909941D01*
X122005455Y-86794977D01*
X122151777Y-86648655D01*
X122266741Y-86476598D01*
X122345930Y-86285420D01*
X122386300Y-86082465D01*
X122386300Y-85875535D01*
X122345930Y-85672580D01*
X122310312Y-85586593D01*
X122305512Y-85525600D01*
X122331772Y-85478708D01*
X122543498Y-85266983D01*
X122598013Y-85239207D01*
X122658445Y-85248778D01*
X122701710Y-85292043D01*
X122712500Y-85336988D01*
X122712500Y-87901010D01*
X122693593Y-87959201D01*
X122683504Y-87971014D01*
X122515014Y-88139504D01*
X122507896Y-88143130D01*
X122503201Y-88149593D01*
X122481152Y-88156756D01*
X122460497Y-88167281D01*
X122445010Y-88168500D01*
X122393821Y-88168500D01*
X122335630Y-88149593D01*
X122302357Y-88107386D01*
X122266741Y-88021402D01*
X122151779Y-87849348D01*
X122151777Y-87849345D01*
X122005455Y-87703023D01*
X121955712Y-87669786D01*
X121833397Y-87588058D01*
X121642218Y-87508869D01*
X121439267Y-87468500D01*
X121439265Y-87468500D01*
X121232335Y-87468500D01*
X121232332Y-87468500D01*
X121029381Y-87508869D01*
X120838202Y-87588058D01*
X120666148Y-87703020D01*
X120519820Y-87849348D01*
X120404858Y-88021402D01*
X120325669Y-88212581D01*
X120285300Y-88415532D01*
X120285300Y-88622467D01*
X120325669Y-88825418D01*
X120404858Y-89016597D01*
X120519820Y-89188651D01*
X120519823Y-89188655D01*
X120666145Y-89334977D01*
X120838202Y-89449941D01*
X121029380Y-89529130D01*
X121232335Y-89569500D01*
X121232336Y-89569500D01*
X121439264Y-89569500D01*
X121439265Y-89569500D01*
X121642220Y-89529130D01*
X121833398Y-89449941D01*
X122005455Y-89334977D01*
X122151777Y-89188655D01*
X122266741Y-89016598D01*
X122290317Y-88959681D01*
X122302357Y-88930614D01*
X122342094Y-88884089D01*
X122393821Y-88869500D01*
X122677342Y-88869500D01*
X122677344Y-88869500D01*
X122766488Y-88845614D01*
X122846412Y-88799470D01*
X123305496Y-88340384D01*
X123360013Y-88312607D01*
X123420445Y-88322178D01*
X123463710Y-88365443D01*
X123474500Y-88410388D01*
X123474500Y-90136210D01*
X123455593Y-90194401D01*
X123445504Y-90206214D01*
X122972214Y-90679504D01*
X122917697Y-90707281D01*
X122902210Y-90708500D01*
X122485300Y-90708500D01*
X122427109Y-90689593D01*
X122391145Y-90640093D01*
X122386300Y-90609500D01*
X122386300Y-90189253D01*
X122386298Y-90189241D01*
X122381636Y-90165807D01*
X122374667Y-90130769D01*
X122330352Y-90064448D01*
X122326114Y-90061616D01*
X122264033Y-90020134D01*
X122264031Y-90020133D01*
X122264028Y-90020132D01*
X122264027Y-90020132D01*
X122205558Y-90008501D01*
X122205548Y-90008500D01*
X120466052Y-90008500D01*
X120466051Y-90008500D01*
X120466041Y-90008501D01*
X120407572Y-90020132D01*
X120407566Y-90020134D01*
X120341251Y-90064445D01*
X120341245Y-90064451D01*
X120296934Y-90130766D01*
X120296932Y-90130772D01*
X120285301Y-90189241D01*
X120285300Y-90189253D01*
X120285300Y-91928746D01*
X120285301Y-91928758D01*
X120296932Y-91987227D01*
X120296934Y-91987233D01*
X120332746Y-92040828D01*
X120341248Y-92053552D01*
X120407569Y-92097867D01*
X120452031Y-92106711D01*
X120466041Y-92109498D01*
X120466046Y-92109498D01*
X120466052Y-92109500D01*
X120466053Y-92109500D01*
X122205547Y-92109500D01*
X122205548Y-92109500D01*
X122264031Y-92097867D01*
X122330352Y-92053552D01*
X122374667Y-91987231D01*
X122386300Y-91928748D01*
X122386300Y-91508500D01*
X122405207Y-91450309D01*
X122454707Y-91414345D01*
X122485300Y-91409500D01*
X123134542Y-91409500D01*
X123134544Y-91409500D01*
X123223688Y-91385614D01*
X123230985Y-91381401D01*
X126250400Y-91381401D01*
X126250400Y-91423482D01*
X126260773Y-91509858D01*
X126314976Y-91647308D01*
X126314979Y-91647312D01*
X126404254Y-91765039D01*
X126404260Y-91765045D01*
X126521987Y-91854320D01*
X126521991Y-91854323D01*
X126659441Y-91908526D01*
X126745817Y-91918899D01*
X126745824Y-91918900D01*
X126775399Y-91918900D01*
X126775400Y-91918899D01*
X126775400Y-91381401D01*
X127275400Y-91381401D01*
X127275400Y-91918899D01*
X127275401Y-91918900D01*
X127304976Y-91918900D01*
X127304982Y-91918899D01*
X127391358Y-91908526D01*
X127528808Y-91854323D01*
X127528812Y-91854320D01*
X127646539Y-91765045D01*
X127646545Y-91765039D01*
X127735820Y-91647312D01*
X127735823Y-91647308D01*
X127790026Y-91509858D01*
X127800399Y-91423482D01*
X127800400Y-91423476D01*
X127800400Y-91381401D01*
X127800399Y-91381400D01*
X127275401Y-91381400D01*
X127275400Y-91381401D01*
X126775400Y-91381401D01*
X126775399Y-91381400D01*
X126250401Y-91381400D01*
X126250400Y-91381401D01*
X123230985Y-91381401D01*
X123253091Y-91368638D01*
X123303612Y-91339470D01*
X123803765Y-90839317D01*
X126250400Y-90839317D01*
X126250400Y-90881399D01*
X126250401Y-90881400D01*
X126775399Y-90881400D01*
X126775400Y-90881399D01*
X126775400Y-90343901D01*
X127275400Y-90343901D01*
X127275400Y-90881399D01*
X127275401Y-90881400D01*
X127800399Y-90881400D01*
X127800400Y-90881399D01*
X127800400Y-90839323D01*
X127800399Y-90839317D01*
X127790026Y-90752941D01*
X127735823Y-90615491D01*
X127735820Y-90615487D01*
X127646545Y-90497760D01*
X127646539Y-90497754D01*
X127528812Y-90408479D01*
X127528808Y-90408476D01*
X127391358Y-90354273D01*
X127304982Y-90343900D01*
X127275401Y-90343900D01*
X127275400Y-90343901D01*
X126775400Y-90343901D01*
X126775399Y-90343900D01*
X126745817Y-90343900D01*
X126659441Y-90354273D01*
X126521991Y-90408476D01*
X126521987Y-90408479D01*
X126404260Y-90497754D01*
X126404254Y-90497760D01*
X126314979Y-90615487D01*
X126314976Y-90615491D01*
X126260773Y-90752941D01*
X126250400Y-90839317D01*
X123803765Y-90839317D01*
X124105470Y-90537612D01*
X124151614Y-90457688D01*
X124155262Y-90444075D01*
X124175500Y-90368544D01*
X124175500Y-86943633D01*
X126349900Y-86943633D01*
X126349900Y-87624166D01*
X126352674Y-87653744D01*
X126352676Y-87653752D01*
X126396284Y-87778376D01*
X126448664Y-87849348D01*
X126474689Y-87884611D01*
X126474692Y-87884613D01*
X126474693Y-87884614D01*
X126580921Y-87963014D01*
X126580923Y-87963014D01*
X126580925Y-87963016D01*
X126608598Y-87972699D01*
X126657278Y-88009763D01*
X126674900Y-88066143D01*
X126674900Y-88561656D01*
X126655993Y-88619847D01*
X126608598Y-88655100D01*
X126580927Y-88664782D01*
X126580921Y-88664785D01*
X126474693Y-88743185D01*
X126474685Y-88743193D01*
X126396284Y-88849423D01*
X126352676Y-88974047D01*
X126352674Y-88974055D01*
X126349900Y-89003633D01*
X126349900Y-89609166D01*
X126352674Y-89638744D01*
X126352676Y-89638752D01*
X126396284Y-89763376D01*
X126434580Y-89815265D01*
X126474689Y-89869611D01*
X126474692Y-89869613D01*
X126474693Y-89869614D01*
X126580923Y-89948015D01*
X126580924Y-89948015D01*
X126580925Y-89948016D01*
X126705551Y-89991625D01*
X126732841Y-89994184D01*
X126735133Y-89994399D01*
X126735138Y-89994400D01*
X126735144Y-89994400D01*
X127315662Y-89994400D01*
X127315665Y-89994399D01*
X127345249Y-89991625D01*
X127469875Y-89948016D01*
X127576111Y-89869611D01*
X127654516Y-89763375D01*
X127698125Y-89638749D01*
X127700900Y-89609156D01*
X127700900Y-89003644D01*
X127700900Y-89003638D01*
X127700899Y-89003633D01*
X127698125Y-88974055D01*
X127698125Y-88974051D01*
X127654516Y-88849425D01*
X127651703Y-88845614D01*
X127576114Y-88743193D01*
X127576113Y-88743192D01*
X127576111Y-88743189D01*
X127537789Y-88714906D01*
X127469878Y-88664785D01*
X127469872Y-88664782D01*
X127442202Y-88655100D01*
X127393521Y-88618034D01*
X127375900Y-88561656D01*
X127375900Y-88066143D01*
X127394807Y-88007952D01*
X127442201Y-87972699D01*
X127469875Y-87963016D01*
X127576111Y-87884611D01*
X127654516Y-87778375D01*
X127698125Y-87653749D01*
X127700900Y-87624156D01*
X127700900Y-87396083D01*
X132979300Y-87396083D01*
X132979300Y-88076616D01*
X132982074Y-88106194D01*
X132982076Y-88106202D01*
X133025684Y-88230826D01*
X133097494Y-88328125D01*
X133104089Y-88337061D01*
X133104092Y-88337063D01*
X133104093Y-88337064D01*
X133210321Y-88415464D01*
X133210323Y-88415464D01*
X133210325Y-88415466D01*
X133237998Y-88425149D01*
X133286678Y-88462213D01*
X133304300Y-88518593D01*
X133304300Y-89014106D01*
X133285393Y-89072297D01*
X133237998Y-89107550D01*
X133210327Y-89117232D01*
X133210321Y-89117235D01*
X133104093Y-89195635D01*
X133104085Y-89195643D01*
X133025684Y-89301873D01*
X132982076Y-89426497D01*
X132982074Y-89426505D01*
X132979300Y-89456083D01*
X132979300Y-90061616D01*
X132982074Y-90091194D01*
X132982076Y-90091202D01*
X133025684Y-90215826D01*
X133085746Y-90297207D01*
X133104089Y-90322061D01*
X133104092Y-90322063D01*
X133104093Y-90322064D01*
X133210323Y-90400465D01*
X133210324Y-90400465D01*
X133210325Y-90400466D01*
X133334951Y-90444075D01*
X133362241Y-90446634D01*
X133364533Y-90446849D01*
X133364538Y-90446850D01*
X133364544Y-90446850D01*
X133945062Y-90446850D01*
X133945065Y-90446849D01*
X133974649Y-90444075D01*
X134099275Y-90400466D01*
X134205511Y-90322061D01*
X134283916Y-90215825D01*
X134327525Y-90091199D01*
X134330300Y-90061606D01*
X134330300Y-89456094D01*
X134330300Y-89456088D01*
X134330299Y-89456083D01*
X134327525Y-89426505D01*
X134327525Y-89426501D01*
X134283916Y-89301875D01*
X134279585Y-89296007D01*
X134205514Y-89195643D01*
X134205513Y-89195642D01*
X134205511Y-89195639D01*
X134188798Y-89183304D01*
X134099278Y-89117235D01*
X134099272Y-89117232D01*
X134071602Y-89107550D01*
X134022921Y-89070484D01*
X134005300Y-89014106D01*
X134005300Y-88518593D01*
X134024207Y-88460402D01*
X134071601Y-88425149D01*
X134099275Y-88415466D01*
X134205511Y-88337061D01*
X134283916Y-88230825D01*
X134327525Y-88106199D01*
X134330300Y-88076606D01*
X134330300Y-87396094D01*
X134330300Y-87396088D01*
X134330299Y-87396083D01*
X134327525Y-87366505D01*
X134327525Y-87366501D01*
X134283916Y-87241875D01*
X134205511Y-87135639D01*
X134191115Y-87125014D01*
X134099276Y-87057234D01*
X133974652Y-87013626D01*
X133974651Y-87013625D01*
X133974649Y-87013625D01*
X133974647Y-87013624D01*
X133974644Y-87013624D01*
X133945066Y-87010850D01*
X133945056Y-87010850D01*
X133364544Y-87010850D01*
X133364533Y-87010850D01*
X133334955Y-87013624D01*
X133334947Y-87013626D01*
X133210323Y-87057234D01*
X133104093Y-87135635D01*
X133104085Y-87135643D01*
X133025684Y-87241873D01*
X132982076Y-87366497D01*
X132982074Y-87366505D01*
X132979300Y-87396083D01*
X127700900Y-87396083D01*
X127700900Y-86943644D01*
X127700900Y-86943638D01*
X127700899Y-86943633D01*
X127699069Y-86924116D01*
X127698125Y-86914051D01*
X127654516Y-86789425D01*
X127623035Y-86746770D01*
X127576114Y-86683193D01*
X127576113Y-86683192D01*
X127576111Y-86683189D01*
X127541297Y-86657495D01*
X127469876Y-86604784D01*
X127345252Y-86561176D01*
X127345251Y-86561175D01*
X127345249Y-86561175D01*
X127345247Y-86561174D01*
X127345244Y-86561174D01*
X127315666Y-86558400D01*
X127315656Y-86558400D01*
X126735144Y-86558400D01*
X126735133Y-86558400D01*
X126705555Y-86561174D01*
X126705547Y-86561176D01*
X126580923Y-86604784D01*
X126474693Y-86683185D01*
X126474685Y-86683193D01*
X126396284Y-86789423D01*
X126352676Y-86914047D01*
X126352674Y-86914055D01*
X126349900Y-86943633D01*
X124175500Y-86943633D01*
X124175500Y-82793156D01*
X124194407Y-82734965D01*
X124243907Y-82699001D01*
X124305093Y-82699001D01*
X124323996Y-82707417D01*
X124419214Y-82762392D01*
X124546508Y-82796500D01*
X124546510Y-82796500D01*
X124678290Y-82796500D01*
X124678292Y-82796500D01*
X124805586Y-82762392D01*
X124805588Y-82762390D01*
X124805590Y-82762390D01*
X124919709Y-82696503D01*
X124919709Y-82696502D01*
X124919714Y-82696500D01*
X125012900Y-82603314D01*
X125024593Y-82583061D01*
X125078790Y-82489190D01*
X125078790Y-82489188D01*
X125078792Y-82489186D01*
X125112900Y-82361892D01*
X125112900Y-82261478D01*
X125115368Y-82253880D01*
X125114119Y-82245991D01*
X125124643Y-82225335D01*
X125131807Y-82203287D01*
X125141896Y-82191474D01*
X125185096Y-82148274D01*
X125239613Y-82120497D01*
X125300045Y-82130068D01*
X125343310Y-82173333D01*
X125354100Y-82218278D01*
X125354100Y-85034543D01*
X125372258Y-85102314D01*
X125372754Y-85104162D01*
X125377986Y-85123688D01*
X125424130Y-85203612D01*
X126034887Y-85814369D01*
X126087375Y-85844673D01*
X126114812Y-85860514D01*
X126203956Y-85884400D01*
X126275661Y-85884400D01*
X126333852Y-85903307D01*
X126369105Y-85950702D01*
X126396284Y-86028376D01*
X126436205Y-86082467D01*
X126474689Y-86134611D01*
X126474692Y-86134613D01*
X126474693Y-86134614D01*
X126580923Y-86213015D01*
X126580924Y-86213015D01*
X126580925Y-86213016D01*
X126705551Y-86256625D01*
X126732841Y-86259184D01*
X126735133Y-86259399D01*
X126735138Y-86259400D01*
X126735144Y-86259400D01*
X127315662Y-86259400D01*
X127315665Y-86259399D01*
X127345249Y-86256625D01*
X127403188Y-86236351D01*
X132879800Y-86236351D01*
X132879800Y-86315932D01*
X132890173Y-86402308D01*
X132944376Y-86539758D01*
X132944379Y-86539762D01*
X133033654Y-86657489D01*
X133033660Y-86657495D01*
X133151387Y-86746770D01*
X133151391Y-86746773D01*
X133288841Y-86800976D01*
X133375217Y-86811349D01*
X133375224Y-86811350D01*
X133404799Y-86811350D01*
X133404800Y-86811349D01*
X133404800Y-86236351D01*
X133904800Y-86236351D01*
X133904800Y-86811349D01*
X133904801Y-86811350D01*
X133934376Y-86811350D01*
X133934382Y-86811349D01*
X134020758Y-86800976D01*
X134158208Y-86746773D01*
X134158212Y-86746770D01*
X134275939Y-86657495D01*
X134275945Y-86657489D01*
X134365220Y-86539762D01*
X134365223Y-86539758D01*
X134419426Y-86402308D01*
X134429799Y-86315932D01*
X134429800Y-86315926D01*
X134429800Y-86236351D01*
X134429799Y-86236350D01*
X133904801Y-86236350D01*
X133904800Y-86236351D01*
X133404800Y-86236351D01*
X133404799Y-86236350D01*
X132879801Y-86236350D01*
X132879800Y-86236351D01*
X127403188Y-86236351D01*
X127469875Y-86213016D01*
X127576111Y-86134611D01*
X127654516Y-86028375D01*
X127698125Y-85903749D01*
X127700900Y-85874156D01*
X127700900Y-85656767D01*
X132879800Y-85656767D01*
X132879800Y-85736349D01*
X132879801Y-85736350D01*
X133404799Y-85736350D01*
X133404800Y-85736349D01*
X133404800Y-85161351D01*
X133904800Y-85161351D01*
X133904800Y-85736349D01*
X133904801Y-85736350D01*
X134429799Y-85736350D01*
X134429800Y-85736349D01*
X134429800Y-85656773D01*
X134429799Y-85656767D01*
X134419426Y-85570391D01*
X134365223Y-85432941D01*
X134365220Y-85432937D01*
X134275945Y-85315210D01*
X134275939Y-85315204D01*
X134158212Y-85225929D01*
X134158208Y-85225926D01*
X134020758Y-85171723D01*
X133934382Y-85161350D01*
X133904801Y-85161350D01*
X133904800Y-85161351D01*
X133404800Y-85161351D01*
X133404799Y-85161350D01*
X133375217Y-85161350D01*
X133288841Y-85171723D01*
X133151391Y-85225926D01*
X133151387Y-85225929D01*
X133033660Y-85315204D01*
X133033654Y-85315210D01*
X132944379Y-85432937D01*
X132944376Y-85432941D01*
X132890173Y-85570391D01*
X132879800Y-85656767D01*
X127700900Y-85656767D01*
X127700900Y-85193644D01*
X127700900Y-85193638D01*
X127700899Y-85193633D01*
X127698125Y-85164055D01*
X127698125Y-85164051D01*
X127654516Y-85039425D01*
X127647412Y-85029800D01*
X127624465Y-84998708D01*
X128270700Y-84998708D01*
X128270700Y-85130492D01*
X128293318Y-85214903D01*
X128304809Y-85257790D01*
X128370696Y-85371909D01*
X128370698Y-85371911D01*
X128370700Y-85371914D01*
X128463886Y-85465100D01*
X128463888Y-85465101D01*
X128463890Y-85465103D01*
X128578010Y-85530990D01*
X128578008Y-85530990D01*
X128578012Y-85530991D01*
X128578014Y-85530992D01*
X128705308Y-85565100D01*
X128705310Y-85565100D01*
X128837090Y-85565100D01*
X128837092Y-85565100D01*
X128964386Y-85530992D01*
X128964388Y-85530990D01*
X128964390Y-85530990D01*
X129078509Y-85465103D01*
X129078509Y-85465102D01*
X129078514Y-85465100D01*
X129171700Y-85371914D01*
X129207823Y-85309348D01*
X129237590Y-85257790D01*
X129237590Y-85257788D01*
X129237592Y-85257786D01*
X129271700Y-85130492D01*
X129271700Y-84998708D01*
X129237592Y-84871414D01*
X129237590Y-84871411D01*
X129237590Y-84871409D01*
X129171703Y-84757290D01*
X129171701Y-84757288D01*
X129171700Y-84757286D01*
X129100694Y-84686280D01*
X129072919Y-84631766D01*
X129071700Y-84616279D01*
X129071700Y-84504935D01*
X129090607Y-84446744D01*
X129105939Y-84430055D01*
X129121200Y-84416856D01*
X129121200Y-84084672D01*
X129121677Y-84074963D01*
X129121697Y-84074746D01*
X129121700Y-84074733D01*
X129121699Y-82695468D01*
X129121699Y-82695466D01*
X129121676Y-82695235D01*
X129121200Y-82685536D01*
X129121200Y-82353342D01*
X129087719Y-82358220D01*
X128975282Y-82413187D01*
X128967497Y-82420972D01*
X128912979Y-82448748D01*
X128878185Y-82448064D01*
X128873343Y-82447101D01*
X128873333Y-82447100D01*
X128873332Y-82447100D01*
X128669070Y-82447100D01*
X128669062Y-82447101D01*
X128588705Y-82463084D01*
X128588703Y-82463085D01*
X128497579Y-82523973D01*
X128497573Y-82523979D01*
X128436686Y-82615101D01*
X128436686Y-82615103D01*
X128436685Y-82615105D01*
X128424669Y-82675511D01*
X128420700Y-82695466D01*
X128420700Y-84074729D01*
X128420701Y-84074736D01*
X128436684Y-84155094D01*
X128436685Y-84155097D01*
X128454014Y-84181029D01*
X128470700Y-84236032D01*
X128470700Y-84616279D01*
X128451793Y-84674470D01*
X128441709Y-84686276D01*
X128392082Y-84735904D01*
X128370697Y-84757289D01*
X128370696Y-84757290D01*
X128304809Y-84871409D01*
X128288254Y-84933194D01*
X128270700Y-84998708D01*
X127624465Y-84998708D01*
X127576114Y-84933193D01*
X127576113Y-84933192D01*
X127576111Y-84933189D01*
X127576106Y-84933185D01*
X127469876Y-84854784D01*
X127345252Y-84811176D01*
X127345251Y-84811175D01*
X127345249Y-84811175D01*
X127345247Y-84811174D01*
X127345244Y-84811174D01*
X127315666Y-84808400D01*
X127315656Y-84808400D01*
X126735144Y-84808400D01*
X126735133Y-84808400D01*
X126705555Y-84811174D01*
X126705547Y-84811176D01*
X126580923Y-84854784D01*
X126474693Y-84933185D01*
X126474684Y-84933194D01*
X126403034Y-85030277D01*
X126353266Y-85065870D01*
X126292083Y-85065412D01*
X126253375Y-85041493D01*
X126084096Y-84872214D01*
X126056319Y-84817697D01*
X126055100Y-84802210D01*
X126055100Y-82456787D01*
X126074007Y-82398596D01*
X126084090Y-82386790D01*
X126302961Y-82167918D01*
X126357476Y-82140142D01*
X126417908Y-82149713D01*
X126455277Y-82182920D01*
X126497576Y-82246224D01*
X126588705Y-82307115D01*
X126669067Y-82323100D01*
X128048332Y-82323099D01*
X128128695Y-82307115D01*
X128219824Y-82246224D01*
X128280715Y-82155095D01*
X128296700Y-82074733D01*
X128296699Y-81870468D01*
X128280715Y-81790105D01*
X128272359Y-81777600D01*
X128255751Y-81718714D01*
X128272359Y-81667599D01*
X128280715Y-81655095D01*
X128296700Y-81574733D01*
X128296699Y-81370468D01*
X128280715Y-81290105D01*
X128272359Y-81277600D01*
X128255751Y-81218714D01*
X128272359Y-81167599D01*
X128280715Y-81155095D01*
X128296700Y-81074733D01*
X128296699Y-80870468D01*
X128280715Y-80790105D01*
X128272359Y-80777599D01*
X128255751Y-80718714D01*
X128272359Y-80667599D01*
X128280715Y-80655095D01*
X128296700Y-80574733D01*
X128296699Y-80370468D01*
X128296060Y-80367257D01*
X128283403Y-80303622D01*
X128280715Y-80290105D01*
X128272359Y-80277599D01*
X128255751Y-80218714D01*
X128272359Y-80167599D01*
X128280715Y-80155095D01*
X128296700Y-80074733D01*
X128296699Y-79870468D01*
X128293336Y-79853562D01*
X128284535Y-79809309D01*
X128280715Y-79790105D01*
X128272359Y-79777599D01*
X128255751Y-79718714D01*
X128272359Y-79667599D01*
X128280715Y-79655095D01*
X128296700Y-79574733D01*
X128296699Y-79370468D01*
X128296697Y-79370460D01*
X128282005Y-79296593D01*
X128280715Y-79290105D01*
X128272359Y-79277599D01*
X128255751Y-79218714D01*
X128272359Y-79167599D01*
X128280715Y-79155095D01*
X128296700Y-79074733D01*
X128296699Y-78870468D01*
X128295735Y-78865621D01*
X128302924Y-78804861D01*
X128322834Y-78776295D01*
X128330613Y-78768516D01*
X128385579Y-78656080D01*
X128390458Y-78622600D01*
X128058274Y-78622600D01*
X128054747Y-78621454D01*
X128053196Y-78621622D01*
X128053196Y-78622100D01*
X128048794Y-78622100D01*
X128048573Y-78622124D01*
X128048336Y-78622100D01*
X128048333Y-78622100D01*
X128048329Y-78622100D01*
X127457700Y-78622100D01*
X127399509Y-78603193D01*
X127363545Y-78553693D01*
X127358700Y-78523100D01*
X127358700Y-78422099D01*
X127377607Y-78363908D01*
X127427107Y-78327944D01*
X127457697Y-78323099D01*
X128048332Y-78323099D01*
X128048335Y-78323098D01*
X128048562Y-78323076D01*
X128058263Y-78322600D01*
X128390457Y-78322600D01*
X128385579Y-78289119D01*
X128330613Y-78176684D01*
X128322828Y-78168899D01*
X128295051Y-78114382D01*
X128295735Y-78079580D01*
X128296700Y-78074733D01*
X128296699Y-77870468D01*
X128280715Y-77790105D01*
X128272359Y-77777600D01*
X128255751Y-77718714D01*
X128272359Y-77667599D01*
X128280715Y-77655095D01*
X128296700Y-77574733D01*
X128296699Y-77370468D01*
X128295432Y-77364100D01*
X128280715Y-77290106D01*
X128280715Y-77290105D01*
X128272359Y-77277600D01*
X128255751Y-77218714D01*
X128272359Y-77167599D01*
X128280715Y-77155095D01*
X128296700Y-77074733D01*
X128296699Y-76870468D01*
X128280715Y-76790105D01*
X128272359Y-76777599D01*
X128255751Y-76718714D01*
X128272359Y-76667599D01*
X128280715Y-76655095D01*
X128296700Y-76574733D01*
X128296699Y-76370468D01*
X128295266Y-76363265D01*
X128280715Y-76290105D01*
X128280714Y-76290103D01*
X128219826Y-76198979D01*
X128219824Y-76198976D01*
X128219820Y-76198973D01*
X128128697Y-76138086D01*
X128128696Y-76138085D01*
X128128695Y-76138085D01*
X128048333Y-76122100D01*
X125399589Y-76122100D01*
X125341398Y-76103193D01*
X125305434Y-76053693D01*
X125305434Y-75992507D01*
X125329585Y-75953096D01*
X125843085Y-75439596D01*
X125897602Y-75411819D01*
X125913089Y-75410600D01*
X128321701Y-75410600D01*
X128379892Y-75429507D01*
X128415856Y-75479007D01*
X128420701Y-75509600D01*
X128420701Y-75749736D01*
X128436684Y-75830094D01*
X128436685Y-75830096D01*
X128497573Y-75921220D01*
X128497576Y-75921224D01*
X128588705Y-75982115D01*
X128669067Y-75998100D01*
X128873332Y-75998099D01*
X128953695Y-75982115D01*
X128966196Y-75973761D01*
X129025083Y-75957151D01*
X129076200Y-75973759D01*
X129088705Y-75982115D01*
X129169067Y-75998100D01*
X129373332Y-75998099D01*
X129453695Y-75982115D01*
X129466196Y-75973761D01*
X129525083Y-75957151D01*
X129576200Y-75973759D01*
X129588705Y-75982115D01*
X129669067Y-75998100D01*
X129873332Y-75998099D01*
X129953695Y-75982115D01*
X129966196Y-75973761D01*
X130025083Y-75957151D01*
X130076200Y-75973759D01*
X130088705Y-75982115D01*
X130169067Y-75998100D01*
X130373332Y-75998099D01*
X130453695Y-75982115D01*
X130466196Y-75973761D01*
X130525083Y-75957151D01*
X130576200Y-75973759D01*
X130588705Y-75982115D01*
X130669067Y-75998100D01*
X130873332Y-75998099D01*
X130953695Y-75982115D01*
X130966196Y-75973761D01*
X131025083Y-75957151D01*
X131076200Y-75973759D01*
X131088705Y-75982115D01*
X131169067Y-75998100D01*
X131373332Y-75998099D01*
X131453695Y-75982115D01*
X131466196Y-75973761D01*
X131525083Y-75957151D01*
X131576200Y-75973759D01*
X131588705Y-75982115D01*
X131669067Y-75998100D01*
X131873332Y-75998099D01*
X131953695Y-75982115D01*
X131966196Y-75973761D01*
X132025083Y-75957151D01*
X132076200Y-75973759D01*
X132088705Y-75982115D01*
X132169067Y-75998100D01*
X132373332Y-75998099D01*
X132453695Y-75982115D01*
X132466196Y-75973761D01*
X132525083Y-75957151D01*
X132576200Y-75973759D01*
X132588705Y-75982115D01*
X132669067Y-75998100D01*
X132873332Y-75998099D01*
X132953695Y-75982115D01*
X132966196Y-75973761D01*
X133025083Y-75957151D01*
X133076200Y-75973759D01*
X133088705Y-75982115D01*
X133169067Y-75998100D01*
X133373332Y-75998099D01*
X133373334Y-75998098D01*
X133373339Y-75998098D01*
X133378175Y-75997136D01*
X133438936Y-76004323D01*
X133467499Y-76024228D01*
X133475286Y-76032015D01*
X133587716Y-76086979D01*
X133587719Y-76086980D01*
X133621199Y-76091857D01*
X133621200Y-76091857D01*
X133621200Y-75759672D01*
X133622347Y-75756141D01*
X133622180Y-75754598D01*
X133621700Y-75754598D01*
X133621699Y-75750175D01*
X133621677Y-75749963D01*
X133621697Y-75749746D01*
X133621700Y-75749733D01*
X133621699Y-74370468D01*
X133621698Y-74370466D01*
X133920700Y-74370466D01*
X133920700Y-74370467D01*
X133920700Y-75021198D01*
X133920701Y-75060100D01*
X133920701Y-75749729D01*
X133920723Y-75749953D01*
X133921200Y-75759661D01*
X133921200Y-76091857D01*
X133954679Y-76086980D01*
X134067117Y-76032012D01*
X134074895Y-76024234D01*
X134129410Y-75996452D01*
X134164220Y-75997135D01*
X134169067Y-75998100D01*
X134373332Y-75998099D01*
X134453695Y-75982115D01*
X134544824Y-75921224D01*
X134605715Y-75830095D01*
X134621700Y-75749733D01*
X134621699Y-75175577D01*
X134640606Y-75117387D01*
X134650696Y-75105574D01*
X135385776Y-74370496D01*
X135392892Y-74366870D01*
X135397588Y-74360407D01*
X135419637Y-74353242D01*
X135440292Y-74342719D01*
X135455779Y-74341500D01*
X135594079Y-74341500D01*
X135652270Y-74360407D01*
X135664076Y-74370490D01*
X135735086Y-74441500D01*
X135735088Y-74441501D01*
X135735090Y-74441503D01*
X135849210Y-74507390D01*
X135849208Y-74507390D01*
X135849212Y-74507391D01*
X135849214Y-74507392D01*
X135976508Y-74541500D01*
X135976510Y-74541500D01*
X136108290Y-74541500D01*
X136108292Y-74541500D01*
X136235586Y-74507392D01*
X136235588Y-74507390D01*
X136235590Y-74507390D01*
X136349709Y-74441503D01*
X136349709Y-74441502D01*
X136349714Y-74441500D01*
X136442900Y-74348314D01*
X136476508Y-74290103D01*
X136508790Y-74234190D01*
X136508790Y-74234188D01*
X136508792Y-74234186D01*
X136542900Y-74106892D01*
X136542900Y-73975108D01*
X136508792Y-73847814D01*
X136508790Y-73847811D01*
X136508790Y-73847809D01*
X136442903Y-73733690D01*
X136442901Y-73733688D01*
X136442900Y-73733686D01*
X136349714Y-73640500D01*
X136349711Y-73640498D01*
X136349709Y-73640496D01*
X136235589Y-73574609D01*
X136235591Y-73574609D01*
X136184572Y-73560939D01*
X136108292Y-73540500D01*
X135976508Y-73540500D01*
X135900228Y-73560939D01*
X135849209Y-73574609D01*
X135735090Y-73640496D01*
X135735089Y-73640497D01*
X135735086Y-73640499D01*
X135735086Y-73640500D01*
X135664080Y-73711505D01*
X135609566Y-73739281D01*
X135594079Y-73740500D01*
X135250735Y-73740500D01*
X135174311Y-73760978D01*
X135174307Y-73760980D01*
X135158295Y-73770224D01*
X135158296Y-73770225D01*
X135105788Y-73800540D01*
X134695222Y-74211105D01*
X134640706Y-74238882D01*
X134580274Y-74229311D01*
X134552743Y-74204845D01*
X134551718Y-74205871D01*
X134544826Y-74198979D01*
X134544824Y-74198976D01*
X134491053Y-74163047D01*
X134453697Y-74138086D01*
X134453696Y-74138085D01*
X134453695Y-74138085D01*
X134373333Y-74122100D01*
X134373332Y-74122100D01*
X134169071Y-74122100D01*
X134169064Y-74122101D01*
X134164209Y-74123067D01*
X134103448Y-74115869D01*
X134074900Y-74095971D01*
X134067115Y-74088186D01*
X133954680Y-74033220D01*
X133921200Y-74028342D01*
X133921200Y-74360525D01*
X133920724Y-74370224D01*
X133920700Y-74370466D01*
X133621698Y-74370466D01*
X133621676Y-74370237D01*
X133621200Y-74360536D01*
X133621200Y-74028342D01*
X133587719Y-74033220D01*
X133475282Y-74088187D01*
X133467497Y-74095972D01*
X133412979Y-74123748D01*
X133378185Y-74123064D01*
X133373343Y-74122101D01*
X133373333Y-74122100D01*
X133373332Y-74122100D01*
X133169070Y-74122100D01*
X133169062Y-74122101D01*
X133088705Y-74138084D01*
X133088701Y-74138086D01*
X133076199Y-74146440D01*
X133017311Y-74163047D01*
X132966201Y-74146440D01*
X132953696Y-74138085D01*
X132953695Y-74138084D01*
X132873334Y-74122100D01*
X132669070Y-74122100D01*
X132669062Y-74122101D01*
X132588705Y-74138084D01*
X132588701Y-74138086D01*
X132576199Y-74146440D01*
X132517311Y-74163047D01*
X132466201Y-74146440D01*
X132453696Y-74138085D01*
X132453695Y-74138084D01*
X132373334Y-74122100D01*
X132169070Y-74122100D01*
X132169062Y-74122101D01*
X132088705Y-74138084D01*
X132088701Y-74138086D01*
X132076199Y-74146440D01*
X132017311Y-74163047D01*
X131966201Y-74146440D01*
X131953696Y-74138085D01*
X131953695Y-74138084D01*
X131873334Y-74122100D01*
X131669070Y-74122100D01*
X131669062Y-74122101D01*
X131588705Y-74138084D01*
X131588701Y-74138086D01*
X131576199Y-74146440D01*
X131517311Y-74163047D01*
X131466201Y-74146440D01*
X131453696Y-74138085D01*
X131453695Y-74138084D01*
X131373334Y-74122100D01*
X131169070Y-74122100D01*
X131169062Y-74122101D01*
X131088705Y-74138084D01*
X131088701Y-74138086D01*
X131076199Y-74146440D01*
X131017311Y-74163047D01*
X130966201Y-74146440D01*
X130953696Y-74138085D01*
X130953695Y-74138084D01*
X130873334Y-74122100D01*
X130669070Y-74122100D01*
X130669062Y-74122101D01*
X130588705Y-74138084D01*
X130588701Y-74138086D01*
X130576199Y-74146440D01*
X130517311Y-74163047D01*
X130466201Y-74146440D01*
X130453696Y-74138085D01*
X130453695Y-74138084D01*
X130373334Y-74122100D01*
X130169070Y-74122100D01*
X130169062Y-74122101D01*
X130088705Y-74138084D01*
X130088701Y-74138086D01*
X130076199Y-74146440D01*
X130017311Y-74163047D01*
X129966201Y-74146440D01*
X129953696Y-74138085D01*
X129953695Y-74138084D01*
X129873334Y-74122100D01*
X129669070Y-74122100D01*
X129669062Y-74122101D01*
X129588705Y-74138084D01*
X129588701Y-74138086D01*
X129576199Y-74146440D01*
X129517311Y-74163047D01*
X129466201Y-74146440D01*
X129453696Y-74138085D01*
X129453695Y-74138084D01*
X129373334Y-74122100D01*
X129169070Y-74122100D01*
X129169062Y-74122101D01*
X129088705Y-74138084D01*
X129088701Y-74138086D01*
X129076199Y-74146440D01*
X129017311Y-74163047D01*
X128966201Y-74146440D01*
X128953696Y-74138085D01*
X128953695Y-74138084D01*
X128873334Y-74122100D01*
X128669070Y-74122100D01*
X128669062Y-74122101D01*
X128588705Y-74138084D01*
X128588703Y-74138085D01*
X128497579Y-74198973D01*
X128497573Y-74198979D01*
X128436686Y-74290101D01*
X128436686Y-74290103D01*
X128436685Y-74290105D01*
X128434942Y-74298870D01*
X128420700Y-74370466D01*
X128420700Y-74610600D01*
X128401793Y-74668791D01*
X128352293Y-74704755D01*
X128321700Y-74709600D01*
X125680756Y-74709600D01*
X125591612Y-74733486D01*
X125591611Y-74733486D01*
X125591609Y-74733487D01*
X125511690Y-74779629D01*
X120196103Y-80095215D01*
X120141586Y-80122992D01*
X120081154Y-80113421D01*
X120037889Y-80070156D01*
X120027099Y-80025211D01*
X120027099Y-72766601D01*
X138102601Y-72766601D01*
X138102601Y-73196166D01*
X138108779Y-73264164D01*
X138108781Y-73264173D01*
X138157542Y-73420654D01*
X138157548Y-73420668D01*
X138242345Y-73560939D01*
X138358260Y-73676854D01*
X138498531Y-73761651D01*
X138498545Y-73761657D01*
X138655031Y-73810419D01*
X138723040Y-73816599D01*
X138902600Y-73816599D01*
X138902600Y-72766601D01*
X139402600Y-72766601D01*
X139402600Y-73816598D01*
X139402601Y-73816599D01*
X139582150Y-73816599D01*
X139582166Y-73816598D01*
X139650164Y-73810420D01*
X139650173Y-73810418D01*
X139806654Y-73761657D01*
X139806668Y-73761651D01*
X139946939Y-73676854D01*
X140062854Y-73560939D01*
X140147651Y-73420668D01*
X140147657Y-73420654D01*
X140196419Y-73264168D01*
X140202599Y-73196164D01*
X140202600Y-73196152D01*
X140202600Y-72766601D01*
X140202599Y-72766600D01*
X139402601Y-72766600D01*
X139402600Y-72766601D01*
X138902600Y-72766601D01*
X138902599Y-72766600D01*
X138102602Y-72766600D01*
X138102601Y-72766601D01*
X120027099Y-72766601D01*
X120027099Y-69447189D01*
X120046006Y-69388998D01*
X120095506Y-69353034D01*
X120156692Y-69353034D01*
X120158783Y-69353740D01*
X120281401Y-69396646D01*
X120311825Y-69399499D01*
X120311827Y-69399500D01*
X120311834Y-69399500D01*
X123406200Y-69399500D01*
X123464391Y-69418407D01*
X123500355Y-69467907D01*
X123505200Y-69498500D01*
X123505200Y-70277721D01*
X123486293Y-70335912D01*
X123436793Y-70371876D01*
X123431829Y-70373346D01*
X123428614Y-70374207D01*
X123428610Y-70374209D01*
X123314490Y-70440096D01*
X123221296Y-70533290D01*
X123155409Y-70647409D01*
X123139860Y-70705441D01*
X123121300Y-70774708D01*
X123121300Y-70906492D01*
X123151379Y-71018751D01*
X123155409Y-71033790D01*
X123221296Y-71147909D01*
X123221298Y-71147911D01*
X123221300Y-71147914D01*
X123314486Y-71241100D01*
X123314488Y-71241101D01*
X123314490Y-71241103D01*
X123428610Y-71306990D01*
X123428608Y-71306990D01*
X123428612Y-71306991D01*
X123428614Y-71306992D01*
X123555908Y-71341100D01*
X123555910Y-71341100D01*
X123687690Y-71341100D01*
X123687692Y-71341100D01*
X123814986Y-71306992D01*
X123814988Y-71306990D01*
X123814990Y-71306990D01*
X123929109Y-71241103D01*
X123929109Y-71241102D01*
X123929114Y-71241100D01*
X124022300Y-71147914D01*
X124061967Y-71079209D01*
X124088190Y-71033790D01*
X124088190Y-71033788D01*
X124088192Y-71033786D01*
X124122300Y-70906492D01*
X124122300Y-70774708D01*
X124109573Y-70727209D01*
X124106200Y-70701587D01*
X124106200Y-69498500D01*
X124125107Y-69440309D01*
X124174607Y-69404345D01*
X124205200Y-69399500D01*
X127650120Y-69399500D01*
X127708311Y-69418407D01*
X127744275Y-69467907D01*
X127744275Y-69529093D01*
X127720124Y-69568504D01*
X125555124Y-71733504D01*
X125500607Y-71761281D01*
X125485120Y-71762500D01*
X125384708Y-71762500D01*
X125333672Y-71776175D01*
X125257409Y-71796609D01*
X125143290Y-71862496D01*
X125050096Y-71955690D01*
X124984209Y-72069809D01*
X124984208Y-72069814D01*
X124950100Y-72197108D01*
X124950100Y-72328892D01*
X124980179Y-72441151D01*
X124984209Y-72456190D01*
X125050096Y-72570309D01*
X125050098Y-72570311D01*
X125050100Y-72570314D01*
X125143286Y-72663500D01*
X125143288Y-72663501D01*
X125143290Y-72663503D01*
X125257410Y-72729390D01*
X125257408Y-72729390D01*
X125257412Y-72729391D01*
X125257414Y-72729392D01*
X125384708Y-72763500D01*
X125384710Y-72763500D01*
X125516490Y-72763500D01*
X125516492Y-72763500D01*
X125643786Y-72729392D01*
X125643788Y-72729390D01*
X125643790Y-72729390D01*
X125757909Y-72663503D01*
X125757909Y-72663502D01*
X125757914Y-72663500D01*
X125851100Y-72570314D01*
X125916992Y-72456186D01*
X125951100Y-72328892D01*
X125951100Y-72228478D01*
X125970007Y-72170287D01*
X125980096Y-72158474D01*
X126301535Y-71837035D01*
X138102600Y-71837035D01*
X138102600Y-72266599D01*
X138102601Y-72266600D01*
X138902599Y-72266600D01*
X138902600Y-72266599D01*
X138902600Y-71216601D01*
X139402600Y-71216601D01*
X139402600Y-72266599D01*
X139402601Y-72266600D01*
X140202598Y-72266600D01*
X140202599Y-72266599D01*
X140202599Y-71837049D01*
X140202598Y-71837033D01*
X140196420Y-71769035D01*
X140196418Y-71769026D01*
X140147657Y-71612545D01*
X140147651Y-71612531D01*
X140062854Y-71472260D01*
X139946939Y-71356345D01*
X139806668Y-71271548D01*
X139806654Y-71271542D01*
X139650168Y-71222780D01*
X139582164Y-71216600D01*
X139402601Y-71216600D01*
X139402600Y-71216601D01*
X138902600Y-71216601D01*
X138902599Y-71216600D01*
X138723049Y-71216600D01*
X138723033Y-71216601D01*
X138655035Y-71222779D01*
X138655026Y-71222781D01*
X138498545Y-71271542D01*
X138498531Y-71271548D01*
X138358260Y-71356345D01*
X138242345Y-71472260D01*
X138157548Y-71612531D01*
X138157542Y-71612545D01*
X138108780Y-71769031D01*
X138102600Y-71837035D01*
X126301535Y-71837035D01*
X126373776Y-71764794D01*
X127802659Y-70335912D01*
X129610075Y-68528496D01*
X129664592Y-68500719D01*
X129680079Y-68499500D01*
X131691600Y-68499500D01*
X131749791Y-68518407D01*
X131785755Y-68567907D01*
X131790600Y-68598500D01*
X131790600Y-69003274D01*
X131793453Y-69033694D01*
X131793455Y-69033703D01*
X131838307Y-69161883D01*
X131918945Y-69271144D01*
X131918947Y-69271146D01*
X131918950Y-69271150D01*
X131918953Y-69271152D01*
X131918955Y-69271154D01*
X132028216Y-69351792D01*
X132028217Y-69351792D01*
X132028218Y-69351793D01*
X132156401Y-69396646D01*
X132186825Y-69399499D01*
X132186827Y-69399500D01*
X132186834Y-69399500D01*
X139670373Y-69399500D01*
X139670373Y-69399499D01*
X139700799Y-69396646D01*
X139828982Y-69351793D01*
X139938250Y-69271150D01*
X140018893Y-69161882D01*
X140063746Y-69033699D01*
X140066599Y-69003273D01*
X140066600Y-69003273D01*
X140066600Y-67394727D01*
X140066599Y-67394725D01*
X140063848Y-67365391D01*
X140063746Y-67364301D01*
X140018893Y-67236118D01*
X139989340Y-67196075D01*
X139938254Y-67126855D01*
X139938252Y-67126853D01*
X139938250Y-67126850D01*
X139938246Y-67126847D01*
X139938244Y-67126845D01*
X139828983Y-67046207D01*
X139700803Y-67001355D01*
X139700794Y-67001353D01*
X139670374Y-66998500D01*
X139670366Y-66998500D01*
X132186834Y-66998500D01*
X132186825Y-66998500D01*
X132156405Y-67001353D01*
X132156396Y-67001355D01*
X132028216Y-67046207D01*
X131918955Y-67126845D01*
X131918945Y-67126855D01*
X131838307Y-67236116D01*
X131793455Y-67364296D01*
X131793453Y-67364305D01*
X131790600Y-67394725D01*
X131790600Y-67799500D01*
X131771693Y-67857691D01*
X131722193Y-67893655D01*
X131691600Y-67898500D01*
X129475035Y-67898500D01*
X129398611Y-67918978D01*
X129398607Y-67918980D01*
X129330089Y-67958539D01*
X128360603Y-68928024D01*
X128306087Y-68955801D01*
X128245655Y-68946230D01*
X128202390Y-68902965D01*
X128191600Y-68858020D01*
X128191600Y-67394727D01*
X128191599Y-67394725D01*
X128188848Y-67365391D01*
X128188746Y-67364301D01*
X128143893Y-67236118D01*
X128114340Y-67196075D01*
X128063254Y-67126855D01*
X128063252Y-67126853D01*
X128063250Y-67126850D01*
X128063246Y-67126847D01*
X128063244Y-67126845D01*
X127953983Y-67046207D01*
X127825803Y-67001355D01*
X127825794Y-67001353D01*
X127795374Y-66998500D01*
X127795366Y-66998500D01*
X120311834Y-66998500D01*
X120311825Y-66998500D01*
X120281405Y-67001353D01*
X120281401Y-67001354D01*
X120158796Y-67044255D01*
X120097626Y-67045627D01*
X120047332Y-67010783D01*
X120027124Y-66953031D01*
X120027099Y-66950810D01*
X120027099Y-66702742D01*
X120029970Y-66650729D01*
X120027099Y-66637034D01*
X120027099Y-66623044D01*
X120014320Y-66575353D01*
X120013058Y-66570062D01*
X120002930Y-66521749D01*
X119996611Y-66509263D01*
X119992991Y-66495750D01*
X119966947Y-66450641D01*
X119943428Y-66404163D01*
X119940937Y-66401381D01*
X119928966Y-66384855D01*
X119927099Y-66381622D01*
X119892193Y-66346716D01*
X119892193Y-66346715D01*
X119890256Y-66344778D01*
X119855520Y-66305983D01*
X119843807Y-66298330D01*
X119833913Y-66288436D01*
X119833910Y-66288434D01*
X119791161Y-66263752D01*
X119791161Y-66263753D01*
X119788799Y-66262389D01*
X119745197Y-66233901D01*
X119731903Y-66229540D01*
X119723012Y-66224407D01*
X119723011Y-66224405D01*
X119719790Y-66222546D01*
X119719784Y-66222543D01*
X119672104Y-66209766D01*
X119672104Y-66209767D01*
X119669457Y-66209057D01*
X119619976Y-66192828D01*
X119606004Y-66192056D01*
X119598980Y-66190174D01*
X119596090Y-66189400D01*
X119596089Y-66189399D01*
X119586225Y-66186757D01*
X119586584Y-66185414D01*
X119537854Y-66162173D01*
X119508658Y-66108403D01*
X119507000Y-66090360D01*
X119507000Y-65503368D01*
X119525907Y-65445177D01*
X119575407Y-65409213D01*
X119605495Y-65404369D01*
X120268948Y-65400995D01*
X120282024Y-65405170D01*
X120295736Y-65404548D01*
X120309869Y-65414061D01*
X120327232Y-65419606D01*
X120346818Y-65438227D01*
X120350709Y-65443101D01*
X120351100Y-65443778D01*
X120351841Y-65444519D01*
X120355290Y-65448839D01*
X120355701Y-65449932D01*
X120355789Y-65449861D01*
X120359883Y-65454897D01*
X120401637Y-65494371D01*
X120403629Y-65496308D01*
X120444281Y-65536959D01*
X120444286Y-65536964D01*
X120450461Y-65540529D01*
X120455645Y-65545430D01*
X120507430Y-65573420D01*
X120558414Y-65602856D01*
X120558416Y-65602857D01*
X120564415Y-65605342D01*
X120564248Y-65605744D01*
X120565358Y-65606185D01*
X120565514Y-65605778D01*
X120571575Y-65608091D01*
X120571578Y-65608093D01*
X120627493Y-65621405D01*
X120630187Y-65622086D01*
X120685708Y-65636964D01*
X120685713Y-65636964D01*
X120692141Y-65637811D01*
X120692084Y-65638239D01*
X120693280Y-65638379D01*
X120693325Y-65637950D01*
X120699772Y-65638614D01*
X120699779Y-65638616D01*
X120757238Y-65637003D01*
X120760016Y-65636964D01*
X148097144Y-65636964D01*
X148128378Y-65641273D01*
X148162753Y-65636964D01*
X148197396Y-65636964D01*
X148227849Y-65628804D01*
X148259138Y-65624882D01*
X148291228Y-65611821D01*
X148324690Y-65602856D01*
X148346120Y-65590482D01*
X148358287Y-65584529D01*
X148381201Y-65575205D01*
X148408815Y-65554285D01*
X148438818Y-65536964D01*
X148461113Y-65514668D01*
X148486247Y-65495629D01*
X148507507Y-65468274D01*
X148532004Y-65443778D01*
X148547768Y-65416472D01*
X148567119Y-65391576D01*
X148578188Y-65365310D01*
X148580784Y-65359660D01*
X148582134Y-65356948D01*
X148597896Y-65329650D01*
X148600418Y-65320235D01*
X148604853Y-65311331D01*
X148619655Y-65296254D01*
X148631162Y-65278533D01*
X148640620Y-65274901D01*
X148647719Y-65267671D01*
X148668558Y-65264174D01*
X148688282Y-65256601D01*
X148692900Y-65256467D01*
X149353819Y-65253107D01*
X149412104Y-65271719D01*
G37*
%TD.AperFunction*%
%TA.AperFunction,Conductor*%
G36*
X148966523Y-83096100D02*
G01*
X149009788Y-83139365D01*
X149020578Y-83184211D01*
X149029271Y-91894771D01*
X149028839Y-91904106D01*
X149025334Y-91941505D01*
X149025335Y-91941510D01*
X149029342Y-91965084D01*
X149029366Y-91988992D01*
X149040338Y-92029777D01*
X149041122Y-92034390D01*
X149041123Y-92034394D01*
X149047418Y-92071427D01*
X149047419Y-92071431D01*
X149053925Y-92085611D01*
X149059545Y-92101177D01*
X149063598Y-92116245D01*
X149063600Y-92116249D01*
X149063601Y-92116252D01*
X149084761Y-92152818D01*
X149102376Y-92191209D01*
X149117628Y-92209616D01*
X149121785Y-92216799D01*
X149121787Y-92216802D01*
X149127408Y-92226515D01*
X149129607Y-92230314D01*
X149156199Y-92256853D01*
X149162489Y-92263753D01*
X149169469Y-92272176D01*
X149186461Y-92292682D01*
X149199191Y-92301713D01*
X149211836Y-92312379D01*
X149222886Y-92323407D01*
X149259493Y-92344493D01*
X149293944Y-92368934D01*
X149316359Y-92377249D01*
X149328194Y-92384066D01*
X149369182Y-92429488D01*
X149377785Y-92470130D01*
X149377672Y-92510594D01*
X149358602Y-92568732D01*
X149309002Y-92604558D01*
X149279598Y-92609314D01*
X149000379Y-92611926D01*
X148981391Y-92605952D01*
X148961553Y-92604388D01*
X148953571Y-92597200D01*
X148942014Y-92593564D01*
X148915034Y-92564644D01*
X148913678Y-92562431D01*
X148903493Y-92543670D01*
X148899804Y-92539783D01*
X148896150Y-92533817D01*
X148895578Y-92533073D01*
X148895575Y-92533067D01*
X148878500Y-92515992D01*
X148854535Y-92492026D01*
X148853615Y-92491106D01*
X148812782Y-92448074D01*
X148807099Y-92444591D01*
X148802389Y-92439881D01*
X148752130Y-92410864D01*
X148749930Y-92409554D01*
X148700422Y-92379214D01*
X148700417Y-92379211D01*
X148694026Y-92377317D01*
X148688261Y-92373989D01*
X148630963Y-92358635D01*
X148629712Y-92358265D01*
X148629711Y-92358264D01*
X148574068Y-92341780D01*
X148574059Y-92341779D01*
X148567400Y-92341604D01*
X148560967Y-92339881D01*
X148501635Y-92339881D01*
X148500338Y-92339847D01*
X148500337Y-92339847D01*
X148442326Y-92338326D01*
X148442325Y-92338326D01*
X148442324Y-92338326D01*
X148435875Y-92339004D01*
X148435821Y-92338498D01*
X148424133Y-92339881D01*
X146413749Y-92339881D01*
X146355558Y-92320974D01*
X146319594Y-92271474D01*
X146319594Y-92210288D01*
X146355558Y-92160788D01*
X146394433Y-92143783D01*
X146408528Y-92140980D01*
X146536011Y-92088175D01*
X146650742Y-92011514D01*
X146748314Y-91913942D01*
X146824975Y-91799211D01*
X146877780Y-91671728D01*
X146904700Y-91536393D01*
X146904700Y-91398407D01*
X146877780Y-91263072D01*
X146824975Y-91135589D01*
X146824972Y-91135584D01*
X146824971Y-91135582D01*
X146748314Y-91020858D01*
X146650741Y-90923285D01*
X146536017Y-90846628D01*
X146536006Y-90846622D01*
X146408528Y-90793820D01*
X146273195Y-90766900D01*
X146273193Y-90766900D01*
X145335207Y-90766900D01*
X145335204Y-90766900D01*
X145199872Y-90793820D01*
X145199870Y-90793820D01*
X145072393Y-90846622D01*
X145072382Y-90846628D01*
X144957658Y-90923285D01*
X144860085Y-91020858D01*
X144783428Y-91135582D01*
X144783422Y-91135593D01*
X144730620Y-91263070D01*
X144730620Y-91263072D01*
X144703700Y-91398404D01*
X144703700Y-91536395D01*
X144730620Y-91671727D01*
X144730620Y-91671729D01*
X144783422Y-91799206D01*
X144783428Y-91799217D01*
X144860085Y-91913941D01*
X144957658Y-92011514D01*
X145072382Y-92088171D01*
X145072393Y-92088177D01*
X145123867Y-92109498D01*
X145199872Y-92140980D01*
X145213965Y-92143783D01*
X145267348Y-92173680D01*
X145292964Y-92229245D01*
X145281027Y-92289255D01*
X145236097Y-92330787D01*
X145194650Y-92339881D01*
X142383748Y-92339881D01*
X142325557Y-92320974D01*
X142289593Y-92271474D01*
X142289593Y-92210288D01*
X142325557Y-92160788D01*
X142364433Y-92143783D01*
X142378528Y-92140980D01*
X142506011Y-92088175D01*
X142620742Y-92011514D01*
X142718314Y-91913942D01*
X142794975Y-91799211D01*
X142847780Y-91671728D01*
X142874700Y-91536393D01*
X142874700Y-91398407D01*
X142847780Y-91263072D01*
X142794975Y-91135589D01*
X142794972Y-91135584D01*
X142794971Y-91135582D01*
X142718314Y-91020858D01*
X142620741Y-90923285D01*
X142506017Y-90846628D01*
X142506006Y-90846622D01*
X142378529Y-90793820D01*
X142304950Y-90779184D01*
X142251566Y-90749287D01*
X142225951Y-90693721D01*
X142237888Y-90633712D01*
X142282819Y-90592179D01*
X142298633Y-90586462D01*
X142346335Y-90573681D01*
X142477565Y-90497915D01*
X142584715Y-90390765D01*
X142584718Y-90390760D01*
X142660479Y-90259539D01*
X142660479Y-90259537D01*
X142660481Y-90259535D01*
X142699700Y-90113166D01*
X142699700Y-89961634D01*
X142660481Y-89815265D01*
X142660479Y-89815262D01*
X142660479Y-89815260D01*
X142584718Y-89684039D01*
X142584716Y-89684037D01*
X142584715Y-89684035D01*
X142503282Y-89602602D01*
X142475507Y-89548088D01*
X142485078Y-89487656D01*
X142503284Y-89462597D01*
X145670619Y-86295262D01*
X148851576Y-83114304D01*
X148906091Y-83086529D01*
X148966523Y-83096100D01*
G37*
%TD.AperFunction*%
%TA.AperFunction,Conductor*%
G36*
X140140553Y-90560792D02*
G01*
X140183818Y-90604057D01*
X140189052Y-90616304D01*
X140221853Y-90710045D01*
X140302407Y-90819190D01*
X140302409Y-90819192D01*
X140411553Y-90899745D01*
X140452604Y-90914109D01*
X140501285Y-90951174D01*
X140518883Y-91009774D01*
X140502224Y-91062555D01*
X140453427Y-91135584D01*
X140453422Y-91135593D01*
X140400620Y-91263070D01*
X140400620Y-91263072D01*
X140373700Y-91398404D01*
X140373700Y-91536395D01*
X140400620Y-91671727D01*
X140400620Y-91671729D01*
X140453422Y-91799206D01*
X140453428Y-91799217D01*
X140530085Y-91913941D01*
X140627658Y-92011514D01*
X140742382Y-92088171D01*
X140742393Y-92088177D01*
X140789483Y-92107682D01*
X140869872Y-92140980D01*
X140883965Y-92143783D01*
X140937349Y-92173679D01*
X140962965Y-92229244D01*
X140951028Y-92289254D01*
X140906099Y-92330787D01*
X140864651Y-92339881D01*
X134245105Y-92339881D01*
X134186914Y-92320974D01*
X134150950Y-92271474D01*
X134150950Y-92210288D01*
X134186317Y-92161226D01*
X134205511Y-92147061D01*
X134283916Y-92040825D01*
X134294173Y-92011514D01*
X134297974Y-92000652D01*
X134335040Y-91951971D01*
X134391418Y-91934350D01*
X138571214Y-91934350D01*
X138571216Y-91934350D01*
X138660360Y-91910464D01*
X138701683Y-91886606D01*
X138740284Y-91864320D01*
X140025606Y-90578996D01*
X140080121Y-90551221D01*
X140140553Y-90560792D01*
G37*
%TD.AperFunction*%
%TA.AperFunction,Conductor*%
G36*
X140965112Y-90102245D02*
G01*
X140980793Y-90102245D01*
X140993478Y-90111461D01*
X141008391Y-90116307D01*
X141017607Y-90128992D01*
X141030293Y-90138209D01*
X141035138Y-90153121D01*
X141044355Y-90165807D01*
X141049200Y-90196400D01*
X141049200Y-90347399D01*
X141049201Y-90347400D01*
X141200200Y-90347400D01*
X141258391Y-90366307D01*
X141294355Y-90415807D01*
X141299200Y-90446400D01*
X141299200Y-90667900D01*
X141280293Y-90726091D01*
X141230793Y-90762055D01*
X141200200Y-90766900D01*
X141005204Y-90766900D01*
X140917514Y-90784343D01*
X140856753Y-90777151D01*
X140811823Y-90735618D01*
X140799200Y-90687245D01*
X140799200Y-90597401D01*
X140799199Y-90597400D01*
X140246211Y-90597400D01*
X140188020Y-90578493D01*
X140152056Y-90528993D01*
X140152056Y-90467807D01*
X140176207Y-90428396D01*
X140478207Y-90126396D01*
X140532724Y-90098619D01*
X140548211Y-90097400D01*
X140950200Y-90097400D01*
X140965112Y-90102245D01*
G37*
%TD.AperFunction*%
%TA.AperFunction,Conductor*%
G36*
X143718722Y-77383007D02*
G01*
X143754686Y-77432507D01*
X143754686Y-77493693D01*
X143718722Y-77543193D01*
X143686156Y-77558725D01*
X143677448Y-77561059D01*
X143672409Y-77562409D01*
X143558290Y-77628296D01*
X143465098Y-77721488D01*
X143450197Y-77747298D01*
X143404727Y-77788238D01*
X143343877Y-77794633D01*
X143294459Y-77767802D01*
X143287785Y-77761128D01*
X143241671Y-77733251D01*
X143142207Y-77673122D01*
X143142205Y-77673121D01*
X142979794Y-77622513D01*
X142909220Y-77616100D01*
X142909216Y-77616100D01*
X139995984Y-77616100D01*
X139995979Y-77616100D01*
X139925405Y-77622513D01*
X139762994Y-77673121D01*
X139762992Y-77673122D01*
X139617416Y-77761127D01*
X139497127Y-77881416D01*
X139409122Y-78026992D01*
X139409121Y-78026994D01*
X139358513Y-78189405D01*
X139352100Y-78259979D01*
X139352100Y-78417100D01*
X139333193Y-78475291D01*
X139283693Y-78511255D01*
X139253100Y-78516100D01*
X138878721Y-78516100D01*
X138820530Y-78497193D01*
X138808717Y-78487104D01*
X138805101Y-78483488D01*
X138805100Y-78483486D01*
X138711914Y-78390300D01*
X138711911Y-78390298D01*
X138711909Y-78390296D01*
X138597789Y-78324409D01*
X138597791Y-78324409D01*
X138533247Y-78307115D01*
X138470492Y-78290300D01*
X138338708Y-78290300D01*
X138275953Y-78307115D01*
X138211409Y-78324409D01*
X138097290Y-78390296D01*
X138004096Y-78483490D01*
X137938209Y-78597609D01*
X137931513Y-78622600D01*
X137904100Y-78724908D01*
X137904100Y-78856692D01*
X137907792Y-78870469D01*
X137938209Y-78983990D01*
X138004096Y-79098109D01*
X138004098Y-79098111D01*
X138004100Y-79098114D01*
X138097286Y-79191300D01*
X138097288Y-79191301D01*
X138097290Y-79191303D01*
X138211410Y-79257190D01*
X138211408Y-79257190D01*
X138211412Y-79257191D01*
X138211414Y-79257192D01*
X138338708Y-79291300D01*
X138338710Y-79291300D01*
X138470490Y-79291300D01*
X138470492Y-79291300D01*
X138597786Y-79257192D01*
X138597788Y-79257190D01*
X138597790Y-79257190D01*
X138711909Y-79191303D01*
X138711910Y-79191302D01*
X138711914Y-79191300D01*
X138731114Y-79172100D01*
X138757119Y-79146096D01*
X138811636Y-79118319D01*
X138827122Y-79117100D01*
X139253100Y-79117100D01*
X139311291Y-79136007D01*
X139347255Y-79185507D01*
X139352100Y-79216100D01*
X139352100Y-79373220D01*
X139358513Y-79443794D01*
X139409121Y-79606205D01*
X139409122Y-79606207D01*
X139462915Y-79695190D01*
X139497128Y-79751785D01*
X139617415Y-79872072D01*
X139762994Y-79960078D01*
X139844820Y-79985575D01*
X139894749Y-80020937D01*
X139914359Y-80078895D01*
X139896157Y-80137310D01*
X139847095Y-80173870D01*
X139840990Y-80175718D01*
X139735414Y-80204007D01*
X139735410Y-80204009D01*
X139621290Y-80269896D01*
X139528096Y-80363090D01*
X139462209Y-80477209D01*
X139462208Y-80477214D01*
X139428100Y-80604508D01*
X139428100Y-80736292D01*
X139454291Y-80834038D01*
X139462209Y-80863590D01*
X139528096Y-80977709D01*
X139528098Y-80977711D01*
X139528100Y-80977714D01*
X139621286Y-81070900D01*
X139621288Y-81070901D01*
X139621290Y-81070903D01*
X139735410Y-81136790D01*
X139735408Y-81136790D01*
X139735412Y-81136791D01*
X139735414Y-81136792D01*
X139862708Y-81170900D01*
X139862710Y-81170900D01*
X139994490Y-81170900D01*
X139994492Y-81170900D01*
X140121786Y-81136792D01*
X140121788Y-81136790D01*
X140121790Y-81136790D01*
X140235909Y-81070903D01*
X140235909Y-81070902D01*
X140235914Y-81070900D01*
X140256919Y-81049894D01*
X140311434Y-81022119D01*
X140326921Y-81020900D01*
X141016142Y-81020900D01*
X141016144Y-81020900D01*
X141105288Y-80997014D01*
X141118146Y-80989589D01*
X141118149Y-80989589D01*
X141136118Y-80979214D01*
X141185212Y-80950870D01*
X141301270Y-80834812D01*
X141301270Y-80834811D01*
X141733069Y-80403012D01*
X141779214Y-80323088D01*
X141785909Y-80298100D01*
X141803100Y-80233944D01*
X141803100Y-80116100D01*
X141822007Y-80057909D01*
X141871507Y-80021945D01*
X141902100Y-80017100D01*
X142909211Y-80017100D01*
X142909216Y-80017100D01*
X142979796Y-80010686D01*
X143142206Y-79960078D01*
X143287785Y-79872072D01*
X143408072Y-79751785D01*
X143496078Y-79606206D01*
X143546686Y-79443796D01*
X143553100Y-79373216D01*
X143553100Y-78807277D01*
X143555568Y-78799679D01*
X143554319Y-78791790D01*
X143564843Y-78771134D01*
X143572007Y-78749086D01*
X143582085Y-78737285D01*
X143761075Y-78558294D01*
X143815590Y-78530519D01*
X143831077Y-78529300D01*
X143931490Y-78529300D01*
X143931492Y-78529300D01*
X144058786Y-78495192D01*
X144058788Y-78495190D01*
X144058790Y-78495190D01*
X144172909Y-78429303D01*
X144172909Y-78429302D01*
X144172914Y-78429300D01*
X144266100Y-78336114D01*
X144272858Y-78324409D01*
X144331990Y-78221990D01*
X144331990Y-78221988D01*
X144331992Y-78221986D01*
X144366100Y-78094692D01*
X144366100Y-77962908D01*
X144331992Y-77835614D01*
X144331990Y-77835611D01*
X144331990Y-77835609D01*
X144266103Y-77721490D01*
X144266101Y-77721488D01*
X144266100Y-77721486D01*
X144172914Y-77628300D01*
X144172911Y-77628298D01*
X144172909Y-77628296D01*
X144058789Y-77562409D01*
X144058791Y-77562409D01*
X144053751Y-77561059D01*
X144045044Y-77558726D01*
X143993732Y-77525403D01*
X143971805Y-77468282D01*
X143987640Y-77409181D01*
X144035190Y-77370676D01*
X144070669Y-77364100D01*
X146444468Y-77364100D01*
X146502659Y-77383007D01*
X146535932Y-77425214D01*
X146592258Y-77561197D01*
X146707220Y-77733251D01*
X146707223Y-77733255D01*
X146853545Y-77879577D01*
X147025602Y-77994541D01*
X147216780Y-78073730D01*
X147419735Y-78114100D01*
X147419736Y-78114100D01*
X147626664Y-78114100D01*
X147626665Y-78114100D01*
X147829620Y-78073730D01*
X148020798Y-77994541D01*
X148192855Y-77879577D01*
X148308498Y-77763933D01*
X148363013Y-77736158D01*
X148423445Y-77745729D01*
X148466710Y-77788994D01*
X148477500Y-77833939D01*
X148477500Y-78961846D01*
X148458593Y-79020037D01*
X148448504Y-79031850D01*
X148006162Y-79474190D01*
X147989125Y-79410607D01*
X147923299Y-79296593D01*
X147830207Y-79203501D01*
X147716193Y-79137675D01*
X147652606Y-79120636D01*
X148141732Y-78631511D01*
X148125930Y-78620032D01*
X147964640Y-78537850D01*
X147792489Y-78481916D01*
X147613710Y-78453600D01*
X147432690Y-78453600D01*
X147253910Y-78481916D01*
X147081759Y-78537850D01*
X146920464Y-78620034D01*
X146904666Y-78631511D01*
X147393792Y-79120637D01*
X147330207Y-79137675D01*
X147216193Y-79203501D01*
X147123101Y-79296593D01*
X147057275Y-79410607D01*
X147040237Y-79474192D01*
X146551111Y-78985066D01*
X146539634Y-79000864D01*
X146457450Y-79162159D01*
X146401516Y-79334310D01*
X146373200Y-79513089D01*
X146373200Y-79694110D01*
X146401516Y-79872889D01*
X146457450Y-80045040D01*
X146539632Y-80206330D01*
X146551111Y-80222131D01*
X147040236Y-79733006D01*
X147057275Y-79796593D01*
X147123101Y-79910607D01*
X147216193Y-80003699D01*
X147330207Y-80069525D01*
X147393791Y-80086562D01*
X146904666Y-80575687D01*
X146920466Y-80587166D01*
X147081759Y-80669349D01*
X147253910Y-80725283D01*
X147432690Y-80753600D01*
X147613710Y-80753600D01*
X147792489Y-80725283D01*
X147964640Y-80669349D01*
X148125930Y-80587168D01*
X148125935Y-80587164D01*
X148141732Y-80575687D01*
X148141732Y-80575686D01*
X147652608Y-80086562D01*
X147716193Y-80069525D01*
X147830207Y-80003699D01*
X147923299Y-79910607D01*
X147989125Y-79796593D01*
X148006162Y-79733007D01*
X148448504Y-80175349D01*
X148476281Y-80229866D01*
X148477500Y-80245353D01*
X148477500Y-81516210D01*
X148458593Y-81574401D01*
X148448504Y-81586214D01*
X147073704Y-82961014D01*
X147019187Y-82988791D01*
X146958755Y-82979220D01*
X146915490Y-82935955D01*
X146904700Y-82891010D01*
X146904700Y-82758408D01*
X146904699Y-82758404D01*
X146900037Y-82734965D01*
X146877780Y-82623072D01*
X146843481Y-82540267D01*
X146824977Y-82495593D01*
X146824971Y-82495582D01*
X146748314Y-82380858D01*
X146650741Y-82283285D01*
X146536017Y-82206628D01*
X146536006Y-82206622D01*
X146408528Y-82153820D01*
X146273195Y-82126900D01*
X146273193Y-82126900D01*
X145335207Y-82126900D01*
X145335204Y-82126900D01*
X145199872Y-82153820D01*
X145199870Y-82153820D01*
X145072393Y-82206622D01*
X145072382Y-82206628D01*
X144957658Y-82283285D01*
X144860085Y-82380858D01*
X144783428Y-82495582D01*
X144783422Y-82495593D01*
X144730620Y-82623070D01*
X144730620Y-82623072D01*
X144703700Y-82758404D01*
X144703700Y-82896395D01*
X144730620Y-83031727D01*
X144730620Y-83031729D01*
X144783422Y-83159206D01*
X144783428Y-83159217D01*
X144860085Y-83273941D01*
X144957658Y-83371514D01*
X145072382Y-83448171D01*
X145072393Y-83448177D01*
X145119483Y-83467682D01*
X145199872Y-83500980D01*
X145335207Y-83527900D01*
X145335208Y-83527900D01*
X146267810Y-83527900D01*
X146326001Y-83546807D01*
X146361965Y-83596307D01*
X146361965Y-83657493D01*
X146337814Y-83696904D01*
X145298814Y-84735904D01*
X145244297Y-84763681D01*
X145228810Y-84764900D01*
X142667195Y-84764900D01*
X142609004Y-84745993D01*
X142573040Y-84696493D01*
X142573040Y-84635307D01*
X142582821Y-84617164D01*
X142581471Y-84616385D01*
X142660479Y-84479539D01*
X142660479Y-84479537D01*
X142660481Y-84479535D01*
X142699700Y-84333166D01*
X142699700Y-84181634D01*
X142660481Y-84035265D01*
X142660479Y-84035262D01*
X142660479Y-84035260D01*
X142584718Y-83904039D01*
X142584716Y-83904037D01*
X142584715Y-83904035D01*
X142477565Y-83796885D01*
X142477562Y-83796883D01*
X142477560Y-83796881D01*
X142346338Y-83721120D01*
X142346339Y-83721120D01*
X142328376Y-83716307D01*
X142298641Y-83708339D01*
X142247327Y-83675015D01*
X142225401Y-83617894D01*
X142241237Y-83558793D01*
X142288787Y-83520288D01*
X142304945Y-83515616D01*
X142378528Y-83500980D01*
X142506011Y-83448175D01*
X142620742Y-83371514D01*
X142718314Y-83273942D01*
X142794975Y-83159211D01*
X142847780Y-83031728D01*
X142874700Y-82896393D01*
X142874700Y-82758407D01*
X142847780Y-82623072D01*
X142813481Y-82540267D01*
X142794977Y-82495593D01*
X142794971Y-82495582D01*
X142718314Y-82380858D01*
X142620741Y-82283285D01*
X142506017Y-82206628D01*
X142506006Y-82206622D01*
X142378528Y-82153820D01*
X142243195Y-82126900D01*
X142243193Y-82126900D01*
X141005207Y-82126900D01*
X141005204Y-82126900D01*
X140869872Y-82153820D01*
X140869870Y-82153820D01*
X140742393Y-82206622D01*
X140742382Y-82206628D01*
X140627658Y-82283285D01*
X140530085Y-82380858D01*
X140453428Y-82495582D01*
X140453422Y-82495593D01*
X140400620Y-82623070D01*
X140400620Y-82623072D01*
X140373700Y-82758404D01*
X140373700Y-82896395D01*
X140400620Y-83031727D01*
X140400620Y-83031729D01*
X140453422Y-83159206D01*
X140453428Y-83159218D01*
X140502223Y-83232243D01*
X140518832Y-83291131D01*
X140497655Y-83348535D01*
X140452606Y-83380689D01*
X140411554Y-83395053D01*
X140302409Y-83475607D01*
X140302407Y-83475609D01*
X140221854Y-83584752D01*
X140182439Y-83697400D01*
X140950200Y-83697400D01*
X141008391Y-83716307D01*
X141044355Y-83765807D01*
X141049200Y-83796400D01*
X141049200Y-83947399D01*
X141049201Y-83947400D01*
X141200200Y-83947400D01*
X141215112Y-83952245D01*
X141230793Y-83952245D01*
X141243478Y-83961461D01*
X141258391Y-83966307D01*
X141267607Y-83978992D01*
X141280293Y-83988209D01*
X141285138Y-84003121D01*
X141294355Y-84015807D01*
X141299200Y-84046400D01*
X141299200Y-84147900D01*
X141280293Y-84206091D01*
X141230793Y-84242055D01*
X141200200Y-84246900D01*
X140889707Y-84246900D01*
X140831516Y-84227993D01*
X140819703Y-84217904D01*
X140799199Y-84197400D01*
X140182439Y-84197400D01*
X140221855Y-84310047D01*
X140278039Y-84386173D01*
X140297381Y-84444221D01*
X140287326Y-84488440D01*
X140283627Y-84496004D01*
X140283627Y-84496007D01*
X140273700Y-84564140D01*
X140273700Y-84930660D01*
X140279267Y-84968869D01*
X140283627Y-84998795D01*
X140322194Y-85077685D01*
X140330765Y-85138267D01*
X140315569Y-85176166D01*
X140289686Y-85214902D01*
X140289686Y-85214903D01*
X140289685Y-85214905D01*
X140279326Y-85266984D01*
X140273700Y-85295266D01*
X140273700Y-85329082D01*
X140254793Y-85387273D01*
X140205293Y-85423237D01*
X140149077Y-85424708D01*
X140045292Y-85396900D01*
X139913508Y-85396900D01*
X139835600Y-85417775D01*
X139786209Y-85431009D01*
X139672090Y-85496896D01*
X139578896Y-85590090D01*
X139513009Y-85704209D01*
X139504397Y-85736350D01*
X139478900Y-85831508D01*
X139478900Y-85963292D01*
X139488611Y-85999533D01*
X139513009Y-86090590D01*
X139578896Y-86204709D01*
X139578898Y-86204711D01*
X139578900Y-86204714D01*
X139672086Y-86297900D01*
X139672088Y-86297901D01*
X139672090Y-86297903D01*
X139786210Y-86363790D01*
X139786211Y-86363790D01*
X139786214Y-86363792D01*
X139846623Y-86379978D01*
X139897936Y-86413300D01*
X139919863Y-86470422D01*
X139906737Y-86525102D01*
X139893178Y-86548587D01*
X139872700Y-86625011D01*
X139872700Y-87001900D01*
X139853793Y-87060091D01*
X139804293Y-87096055D01*
X139773700Y-87100900D01*
X139382879Y-87100900D01*
X139324688Y-87081993D01*
X139312875Y-87071904D01*
X138734096Y-86493125D01*
X138706319Y-86438608D01*
X138705100Y-86423121D01*
X138705100Y-80834037D01*
X138705099Y-80834035D01*
X138684621Y-80757611D01*
X138684619Y-80757607D01*
X138645060Y-80689089D01*
X138589111Y-80633139D01*
X138589111Y-80633140D01*
X137713111Y-79757140D01*
X137712269Y-79756654D01*
X137705287Y-79752623D01*
X137705288Y-79752623D01*
X137705284Y-79752621D01*
X137644589Y-79717579D01*
X137644587Y-79717578D01*
X137644585Y-79717577D01*
X137568164Y-79697100D01*
X137568162Y-79697100D01*
X136717992Y-79697100D01*
X136659801Y-79678193D01*
X136623837Y-79628693D01*
X136620894Y-79578786D01*
X136621699Y-79574737D01*
X136621700Y-79574733D01*
X136621699Y-79370468D01*
X136621698Y-79370462D01*
X136621698Y-79370460D01*
X136619387Y-79358844D01*
X136626577Y-79298083D01*
X136666985Y-79253791D01*
X136669010Y-79252621D01*
X136669013Y-79252621D01*
X136737535Y-79213060D01*
X136793484Y-79157111D01*
X138557499Y-77393096D01*
X138612016Y-77365319D01*
X138627503Y-77364100D01*
X143660531Y-77364100D01*
X143718722Y-77383007D01*
G37*
%TD.AperFunction*%
%TA.AperFunction,Conductor*%
G36*
X125199213Y-78471410D02*
G01*
X125240004Y-78510120D01*
X125296416Y-78607829D01*
X125296418Y-78607831D01*
X125296420Y-78607834D01*
X125389606Y-78701020D01*
X125389608Y-78701021D01*
X125389610Y-78701023D01*
X125503730Y-78766910D01*
X125503728Y-78766910D01*
X125503732Y-78766911D01*
X125503734Y-78766912D01*
X125631028Y-78801020D01*
X125631030Y-78801020D01*
X125762810Y-78801020D01*
X125762812Y-78801020D01*
X125890106Y-78766912D01*
X125890108Y-78766910D01*
X125890110Y-78766910D01*
X126004229Y-78701023D01*
X126004229Y-78701022D01*
X126004234Y-78701020D01*
X126097420Y-78607834D01*
X126136653Y-78539879D01*
X126182122Y-78498940D01*
X126242972Y-78492544D01*
X126295960Y-78523137D01*
X126320847Y-78579032D01*
X126321130Y-78582218D01*
X126321200Y-78583186D01*
X126331820Y-78656080D01*
X126386786Y-78768515D01*
X126394570Y-78776299D01*
X126422347Y-78830816D01*
X126421665Y-78865612D01*
X126420700Y-78870461D01*
X126420700Y-78870467D01*
X126420701Y-79073100D01*
X126401794Y-79131290D01*
X126352294Y-79167254D01*
X126321701Y-79172100D01*
X126075435Y-79172100D01*
X125999011Y-79192578D01*
X125999007Y-79192580D01*
X125930489Y-79232139D01*
X125555153Y-79607475D01*
X125515594Y-79675993D01*
X125515593Y-79675995D01*
X125494124Y-79756114D01*
X125460799Y-79807428D01*
X125424122Y-79826115D01*
X125321689Y-79853562D01*
X125321685Y-79853564D01*
X125207565Y-79919451D01*
X125114371Y-80012645D01*
X125048484Y-80126764D01*
X125036926Y-80169900D01*
X125014375Y-80254063D01*
X125014375Y-80385847D01*
X125040019Y-80481554D01*
X125048484Y-80513145D01*
X125114371Y-80627264D01*
X125114373Y-80627266D01*
X125114375Y-80627269D01*
X125207561Y-80720455D01*
X125207563Y-80720456D01*
X125207565Y-80720458D01*
X125321685Y-80786345D01*
X125321683Y-80786345D01*
X125321687Y-80786346D01*
X125321689Y-80786347D01*
X125448983Y-80820455D01*
X125448985Y-80820455D01*
X125452120Y-80821295D01*
X125503434Y-80854619D01*
X125525361Y-80911740D01*
X125509526Y-80970841D01*
X125496501Y-80986926D01*
X124716924Y-81766504D01*
X124662407Y-81794281D01*
X124646920Y-81795500D01*
X124546508Y-81795500D01*
X124482861Y-81812554D01*
X124419212Y-81829608D01*
X124324000Y-81884580D01*
X124264152Y-81897301D01*
X124208256Y-81872414D01*
X124177663Y-81819426D01*
X124175500Y-81798843D01*
X124175500Y-80638337D01*
X124175500Y-80638336D01*
X124151614Y-80549192D01*
X124112562Y-80481553D01*
X124099300Y-80432054D01*
X124099300Y-79515589D01*
X124118207Y-79457398D01*
X124128290Y-79445591D01*
X125084266Y-78489614D01*
X125138781Y-78461839D01*
X125199213Y-78471410D01*
G37*
%TD.AperFunction*%
%TD*%
M02*
