%TF.GenerationSoftware,KiCad,Pcbnew,9.0.7*%
%TF.CreationDate,2026-02-19T19:28:42+05:30*%
%TF.ProjectId,breakout_board,62726561-6b6f-4757-945f-626f6172642e,rev?*%
%TF.SameCoordinates,Original*%
%TF.FileFunction,Legend,Bot*%
%TF.FilePolarity,Positive*%
%FSLAX46Y46*%
G04 Gerber Fmt 4.6, Leading zero omitted, Abs format (unit mm)*
G04 Created by KiCad (PCBNEW 9.0.7) date 2026-02-19 19:28:42*
%MOMM*%
%LPD*%
G01*
G04 APERTURE LIST*
%ADD10C,0.100000*%
%ADD11C,0.125000*%
%ADD12C,0.150000*%
%ADD13C,0.120000*%
G04 APERTURE END LIST*
D10*
X123611990Y-86581563D02*
X124111990Y-86581563D01*
X124111990Y-86581563D02*
X124111990Y-86462515D01*
X124111990Y-86462515D02*
X124088180Y-86391087D01*
X124088180Y-86391087D02*
X124040561Y-86343468D01*
X124040561Y-86343468D02*
X123992942Y-86319658D01*
X123992942Y-86319658D02*
X123897704Y-86295849D01*
X123897704Y-86295849D02*
X123826276Y-86295849D01*
X123826276Y-86295849D02*
X123731038Y-86319658D01*
X123731038Y-86319658D02*
X123683419Y-86343468D01*
X123683419Y-86343468D02*
X123635800Y-86391087D01*
X123635800Y-86391087D02*
X123611990Y-86462515D01*
X123611990Y-86462515D02*
X123611990Y-86581563D01*
X123945323Y-85867277D02*
X123611990Y-85867277D01*
X123945323Y-86081563D02*
X123683419Y-86081563D01*
X123683419Y-86081563D02*
X123635800Y-86057753D01*
X123635800Y-86057753D02*
X123611990Y-86010134D01*
X123611990Y-86010134D02*
X123611990Y-85938706D01*
X123611990Y-85938706D02*
X123635800Y-85891087D01*
X123635800Y-85891087D02*
X123659609Y-85867277D01*
X123611990Y-85629182D02*
X123945323Y-85629182D01*
X123897704Y-85629182D02*
X123921514Y-85605372D01*
X123921514Y-85605372D02*
X123945323Y-85557753D01*
X123945323Y-85557753D02*
X123945323Y-85486325D01*
X123945323Y-85486325D02*
X123921514Y-85438706D01*
X123921514Y-85438706D02*
X123873895Y-85414896D01*
X123873895Y-85414896D02*
X123611990Y-85414896D01*
X123873895Y-85414896D02*
X123921514Y-85391087D01*
X123921514Y-85391087D02*
X123945323Y-85343468D01*
X123945323Y-85343468D02*
X123945323Y-85272039D01*
X123945323Y-85272039D02*
X123921514Y-85224420D01*
X123921514Y-85224420D02*
X123873895Y-85200610D01*
X123873895Y-85200610D02*
X123611990Y-85200610D01*
X123611990Y-84962515D02*
X123945323Y-84962515D01*
X123897704Y-84962515D02*
X123921514Y-84938705D01*
X123921514Y-84938705D02*
X123945323Y-84891086D01*
X123945323Y-84891086D02*
X123945323Y-84819658D01*
X123945323Y-84819658D02*
X123921514Y-84772039D01*
X123921514Y-84772039D02*
X123873895Y-84748229D01*
X123873895Y-84748229D02*
X123611990Y-84748229D01*
X123873895Y-84748229D02*
X123921514Y-84724420D01*
X123921514Y-84724420D02*
X123945323Y-84676801D01*
X123945323Y-84676801D02*
X123945323Y-84605372D01*
X123945323Y-84605372D02*
X123921514Y-84557753D01*
X123921514Y-84557753D02*
X123873895Y-84533943D01*
X123873895Y-84533943D02*
X123611990Y-84533943D01*
X123945323Y-84343467D02*
X123611990Y-84224419D01*
X123945323Y-84105372D02*
X123611990Y-84224419D01*
X123611990Y-84224419D02*
X123492942Y-84272038D01*
X123492942Y-84272038D02*
X123469133Y-84295848D01*
X123469133Y-84295848D02*
X123445323Y-84343467D01*
X123611990Y-83533944D02*
X124111990Y-83533944D01*
X124111990Y-83533944D02*
X124111990Y-83343468D01*
X124111990Y-83343468D02*
X124088180Y-83295849D01*
X124088180Y-83295849D02*
X124064371Y-83272039D01*
X124064371Y-83272039D02*
X124016752Y-83248230D01*
X124016752Y-83248230D02*
X123945323Y-83248230D01*
X123945323Y-83248230D02*
X123897704Y-83272039D01*
X123897704Y-83272039D02*
X123873895Y-83295849D01*
X123873895Y-83295849D02*
X123850085Y-83343468D01*
X123850085Y-83343468D02*
X123850085Y-83533944D01*
X123611990Y-83033944D02*
X123945323Y-83033944D01*
X124111990Y-83033944D02*
X124088180Y-83057753D01*
X124088180Y-83057753D02*
X124064371Y-83033944D01*
X124064371Y-83033944D02*
X124088180Y-83010134D01*
X124088180Y-83010134D02*
X124111990Y-83033944D01*
X124111990Y-83033944D02*
X124064371Y-83033944D01*
X123945323Y-82795849D02*
X123611990Y-82795849D01*
X123897704Y-82795849D02*
X123921514Y-82772039D01*
X123921514Y-82772039D02*
X123945323Y-82724420D01*
X123945323Y-82724420D02*
X123945323Y-82652992D01*
X123945323Y-82652992D02*
X123921514Y-82605373D01*
X123921514Y-82605373D02*
X123873895Y-82581563D01*
X123873895Y-82581563D02*
X123611990Y-82581563D01*
X123635800Y-82367277D02*
X123611990Y-82319658D01*
X123611990Y-82319658D02*
X123611990Y-82224420D01*
X123611990Y-82224420D02*
X123635800Y-82176801D01*
X123635800Y-82176801D02*
X123683419Y-82152992D01*
X123683419Y-82152992D02*
X123707228Y-82152992D01*
X123707228Y-82152992D02*
X123754847Y-82176801D01*
X123754847Y-82176801D02*
X123778657Y-82224420D01*
X123778657Y-82224420D02*
X123778657Y-82295849D01*
X123778657Y-82295849D02*
X123802466Y-82343468D01*
X123802466Y-82343468D02*
X123850085Y-82367277D01*
X123850085Y-82367277D02*
X123873895Y-82367277D01*
X123873895Y-82367277D02*
X123921514Y-82343468D01*
X123921514Y-82343468D02*
X123945323Y-82295849D01*
X123945323Y-82295849D02*
X123945323Y-82224420D01*
X123945323Y-82224420D02*
X123921514Y-82176801D01*
D11*
X132457209Y-85581371D02*
X132457209Y-85343276D01*
X132457209Y-85343276D02*
X131957209Y-85343276D01*
X132195304Y-85748038D02*
X132195304Y-85914705D01*
X132457209Y-85986133D02*
X132457209Y-85748038D01*
X132457209Y-85748038D02*
X131957209Y-85748038D01*
X131957209Y-85748038D02*
X131957209Y-85986133D01*
X132457209Y-86200419D02*
X131957209Y-86200419D01*
X131957209Y-86200419D02*
X131957209Y-86319467D01*
X131957209Y-86319467D02*
X131981019Y-86390895D01*
X131981019Y-86390895D02*
X132028638Y-86438514D01*
X132028638Y-86438514D02*
X132076257Y-86462324D01*
X132076257Y-86462324D02*
X132171495Y-86486133D01*
X132171495Y-86486133D02*
X132242923Y-86486133D01*
X132242923Y-86486133D02*
X132338161Y-86462324D01*
X132338161Y-86462324D02*
X132385780Y-86438514D01*
X132385780Y-86438514D02*
X132433400Y-86390895D01*
X132433400Y-86390895D02*
X132457209Y-86319467D01*
X132457209Y-86319467D02*
X132457209Y-86200419D01*
X125904009Y-85225771D02*
X125904009Y-84987676D01*
X125904009Y-84987676D02*
X125404009Y-84987676D01*
X125642104Y-85392438D02*
X125642104Y-85559105D01*
X125904009Y-85630533D02*
X125904009Y-85392438D01*
X125904009Y-85392438D02*
X125404009Y-85392438D01*
X125404009Y-85392438D02*
X125404009Y-85630533D01*
X125904009Y-85844819D02*
X125404009Y-85844819D01*
X125404009Y-85844819D02*
X125404009Y-85963867D01*
X125404009Y-85963867D02*
X125427819Y-86035295D01*
X125427819Y-86035295D02*
X125475438Y-86082914D01*
X125475438Y-86082914D02*
X125523057Y-86106724D01*
X125523057Y-86106724D02*
X125618295Y-86130533D01*
X125618295Y-86130533D02*
X125689723Y-86130533D01*
X125689723Y-86130533D02*
X125784961Y-86106724D01*
X125784961Y-86106724D02*
X125832580Y-86082914D01*
X125832580Y-86082914D02*
X125880200Y-86035295D01*
X125880200Y-86035295D02*
X125904009Y-85963867D01*
X125904009Y-85963867D02*
X125904009Y-85844819D01*
X132685809Y-89542181D02*
X132685809Y-89256467D01*
X132685809Y-89399324D02*
X132185809Y-89399324D01*
X132185809Y-89399324D02*
X132257238Y-89351705D01*
X132257238Y-89351705D02*
X132304857Y-89304086D01*
X132304857Y-89304086D02*
X132328666Y-89256467D01*
X132685809Y-89756466D02*
X132185809Y-89756466D01*
X132495333Y-89804085D02*
X132685809Y-89946942D01*
X132352476Y-89946942D02*
X132542952Y-89756466D01*
X132185809Y-90399323D02*
X132185809Y-90161228D01*
X132185809Y-90161228D02*
X132423904Y-90137419D01*
X132423904Y-90137419D02*
X132400095Y-90161228D01*
X132400095Y-90161228D02*
X132376285Y-90208847D01*
X132376285Y-90208847D02*
X132376285Y-90327895D01*
X132376285Y-90327895D02*
X132400095Y-90375514D01*
X132400095Y-90375514D02*
X132423904Y-90399323D01*
X132423904Y-90399323D02*
X132471523Y-90423133D01*
X132471523Y-90423133D02*
X132590571Y-90423133D01*
X132590571Y-90423133D02*
X132638190Y-90399323D01*
X132638190Y-90399323D02*
X132662000Y-90375514D01*
X132662000Y-90375514D02*
X132685809Y-90327895D01*
X132685809Y-90327895D02*
X132685809Y-90208847D01*
X132685809Y-90208847D02*
X132662000Y-90161228D01*
X132662000Y-90161228D02*
X132638190Y-90137419D01*
D12*
X144209419Y-86814066D02*
X144923704Y-86814066D01*
X144923704Y-86814066D02*
X145066561Y-86766447D01*
X145066561Y-86766447D02*
X145161800Y-86671209D01*
X145161800Y-86671209D02*
X145209419Y-86528352D01*
X145209419Y-86528352D02*
X145209419Y-86433114D01*
X144209419Y-87195019D02*
X144209419Y-87814066D01*
X144209419Y-87814066D02*
X144590371Y-87480733D01*
X144590371Y-87480733D02*
X144590371Y-87623590D01*
X144590371Y-87623590D02*
X144637990Y-87718828D01*
X144637990Y-87718828D02*
X144685609Y-87766447D01*
X144685609Y-87766447D02*
X144780847Y-87814066D01*
X144780847Y-87814066D02*
X145018942Y-87814066D01*
X145018942Y-87814066D02*
X145114180Y-87766447D01*
X145114180Y-87766447D02*
X145161800Y-87718828D01*
X145161800Y-87718828D02*
X145209419Y-87623590D01*
X145209419Y-87623590D02*
X145209419Y-87337876D01*
X145209419Y-87337876D02*
X145161800Y-87242638D01*
X145161800Y-87242638D02*
X145114180Y-87195019D01*
D11*
X145979028Y-66663609D02*
X146217123Y-66663609D01*
X146217123Y-66663609D02*
X146217123Y-66163609D01*
X145812361Y-66401704D02*
X145645694Y-66401704D01*
X145574266Y-66663609D02*
X145812361Y-66663609D01*
X145812361Y-66663609D02*
X145812361Y-66163609D01*
X145812361Y-66163609D02*
X145574266Y-66163609D01*
X145359980Y-66663609D02*
X145359980Y-66163609D01*
X145359980Y-66163609D02*
X145240932Y-66163609D01*
X145240932Y-66163609D02*
X145169504Y-66187419D01*
X145169504Y-66187419D02*
X145121885Y-66235038D01*
X145121885Y-66235038D02*
X145098075Y-66282657D01*
X145098075Y-66282657D02*
X145074266Y-66377895D01*
X145074266Y-66377895D02*
X145074266Y-66449323D01*
X145074266Y-66449323D02*
X145098075Y-66544561D01*
X145098075Y-66544561D02*
X145121885Y-66592180D01*
X145121885Y-66592180D02*
X145169504Y-66639800D01*
X145169504Y-66639800D02*
X145240932Y-66663609D01*
X145240932Y-66663609D02*
X145359980Y-66663609D01*
X137034552Y-74071363D02*
X137034552Y-74309458D01*
X137177409Y-74023744D02*
X136677409Y-74190410D01*
X136677409Y-74190410D02*
X137177409Y-74357077D01*
X137177409Y-74523743D02*
X136677409Y-74523743D01*
X136677409Y-74523743D02*
X137034552Y-74690410D01*
X137034552Y-74690410D02*
X136677409Y-74857076D01*
X136677409Y-74857076D02*
X137177409Y-74857076D01*
X137153600Y-75071363D02*
X137177409Y-75142791D01*
X137177409Y-75142791D02*
X137177409Y-75261839D01*
X137177409Y-75261839D02*
X137153600Y-75309458D01*
X137153600Y-75309458D02*
X137129790Y-75333267D01*
X137129790Y-75333267D02*
X137082171Y-75357077D01*
X137082171Y-75357077D02*
X137034552Y-75357077D01*
X137034552Y-75357077D02*
X136986933Y-75333267D01*
X136986933Y-75333267D02*
X136963123Y-75309458D01*
X136963123Y-75309458D02*
X136939314Y-75261839D01*
X136939314Y-75261839D02*
X136915504Y-75166601D01*
X136915504Y-75166601D02*
X136891695Y-75118982D01*
X136891695Y-75118982D02*
X136867885Y-75095172D01*
X136867885Y-75095172D02*
X136820266Y-75071363D01*
X136820266Y-75071363D02*
X136772647Y-75071363D01*
X136772647Y-75071363D02*
X136725028Y-75095172D01*
X136725028Y-75095172D02*
X136701219Y-75118982D01*
X136701219Y-75118982D02*
X136677409Y-75166601D01*
X136677409Y-75166601D02*
X136677409Y-75285648D01*
X136677409Y-75285648D02*
X136701219Y-75357077D01*
X137177409Y-75833267D02*
X137177409Y-75547553D01*
X137177409Y-75690410D02*
X136677409Y-75690410D01*
X136677409Y-75690410D02*
X136748838Y-75642791D01*
X136748838Y-75642791D02*
X136796457Y-75595172D01*
X136796457Y-75595172D02*
X136820266Y-75547553D01*
X137177409Y-76309457D02*
X137177409Y-76023743D01*
X137177409Y-76166600D02*
X136677409Y-76166600D01*
X136677409Y-76166600D02*
X136748838Y-76118981D01*
X136748838Y-76118981D02*
X136796457Y-76071362D01*
X136796457Y-76071362D02*
X136820266Y-76023743D01*
X137177409Y-76785647D02*
X137177409Y-76499933D01*
X137177409Y-76642790D02*
X136677409Y-76642790D01*
X136677409Y-76642790D02*
X136748838Y-76595171D01*
X136748838Y-76595171D02*
X136796457Y-76547552D01*
X136796457Y-76547552D02*
X136820266Y-76499933D01*
X136677409Y-76952313D02*
X136677409Y-77285646D01*
X136677409Y-77285646D02*
X137177409Y-77071361D01*
X145690609Y-72142552D02*
X145190609Y-72142552D01*
X145190609Y-72142552D02*
X145190609Y-72261600D01*
X145190609Y-72261600D02*
X145214419Y-72333028D01*
X145214419Y-72333028D02*
X145262038Y-72380647D01*
X145262038Y-72380647D02*
X145309657Y-72404457D01*
X145309657Y-72404457D02*
X145404895Y-72428266D01*
X145404895Y-72428266D02*
X145476323Y-72428266D01*
X145476323Y-72428266D02*
X145571561Y-72404457D01*
X145571561Y-72404457D02*
X145619180Y-72380647D01*
X145619180Y-72380647D02*
X145666800Y-72333028D01*
X145666800Y-72333028D02*
X145690609Y-72261600D01*
X145690609Y-72261600D02*
X145690609Y-72142552D01*
X145666800Y-72833028D02*
X145690609Y-72785409D01*
X145690609Y-72785409D02*
X145690609Y-72690171D01*
X145690609Y-72690171D02*
X145666800Y-72642552D01*
X145666800Y-72642552D02*
X145619180Y-72618743D01*
X145619180Y-72618743D02*
X145428704Y-72618743D01*
X145428704Y-72618743D02*
X145381085Y-72642552D01*
X145381085Y-72642552D02*
X145357276Y-72690171D01*
X145357276Y-72690171D02*
X145357276Y-72785409D01*
X145357276Y-72785409D02*
X145381085Y-72833028D01*
X145381085Y-72833028D02*
X145428704Y-72856838D01*
X145428704Y-72856838D02*
X145476323Y-72856838D01*
X145476323Y-72856838D02*
X145523942Y-72618743D01*
X145690609Y-73071123D02*
X145190609Y-73071123D01*
X145381085Y-73071123D02*
X145357276Y-73118742D01*
X145357276Y-73118742D02*
X145357276Y-73213980D01*
X145357276Y-73213980D02*
X145381085Y-73261599D01*
X145381085Y-73261599D02*
X145404895Y-73285409D01*
X145404895Y-73285409D02*
X145452514Y-73309218D01*
X145452514Y-73309218D02*
X145595371Y-73309218D01*
X145595371Y-73309218D02*
X145642990Y-73285409D01*
X145642990Y-73285409D02*
X145666800Y-73261599D01*
X145666800Y-73261599D02*
X145690609Y-73213980D01*
X145690609Y-73213980D02*
X145690609Y-73118742D01*
X145690609Y-73118742D02*
X145666800Y-73071123D01*
X145357276Y-73737790D02*
X145690609Y-73737790D01*
X145357276Y-73523504D02*
X145619180Y-73523504D01*
X145619180Y-73523504D02*
X145666800Y-73547314D01*
X145666800Y-73547314D02*
X145690609Y-73594933D01*
X145690609Y-73594933D02*
X145690609Y-73666361D01*
X145690609Y-73666361D02*
X145666800Y-73713980D01*
X145666800Y-73713980D02*
X145642990Y-73737790D01*
X145357276Y-74190171D02*
X145762038Y-74190171D01*
X145762038Y-74190171D02*
X145809657Y-74166361D01*
X145809657Y-74166361D02*
X145833466Y-74142552D01*
X145833466Y-74142552D02*
X145857276Y-74094933D01*
X145857276Y-74094933D02*
X145857276Y-74023504D01*
X145857276Y-74023504D02*
X145833466Y-73975885D01*
X145666800Y-74190171D02*
X145690609Y-74142552D01*
X145690609Y-74142552D02*
X145690609Y-74047314D01*
X145690609Y-74047314D02*
X145666800Y-73999695D01*
X145666800Y-73999695D02*
X145642990Y-73975885D01*
X145642990Y-73975885D02*
X145595371Y-73952076D01*
X145595371Y-73952076D02*
X145452514Y-73952076D01*
X145452514Y-73952076D02*
X145404895Y-73975885D01*
X145404895Y-73975885D02*
X145381085Y-73999695D01*
X145381085Y-73999695D02*
X145357276Y-74047314D01*
X145357276Y-74047314D02*
X145357276Y-74142552D01*
X145357276Y-74142552D02*
X145381085Y-74190171D01*
X145357276Y-74642552D02*
X145762038Y-74642552D01*
X145762038Y-74642552D02*
X145809657Y-74618742D01*
X145809657Y-74618742D02*
X145833466Y-74594933D01*
X145833466Y-74594933D02*
X145857276Y-74547314D01*
X145857276Y-74547314D02*
X145857276Y-74475885D01*
X145857276Y-74475885D02*
X145833466Y-74428266D01*
X145666800Y-74642552D02*
X145690609Y-74594933D01*
X145690609Y-74594933D02*
X145690609Y-74499695D01*
X145690609Y-74499695D02*
X145666800Y-74452076D01*
X145666800Y-74452076D02*
X145642990Y-74428266D01*
X145642990Y-74428266D02*
X145595371Y-74404457D01*
X145595371Y-74404457D02*
X145452514Y-74404457D01*
X145452514Y-74404457D02*
X145404895Y-74428266D01*
X145404895Y-74428266D02*
X145381085Y-74452076D01*
X145381085Y-74452076D02*
X145357276Y-74499695D01*
X145357276Y-74499695D02*
X145357276Y-74594933D01*
X145357276Y-74594933D02*
X145381085Y-74642552D01*
X145666800Y-75071123D02*
X145690609Y-75023504D01*
X145690609Y-75023504D02*
X145690609Y-74928266D01*
X145690609Y-74928266D02*
X145666800Y-74880647D01*
X145666800Y-74880647D02*
X145619180Y-74856838D01*
X145619180Y-74856838D02*
X145428704Y-74856838D01*
X145428704Y-74856838D02*
X145381085Y-74880647D01*
X145381085Y-74880647D02*
X145357276Y-74928266D01*
X145357276Y-74928266D02*
X145357276Y-75023504D01*
X145357276Y-75023504D02*
X145381085Y-75071123D01*
X145381085Y-75071123D02*
X145428704Y-75094933D01*
X145428704Y-75094933D02*
X145476323Y-75094933D01*
X145476323Y-75094933D02*
X145523942Y-74856838D01*
X145690609Y-75309218D02*
X145357276Y-75309218D01*
X145452514Y-75309218D02*
X145404895Y-75333028D01*
X145404895Y-75333028D02*
X145381085Y-75356837D01*
X145381085Y-75356837D02*
X145357276Y-75404456D01*
X145357276Y-75404456D02*
X145357276Y-75452075D01*
X131586338Y-71473809D02*
X131491100Y-71473809D01*
X131491100Y-71473809D02*
X131443481Y-71497619D01*
X131443481Y-71497619D02*
X131395862Y-71545238D01*
X131395862Y-71545238D02*
X131372052Y-71640476D01*
X131372052Y-71640476D02*
X131372052Y-71807142D01*
X131372052Y-71807142D02*
X131395862Y-71902380D01*
X131395862Y-71902380D02*
X131443481Y-71950000D01*
X131443481Y-71950000D02*
X131491100Y-71973809D01*
X131491100Y-71973809D02*
X131586338Y-71973809D01*
X131586338Y-71973809D02*
X131633957Y-71950000D01*
X131633957Y-71950000D02*
X131681576Y-71902380D01*
X131681576Y-71902380D02*
X131705385Y-71807142D01*
X131705385Y-71807142D02*
X131705385Y-71640476D01*
X131705385Y-71640476D02*
X131681576Y-71545238D01*
X131681576Y-71545238D02*
X131633957Y-71497619D01*
X131633957Y-71497619D02*
X131586338Y-71473809D01*
X131181575Y-71950000D02*
X131133956Y-71973809D01*
X131133956Y-71973809D02*
X131038718Y-71973809D01*
X131038718Y-71973809D02*
X130991099Y-71950000D01*
X130991099Y-71950000D02*
X130967290Y-71902380D01*
X130967290Y-71902380D02*
X130967290Y-71878571D01*
X130967290Y-71878571D02*
X130991099Y-71830952D01*
X130991099Y-71830952D02*
X131038718Y-71807142D01*
X131038718Y-71807142D02*
X131110147Y-71807142D01*
X131110147Y-71807142D02*
X131157766Y-71783333D01*
X131157766Y-71783333D02*
X131181575Y-71735714D01*
X131181575Y-71735714D02*
X131181575Y-71711904D01*
X131181575Y-71711904D02*
X131157766Y-71664285D01*
X131157766Y-71664285D02*
X131110147Y-71640476D01*
X131110147Y-71640476D02*
X131038718Y-71640476D01*
X131038718Y-71640476D02*
X130991099Y-71664285D01*
X130538718Y-71950000D02*
X130586337Y-71973809D01*
X130586337Y-71973809D02*
X130681575Y-71973809D01*
X130681575Y-71973809D02*
X130729194Y-71950000D01*
X130729194Y-71950000D02*
X130753004Y-71926190D01*
X130753004Y-71926190D02*
X130776813Y-71878571D01*
X130776813Y-71878571D02*
X130776813Y-71735714D01*
X130776813Y-71735714D02*
X130753004Y-71688095D01*
X130753004Y-71688095D02*
X130729194Y-71664285D01*
X130729194Y-71664285D02*
X130681575Y-71640476D01*
X130681575Y-71640476D02*
X130586337Y-71640476D01*
X130586337Y-71640476D02*
X130538718Y-71664285D01*
X130324433Y-71973809D02*
X130324433Y-71640476D01*
X130324433Y-71473809D02*
X130348242Y-71497619D01*
X130348242Y-71497619D02*
X130324433Y-71521428D01*
X130324433Y-71521428D02*
X130300623Y-71497619D01*
X130300623Y-71497619D02*
X130324433Y-71473809D01*
X130324433Y-71473809D02*
X130324433Y-71521428D01*
X130014909Y-71973809D02*
X130062528Y-71950000D01*
X130062528Y-71950000D02*
X130086338Y-71902380D01*
X130086338Y-71902380D02*
X130086338Y-71473809D01*
X129753004Y-71973809D02*
X129800623Y-71950000D01*
X129800623Y-71950000D02*
X129824433Y-71902380D01*
X129824433Y-71902380D02*
X129824433Y-71473809D01*
X129348242Y-71973809D02*
X129348242Y-71711904D01*
X129348242Y-71711904D02*
X129372052Y-71664285D01*
X129372052Y-71664285D02*
X129419671Y-71640476D01*
X129419671Y-71640476D02*
X129514909Y-71640476D01*
X129514909Y-71640476D02*
X129562528Y-71664285D01*
X129348242Y-71950000D02*
X129395861Y-71973809D01*
X129395861Y-71973809D02*
X129514909Y-71973809D01*
X129514909Y-71973809D02*
X129562528Y-71950000D01*
X129562528Y-71950000D02*
X129586337Y-71902380D01*
X129586337Y-71902380D02*
X129586337Y-71854761D01*
X129586337Y-71854761D02*
X129562528Y-71807142D01*
X129562528Y-71807142D02*
X129514909Y-71783333D01*
X129514909Y-71783333D02*
X129395861Y-71783333D01*
X129395861Y-71783333D02*
X129348242Y-71759523D01*
X129181575Y-71640476D02*
X128991099Y-71640476D01*
X129110147Y-71473809D02*
X129110147Y-71902380D01*
X129110147Y-71902380D02*
X129086337Y-71950000D01*
X129086337Y-71950000D02*
X129038718Y-71973809D01*
X129038718Y-71973809D02*
X128991099Y-71973809D01*
X128753004Y-71973809D02*
X128800623Y-71950000D01*
X128800623Y-71950000D02*
X128824433Y-71926190D01*
X128824433Y-71926190D02*
X128848242Y-71878571D01*
X128848242Y-71878571D02*
X128848242Y-71735714D01*
X128848242Y-71735714D02*
X128824433Y-71688095D01*
X128824433Y-71688095D02*
X128800623Y-71664285D01*
X128800623Y-71664285D02*
X128753004Y-71640476D01*
X128753004Y-71640476D02*
X128681576Y-71640476D01*
X128681576Y-71640476D02*
X128633957Y-71664285D01*
X128633957Y-71664285D02*
X128610147Y-71688095D01*
X128610147Y-71688095D02*
X128586338Y-71735714D01*
X128586338Y-71735714D02*
X128586338Y-71878571D01*
X128586338Y-71878571D02*
X128610147Y-71926190D01*
X128610147Y-71926190D02*
X128633957Y-71950000D01*
X128633957Y-71950000D02*
X128681576Y-71973809D01*
X128681576Y-71973809D02*
X128753004Y-71973809D01*
X128372052Y-71973809D02*
X128372052Y-71640476D01*
X128372052Y-71735714D02*
X128348242Y-71688095D01*
X128348242Y-71688095D02*
X128324433Y-71664285D01*
X128324433Y-71664285D02*
X128276814Y-71640476D01*
X128276814Y-71640476D02*
X128229195Y-71640476D01*
X126031009Y-89094476D02*
X126031009Y-88808762D01*
X126031009Y-88951619D02*
X125531009Y-88951619D01*
X125531009Y-88951619D02*
X125602438Y-88904000D01*
X125602438Y-88904000D02*
X125650057Y-88856381D01*
X125650057Y-88856381D02*
X125673866Y-88808762D01*
X126031009Y-89308761D02*
X125531009Y-89308761D01*
X125840533Y-89356380D02*
X126031009Y-89499237D01*
X125697676Y-89499237D02*
X125888152Y-89308761D01*
D12*
X132283104Y-78626619D02*
X132283104Y-79436142D01*
X132283104Y-79436142D02*
X132235485Y-79531380D01*
X132235485Y-79531380D02*
X132187866Y-79579000D01*
X132187866Y-79579000D02*
X132092628Y-79626619D01*
X132092628Y-79626619D02*
X131902152Y-79626619D01*
X131902152Y-79626619D02*
X131806914Y-79579000D01*
X131806914Y-79579000D02*
X131759295Y-79531380D01*
X131759295Y-79531380D02*
X131711676Y-79436142D01*
X131711676Y-79436142D02*
X131711676Y-78626619D01*
X130711676Y-79626619D02*
X131283104Y-79626619D01*
X130997390Y-79626619D02*
X130997390Y-78626619D01*
X130997390Y-78626619D02*
X131092628Y-78769476D01*
X131092628Y-78769476D02*
X131187866Y-78864714D01*
X131187866Y-78864714D02*
X131283104Y-78912333D01*
D11*
X143061523Y-67103009D02*
X143347237Y-67103009D01*
X143204380Y-67103009D02*
X143204380Y-66603009D01*
X143204380Y-66603009D02*
X143251999Y-66674438D01*
X143251999Y-66674438D02*
X143299618Y-66722057D01*
X143299618Y-66722057D02*
X143347237Y-66745866D01*
X142847238Y-67103009D02*
X142847238Y-66603009D01*
X142799619Y-66912533D02*
X142656762Y-67103009D01*
X142656762Y-66769676D02*
X142847238Y-66960152D01*
X138397418Y-89734409D02*
X138683132Y-89734409D01*
X138540275Y-89734409D02*
X138540275Y-89234409D01*
X138540275Y-89234409D02*
X138587894Y-89305838D01*
X138587894Y-89305838D02*
X138635513Y-89353457D01*
X138635513Y-89353457D02*
X138683132Y-89377266D01*
X138183133Y-89734409D02*
X138183133Y-89234409D01*
X138135514Y-89543933D02*
X137992657Y-89734409D01*
X137992657Y-89401076D02*
X138183133Y-89591552D01*
X137540276Y-89234409D02*
X137778371Y-89234409D01*
X137778371Y-89234409D02*
X137802180Y-89472504D01*
X137802180Y-89472504D02*
X137778371Y-89448695D01*
X137778371Y-89448695D02*
X137730752Y-89424885D01*
X137730752Y-89424885D02*
X137611704Y-89424885D01*
X137611704Y-89424885D02*
X137564085Y-89448695D01*
X137564085Y-89448695D02*
X137540276Y-89472504D01*
X137540276Y-89472504D02*
X137516466Y-89520123D01*
X137516466Y-89520123D02*
X137516466Y-89639171D01*
X137516466Y-89639171D02*
X137540276Y-89686790D01*
X137540276Y-89686790D02*
X137564085Y-89710600D01*
X137564085Y-89710600D02*
X137611704Y-89734409D01*
X137611704Y-89734409D02*
X137730752Y-89734409D01*
X137730752Y-89734409D02*
X137778371Y-89710600D01*
X137778371Y-89710600D02*
X137802180Y-89686790D01*
D13*
%TO.C,J3*%
X144629200Y-91817400D02*
X142929200Y-91817400D01*
X144629200Y-82477400D02*
X142929200Y-82477400D01*
%TO.C,LED*%
X147317600Y-68603800D02*
X144857600Y-68603800D01*
X147317600Y-67133800D02*
X147317600Y-68603800D01*
X144857600Y-67133800D02*
X147317600Y-67133800D01*
%TO.C,D1*%
X126290400Y-88068900D02*
X126290400Y-85608900D01*
X127760400Y-85608900D02*
X127760400Y-88068900D01*
X127760400Y-88068900D02*
X126290400Y-88068900D01*
%TO.C,AMS1117*%
X138042600Y-73816600D02*
X138042600Y-77576600D01*
X138042600Y-77576600D02*
X139302600Y-77576600D01*
X144862600Y-73816600D02*
X144862600Y-77576600D01*
X144862600Y-77576600D02*
X143602600Y-77576600D01*
X138142600Y-72536600D02*
X137812600Y-72776600D01*
X137812600Y-72296600D01*
X138142600Y-72536600D01*
G36*
X138142600Y-72536600D02*
G01*
X137812600Y-72776600D01*
X137812600Y-72296600D01*
X138142600Y-72536600D01*
G37*
%TO.C,R7*%
X133132300Y-90416626D02*
X133132300Y-90926074D01*
X134177300Y-90416626D02*
X134177300Y-90926074D01*
%TO.C,J1*%
X119955800Y-82059000D02*
X122715800Y-82059000D01*
X119955800Y-89789000D02*
X119955800Y-82059000D01*
X119955800Y-89789000D02*
X122715800Y-89789000D01*
X119955800Y-91059000D02*
X119955800Y-92439000D01*
X119955800Y-92439000D02*
X121335800Y-92439000D01*
X122715800Y-89789000D02*
X122715800Y-82059000D01*
%TO.C,J2*%
X146143200Y-73253600D02*
X146143200Y-80983600D01*
X148903200Y-70603600D02*
X147523200Y-70603600D01*
X148903200Y-71983600D02*
X148903200Y-70603600D01*
X148903200Y-73253600D02*
X146143200Y-73253600D01*
X148903200Y-73253600D02*
X148903200Y-80983600D01*
X148903200Y-80983600D02*
X146143200Y-80983600D01*
%TO.C,Oscillator*%
X119856100Y-65589000D02*
X135951100Y-65589000D01*
X119856100Y-70809000D02*
X119856100Y-65589000D01*
X135951100Y-70809000D02*
X119856100Y-70809000D01*
%TO.C,1k*%
X126502900Y-90473624D02*
X126502900Y-89964176D01*
X127547900Y-90473624D02*
X127547900Y-89964176D01*
%TO.C,U1*%
X127911200Y-75612600D02*
X127911200Y-76062600D01*
X127911200Y-82382600D02*
X127911200Y-82832600D01*
X127911200Y-82832600D02*
X128361200Y-82832600D01*
X128361200Y-75612600D02*
X127911200Y-75612600D01*
X134681200Y-82832600D02*
X135131200Y-82832600D01*
X135131200Y-75612600D02*
X134681200Y-75612600D01*
X135131200Y-76062600D02*
X135131200Y-75612600D01*
X135131200Y-82832600D02*
X135131200Y-82382600D01*
X127611200Y-82852600D02*
X126931200Y-82852600D01*
X127271200Y-82382600D01*
X127611200Y-82852600D01*
G36*
X127611200Y-82852600D02*
G01*
X126931200Y-82852600D01*
X127271200Y-82382600D01*
X127611200Y-82852600D01*
G37*
%TO.C,D2*%
X132919800Y-85201350D02*
X134389800Y-85201350D01*
X132919800Y-87661350D02*
X132919800Y-85201350D01*
X134389800Y-85201350D02*
X134389800Y-87661350D01*
%TO.C,1k*%
X142217224Y-67574900D02*
X141707776Y-67574900D01*
X142217224Y-68619900D02*
X141707776Y-68619900D01*
%TO.C,1k5*%
X137541724Y-87132900D02*
X137032276Y-87132900D01*
X137541724Y-88177900D02*
X137032276Y-88177900D01*
%TD*%
M02*
