%TF.GenerationSoftware,KiCad,Pcbnew,9.0.7*%
%TF.CreationDate,2026-02-19T00:10:07+05:30*%
%TF.ProjectId,breakout_board,62726561-6b6f-4757-945f-626f6172642e,rev?*%
%TF.SameCoordinates,Original*%
%TF.FileFunction,Paste,Bot*%
%TF.FilePolarity,Positive*%
%FSLAX46Y46*%
G04 Gerber Fmt 4.6, Leading zero omitted, Abs format (unit mm)*
G04 Created by KiCad (PCBNEW 9.0.7) date 2026-02-19 00:10:07*
%MOMM*%
%LPD*%
G01*
G04 APERTURE LIST*
G04 Aperture macros list*
%AMRoundRect*
0 Rectangle with rounded corners*
0 $1 Rounding radius*
0 $2 $3 $4 $5 $6 $7 $8 $9 X,Y pos of 4 corners*
0 Add a 4 corners polygon primitive as box body*
4,1,4,$2,$3,$4,$5,$6,$7,$8,$9,$2,$3,0*
0 Add four circle primitives for the rounded corners*
1,1,$1+$1,$2,$3*
1,1,$1+$1,$4,$5*
1,1,$1+$1,$6,$7*
1,1,$1+$1,$8,$9*
0 Add four rect primitives between the rounded corners*
20,1,$1+$1,$2,$3,$4,$5,0*
20,1,$1+$1,$4,$5,$6,$7,0*
20,1,$1+$1,$6,$7,$8,$9,0*
20,1,$1+$1,$8,$9,$2,$3,0*%
G04 Aperture macros list end*
%ADD10RoundRect,0.237500X0.287500X0.237500X-0.287500X0.237500X-0.287500X-0.237500X0.287500X-0.237500X0*%
%ADD11RoundRect,0.237500X0.237500X-0.287500X0.237500X0.287500X-0.237500X0.287500X-0.237500X-0.287500X0*%
%ADD12RoundRect,0.375000X-0.375000X0.625000X-0.375000X-0.625000X0.375000X-0.625000X0.375000X0.625000X0*%
%ADD13RoundRect,0.500000X-1.400000X0.500000X-1.400000X-0.500000X1.400000X-0.500000X1.400000X0.500000X0*%
%ADD14RoundRect,0.237500X-0.237500X0.250000X-0.237500X-0.250000X0.237500X-0.250000X0.237500X0.250000X0*%
%ADD15RoundRect,0.250000X-3.687500X-0.750000X3.687500X-0.750000X3.687500X0.750000X-3.687500X0.750000X0*%
%ADD16RoundRect,0.237500X0.237500X-0.250000X0.237500X0.250000X-0.237500X0.250000X-0.237500X-0.250000X0*%
%ADD17RoundRect,0.075000X-0.662500X-0.075000X0.662500X-0.075000X0.662500X0.075000X-0.662500X0.075000X0*%
%ADD18RoundRect,0.075000X-0.075000X-0.662500X0.075000X-0.662500X0.075000X0.662500X-0.075000X0.662500X0*%
%ADD19RoundRect,0.237500X-0.237500X0.287500X-0.237500X-0.287500X0.237500X-0.287500X0.237500X0.287500X0*%
%ADD20RoundRect,0.237500X0.250000X0.237500X-0.250000X0.237500X-0.250000X-0.237500X0.250000X-0.237500X0*%
%ADD21RoundRect,0.150000X-0.425000X0.150000X-0.425000X-0.150000X0.425000X-0.150000X0.425000X0.150000X0*%
%ADD22RoundRect,0.075000X-0.500000X0.075000X-0.500000X-0.075000X0.500000X-0.075000X0.500000X0.075000X0*%
%ADD23O,1.800000X1.000000*%
%ADD24O,2.100000X1.000000*%
G04 APERTURE END LIST*
D10*
%TO.C,D3*%
X146602500Y-68087400D03*
X144852500Y-68087400D03*
%TD*%
D11*
%TO.C,D1*%
X127025400Y-87283900D03*
X127025400Y-85533900D03*
%TD*%
D12*
%TO.C,U2*%
X139152600Y-72516600D03*
X141452600Y-72516600D03*
D13*
X141452600Y-78816600D03*
D12*
X143752600Y-72516600D03*
%TD*%
D14*
%TO.C,R7*%
X133654800Y-89758850D03*
X133654800Y-91583850D03*
%TD*%
D15*
%TO.C,Y2*%
X124053600Y-68199000D03*
X135928600Y-68199000D03*
%TD*%
D16*
%TO.C,R6*%
X127025400Y-91131400D03*
X127025400Y-89306400D03*
%TD*%
D17*
%TO.C,U1*%
X127358700Y-81972600D03*
X127358700Y-81472600D03*
X127358700Y-80972600D03*
X127358700Y-80472600D03*
X127358700Y-79972600D03*
X127358700Y-79472600D03*
X127358700Y-78972600D03*
X127358700Y-78472600D03*
X127358700Y-77972600D03*
X127358700Y-77472600D03*
X127358700Y-76972600D03*
X127358700Y-76472600D03*
D18*
X128771200Y-75060100D03*
X129271200Y-75060100D03*
X129771200Y-75060100D03*
X130271200Y-75060100D03*
X130771200Y-75060100D03*
X131271200Y-75060100D03*
X131771200Y-75060100D03*
X132271200Y-75060100D03*
X132771200Y-75060100D03*
X133271200Y-75060100D03*
X133771200Y-75060100D03*
X134271200Y-75060100D03*
D17*
X135683700Y-76472600D03*
X135683700Y-76972600D03*
X135683700Y-77472600D03*
X135683700Y-77972600D03*
X135683700Y-78472600D03*
X135683700Y-78972600D03*
X135683700Y-79472600D03*
X135683700Y-79972600D03*
X135683700Y-80472600D03*
X135683700Y-80972600D03*
X135683700Y-81472600D03*
X135683700Y-81972600D03*
D18*
X134271200Y-83385100D03*
X133771200Y-83385100D03*
X133271200Y-83385100D03*
X132771200Y-83385100D03*
X132271200Y-83385100D03*
X131771200Y-83385100D03*
X131271200Y-83385100D03*
X130771200Y-83385100D03*
X130271200Y-83385100D03*
X129771200Y-83385100D03*
X129271200Y-83385100D03*
X128771200Y-83385100D03*
%TD*%
D19*
%TO.C,D2*%
X133654800Y-85986350D03*
X133654800Y-87736350D03*
%TD*%
D20*
%TO.C,R8*%
X142875000Y-68097400D03*
X141050000Y-68097400D03*
%TD*%
%TO.C,R5*%
X138199500Y-87655400D03*
X136374500Y-87655400D03*
%TD*%
D21*
%TO.C,J3*%
X141049200Y-83947400D03*
X141049200Y-84747400D03*
D22*
X141049200Y-85897400D03*
X141049200Y-86897400D03*
X141049200Y-87397400D03*
X141049200Y-88397400D03*
D21*
X141049200Y-89547400D03*
X141049200Y-90347400D03*
X141049200Y-90347400D03*
X141049200Y-89547400D03*
D22*
X141049200Y-88897400D03*
X141049200Y-87897400D03*
X141049200Y-86397400D03*
X141049200Y-85397400D03*
D21*
X141049200Y-84747400D03*
X141049200Y-83947400D03*
D23*
X145804200Y-82827400D03*
D24*
X141624200Y-82827400D03*
D23*
X145804200Y-91467400D03*
D24*
X141624200Y-91467400D03*
%TD*%
M02*
