%TF.GenerationSoftware,KiCad,Pcbnew,9.0.7*%
%TF.CreationDate,2026-02-20T19:59:31+05:30*%
%TF.ProjectId,breakout_board,62726561-6b6f-4757-945f-626f6172642e,rev?*%
%TF.SameCoordinates,Original*%
%TF.FileFunction,Copper,L1,Top*%
%TF.FilePolarity,Positive*%
%FSLAX46Y46*%
G04 Gerber Fmt 4.6, Leading zero omitted, Abs format (unit mm)*
G04 Created by KiCad (PCBNEW 9.0.7) date 2026-02-20 19:59:31*
%MOMM*%
%LPD*%
G01*
G04 APERTURE LIST*
G04 Aperture macros list*
%AMRoundRect*
0 Rectangle with rounded corners*
0 $1 Rounding radius*
0 $2 $3 $4 $5 $6 $7 $8 $9 X,Y pos of 4 corners*
0 Add a 4 corners polygon primitive as box body*
4,1,4,$2,$3,$4,$5,$6,$7,$8,$9,$2,$3,0*
0 Add four circle primitives for the rounded corners*
1,1,$1+$1,$2,$3*
1,1,$1+$1,$4,$5*
1,1,$1+$1,$6,$7*
1,1,$1+$1,$8,$9*
0 Add four rect primitives between the rounded corners*
20,1,$1+$1,$2,$3,$4,$5,0*
20,1,$1+$1,$4,$5,$6,$7,0*
20,1,$1+$1,$6,$7,$8,$9,0*
20,1,$1+$1,$8,$9,$2,$3,0*%
G04 Aperture macros list end*
%TA.AperFunction,SMDPad,CuDef*%
%ADD10RoundRect,0.237500X0.300000X0.237500X-0.300000X0.237500X-0.300000X-0.237500X0.300000X-0.237500X0*%
%TD*%
%TA.AperFunction,SMDPad,CuDef*%
%ADD11R,1.500000X0.650000*%
%TD*%
%TA.AperFunction,SMDPad,CuDef*%
%ADD12RoundRect,0.237500X-0.237500X0.300000X-0.237500X-0.300000X0.237500X-0.300000X0.237500X0.300000X0*%
%TD*%
%TA.AperFunction,SMDPad,CuDef*%
%ADD13RoundRect,0.237500X0.237500X-0.300000X0.237500X0.300000X-0.237500X0.300000X-0.237500X-0.300000X0*%
%TD*%
%TA.AperFunction,SMDPad,CuDef*%
%ADD14RoundRect,0.237500X-0.300000X-0.237500X0.300000X-0.237500X0.300000X0.237500X-0.300000X0.237500X0*%
%TD*%
%TA.AperFunction,SMDPad,CuDef*%
%ADD15RoundRect,0.237500X-0.237500X0.250000X-0.237500X-0.250000X0.237500X-0.250000X0.237500X0.250000X0*%
%TD*%
%TA.AperFunction,SMDPad,CuDef*%
%ADD16RoundRect,0.237500X0.250000X0.237500X-0.250000X0.237500X-0.250000X-0.237500X0.250000X-0.237500X0*%
%TD*%
%TA.AperFunction,SMDPad,CuDef*%
%ADD17RoundRect,0.237500X-0.250000X-0.237500X0.250000X-0.237500X0.250000X0.237500X-0.250000X0.237500X0*%
%TD*%
%TA.AperFunction,ComponentPad*%
%ADD18R,1.700000X1.700000*%
%TD*%
%TA.AperFunction,ComponentPad*%
%ADD19C,1.700000*%
%TD*%
%TA.AperFunction,HeatsinkPad*%
%ADD20O,1.800000X1.000000*%
%TD*%
%TA.AperFunction,HeatsinkPad*%
%ADD21O,2.100000X1.000000*%
%TD*%
%TA.AperFunction,ViaPad*%
%ADD22C,0.600000*%
%TD*%
%TA.AperFunction,Conductor*%
%ADD23C,0.200000*%
%TD*%
%TA.AperFunction,Conductor*%
%ADD24C,0.300000*%
%TD*%
G04 APERTURE END LIST*
D10*
%TO.P,10u,1*%
%TO.N,VBUS*%
X144931300Y-69545200D03*
%TO.P,10u,2*%
%TO.N,GND*%
X143206300Y-69545200D03*
%TD*%
D11*
%TO.P,AS5600,1,VDD5V*%
%TO.N,VDD_c*%
X130472200Y-77266800D03*
%TO.P,AS5600,2,VDD3V3*%
X130472200Y-78536800D03*
%TO.P,AS5600,3,OUT*%
%TO.N,OUT*%
X130472200Y-79806800D03*
%TO.P,AS5600,4,GND*%
%TO.N,GND*%
X130472200Y-81076800D03*
%TO.P,AS5600,5,PGO*%
%TO.N,unconnected-(IC2-PGO-Pad5)*%
X135872200Y-81076800D03*
%TO.P,AS5600,6,SDA*%
%TO.N,SDA_ENC*%
X135872200Y-79806800D03*
%TO.P,AS5600,7,SCL*%
%TO.N,SCL_ENC*%
X135872200Y-78536800D03*
%TO.P,AS5600,8,DIR*%
%TO.N,DIR*%
X135872200Y-77266800D03*
%TD*%
D12*
%TO.P,DC,1*%
%TO.N,VDD_c*%
X123698000Y-78233100D03*
%TO.P,DC,2*%
%TO.N,GND*%
X123698000Y-79958100D03*
%TD*%
D13*
%TO.P,DC4,1*%
%TO.N,VDD_c*%
X136220200Y-85317500D03*
%TO.P,DC4,2*%
%TO.N,GND*%
X136220200Y-83592500D03*
%TD*%
D10*
%TO.P,C7,1*%
%TO.N,OSC_IN*%
X122528500Y-72288400D03*
%TO.P,C7,2*%
%TO.N,GND*%
X120803500Y-72288400D03*
%TD*%
%TO.P,DC,1*%
%TO.N,VDD_c*%
X136015900Y-72694800D03*
%TO.P,DC,2*%
%TO.N,GND*%
X134290900Y-72694800D03*
%TD*%
D14*
%TO.P,22p,1*%
%TO.N,OSC_OUT*%
X124537300Y-72313800D03*
%TO.P,22p,2*%
%TO.N,GND*%
X126262300Y-72313800D03*
%TD*%
%TO.P,C6,1*%
%TO.N,VDD_c*%
X130201500Y-72720200D03*
%TO.P,C6,2*%
%TO.N,GND*%
X131926500Y-72720200D03*
%TD*%
D15*
%TO.P,5k1,1*%
%TO.N,GND*%
X138836400Y-83515200D03*
%TO.P,5k1,2*%
%TO.N,Net-(J3-CC1)*%
X138836400Y-85340200D03*
%TD*%
D13*
%TO.P,C9,1*%
%TO.N,VDD_c*%
X138176000Y-75285600D03*
%TO.P,C9,2*%
%TO.N,GND*%
X138176000Y-73560600D03*
%TD*%
D14*
%TO.P,100n,1*%
%TO.N,VDD_c*%
X129134700Y-86258400D03*
%TO.P,100n,2*%
%TO.N,GND*%
X130859700Y-86258400D03*
%TD*%
D16*
%TO.P,R2,1*%
%TO.N,SDA_ENC*%
X127582300Y-76225400D03*
%TO.P,R2,2*%
%TO.N,VDD_c*%
X125757300Y-76225400D03*
%TD*%
D17*
%TO.P,R4,1*%
%TO.N,GND*%
X136171300Y-90652600D03*
%TO.P,R4,2*%
%TO.N,Net-(J3-CC2)*%
X137996300Y-90652600D03*
%TD*%
%TO.P,4k7,1*%
%TO.N,VDD_c*%
X125706500Y-74574400D03*
%TO.P,4k7,2*%
%TO.N,SCL_ENC*%
X127531500Y-74574400D03*
%TD*%
D18*
%TO.P,J1,1,Pin_1*%
%TO.N,DP1*%
X121335800Y-91059000D03*
D19*
%TO.P,J1,2,Pin_2*%
%TO.N,DP2*%
X121335800Y-88519000D03*
%TO.P,J1,3,Pin_3*%
%TO.N,DP3*%
X121335800Y-85979000D03*
%TO.P,J1,4,Pin_4*%
%TO.N,DP4*%
X121335800Y-83439000D03*
%TD*%
D18*
%TO.P,J2,1,Pin_1*%
%TO.N,VDD_c*%
X147040600Y-71983600D03*
D19*
%TO.P,J2,2,Pin_2*%
%TO.N,SWDIO*%
X147040600Y-74523600D03*
%TO.P,J2,3,Pin_3*%
%TO.N,SWCLK*%
X147040600Y-77063600D03*
%TO.P,J2,4,Pin_4*%
%TO.N,GND*%
X147040600Y-79603600D03*
%TD*%
D20*
%TO.P,J3,S1,SHIELD*%
%TO.N,unconnected-(J3-SHIELD-PadS1)_1*%
X145804200Y-82827400D03*
D21*
%TO.N,unconnected-(J3-SHIELD-PadS1)*%
X141624200Y-82827400D03*
D20*
%TO.N,unconnected-(J3-SHIELD-PadS1)_2*%
X145804200Y-91467400D03*
D21*
%TO.N,unconnected-(J3-SHIELD-PadS1)_3*%
X141624200Y-91467400D03*
%TD*%
D22*
%TO.N,GND*%
X139446000Y-82296000D03*
X134696200Y-73761600D03*
X128879600Y-79578200D03*
X147320000Y-86588600D03*
X130454400Y-85293200D03*
X125247400Y-91313000D03*
X139700000Y-70764400D03*
X139446000Y-91973400D03*
X132613400Y-78587600D03*
X141782800Y-69596000D03*
X125105744Y-78891695D03*
X141681200Y-80975200D03*
X131165600Y-89001600D03*
X125247400Y-86537800D03*
X133604000Y-77063600D03*
X147853400Y-66548000D03*
X144957800Y-80975200D03*
X137271104Y-81361505D03*
%TO.N,VBUS*%
X148031200Y-69240400D03*
%TO.N,VDD_c*%
X139928600Y-80670400D03*
X136042400Y-74041000D03*
X125696920Y-78300520D03*
X143865600Y-78028800D03*
X142468600Y-73914000D03*
X142417800Y-71272400D03*
X128771200Y-85064600D03*
X137363200Y-84734400D03*
X138404600Y-78790800D03*
%TO.N,OSC_IN*%
X123621800Y-70840600D03*
X124612400Y-82296000D03*
%TO.N,OSC_OUT*%
X125514875Y-80319955D03*
X127304800Y-70408800D03*
%TO.N,OUT*%
X133441218Y-82155339D03*
%TO.N,DIR*%
X134188200Y-77800200D03*
%TO.N,SCL_ENC*%
X133426200Y-79146400D03*
%TO.N,SDA_ENC*%
X132232400Y-79502000D03*
%TO.N,Net-(J3-CC1)*%
X139979400Y-85897400D03*
%TO.N,Net-(J3-CC2)*%
X138938000Y-89712800D03*
%TD*%
D23*
%TO.N,GND*%
X134265500Y-72720200D02*
X134290900Y-72694800D01*
X136220200Y-83592500D02*
X137947400Y-81865300D01*
X139446000Y-91973400D02*
X137492100Y-91973400D01*
X130454400Y-85853100D02*
X130859700Y-86258400D01*
X134696200Y-73761600D02*
X134696200Y-73100100D01*
X125105744Y-79313456D02*
X124461100Y-79958100D01*
X125105744Y-78891695D02*
X125105744Y-79313456D01*
X136220200Y-83592500D02*
X136220200Y-83566000D01*
X134696200Y-73100100D02*
X134290900Y-72694800D01*
X136220200Y-83566000D02*
X136245600Y-83540600D01*
X137492100Y-91973400D02*
X136171300Y-90652600D01*
X124461100Y-79958100D02*
X123698000Y-79958100D01*
X131926500Y-72720200D02*
X134265500Y-72720200D01*
X137947400Y-81865300D02*
X137947400Y-81483200D01*
X137392799Y-81483200D02*
X137271104Y-81361505D01*
X137947400Y-81483200D02*
X137392799Y-81483200D01*
D24*
%TO.N,VBUS*%
X147726400Y-69545200D02*
X148031200Y-69240400D01*
X147726400Y-69545200D02*
X144931300Y-69545200D01*
D23*
%TO.N,VDD_c*%
X131556300Y-71365400D02*
X136017000Y-71365400D01*
X130472200Y-78536800D02*
X128068700Y-78536800D01*
D24*
X137363200Y-83235800D02*
X139928600Y-80670400D01*
D23*
X130201500Y-72720200D02*
X127560700Y-72720200D01*
D24*
X136803300Y-84734400D02*
X136220200Y-85317500D01*
D23*
X138176000Y-75285600D02*
X138176000Y-78562200D01*
X125757300Y-74625200D02*
X125706500Y-74574400D01*
X136015900Y-72694800D02*
X136015900Y-71366500D01*
X136017000Y-71365400D02*
X142324800Y-71365400D01*
X126900300Y-77266800D02*
X126849500Y-77317600D01*
X125757300Y-76225400D02*
X125705700Y-76225400D01*
X125757300Y-76225400D02*
X125757300Y-74625200D01*
X128771200Y-85064600D02*
X128771200Y-85894900D01*
X138176000Y-75285600D02*
X137287000Y-75285600D01*
X129143600Y-84692200D02*
X135594900Y-84692200D01*
X130201500Y-72720200D02*
X131556300Y-71365400D01*
D24*
X137363200Y-84734400D02*
X136803300Y-84734400D01*
D23*
X135594900Y-84692200D02*
X136220200Y-85317500D01*
X128771200Y-85894900D02*
X129134700Y-86258400D01*
X136042400Y-72721300D02*
X136015900Y-72694800D01*
X125705700Y-76225400D02*
X123698000Y-78233100D01*
D24*
X144399000Y-71983600D02*
X142468600Y-73914000D01*
D23*
X142468600Y-73914000D02*
X143865600Y-75311000D01*
X142324800Y-71365400D02*
X142417800Y-71272400D01*
X137287000Y-75285600D02*
X136042400Y-74041000D01*
X136564700Y-85317500D02*
X136220200Y-85317500D01*
D24*
X137363200Y-84734400D02*
X137363200Y-83235800D01*
D23*
X126849500Y-77317600D02*
X125757300Y-76225400D01*
X136042400Y-74041000D02*
X136042400Y-72721300D01*
X138176000Y-78562200D02*
X138404600Y-78790800D01*
D24*
X147523200Y-71983600D02*
X144399000Y-71983600D01*
D23*
X143865600Y-75311000D02*
X143865600Y-78028800D01*
X128068700Y-78536800D02*
X126849500Y-77317600D01*
X125629500Y-78233100D02*
X125696920Y-78300520D01*
X123698000Y-78233100D02*
X125629500Y-78233100D01*
X136015900Y-71366500D02*
X136017000Y-71365400D01*
X130472200Y-77266800D02*
X126900300Y-77266800D01*
X128771200Y-85064600D02*
X129143600Y-84692200D01*
X127560700Y-72720200D02*
X125706500Y-74574400D01*
%TO.N,OSC_IN*%
X123621800Y-70840600D02*
X123621800Y-71195100D01*
X124163166Y-82296000D02*
X124612400Y-82296000D01*
X120497600Y-74319300D02*
X120497600Y-78630434D01*
X120497600Y-78630434D02*
X124163166Y-82296000D01*
X123620700Y-70841700D02*
X123621800Y-70840600D01*
X122528500Y-72288400D02*
X120497600Y-74319300D01*
X123621800Y-71195100D02*
X122528500Y-72288400D01*
%TO.N,OSC_OUT*%
X123230866Y-80796600D02*
X125038230Y-80796600D01*
X121616300Y-75234800D02*
X121616300Y-79182034D01*
X126442300Y-70408800D02*
X127304800Y-70408800D01*
X125038230Y-80796600D02*
X125514875Y-80319955D01*
X124537300Y-72313800D02*
X126442300Y-70408800D01*
X124537300Y-72313800D02*
X121616300Y-75234800D01*
X121616300Y-79182034D02*
X123230866Y-80796600D01*
%TO.N,OUT*%
X131092679Y-79806800D02*
X133441218Y-82155339D01*
X130937000Y-79984600D02*
X131120400Y-79984600D01*
X130472200Y-79806800D02*
X131092679Y-79806800D01*
%TO.N,DIR*%
X135864600Y-77274400D02*
X135872200Y-77266800D01*
X134721600Y-77266800D02*
X134188200Y-77800200D01*
X135872200Y-77266800D02*
X134721600Y-77266800D01*
X134188200Y-77800200D02*
X134298800Y-77910800D01*
%TO.N,SCL_ENC*%
X134340600Y-78536800D02*
X135872200Y-78536800D01*
X127531500Y-74574400D02*
X130023900Y-74574400D01*
X133426200Y-79146400D02*
X133731000Y-79146400D01*
X130023900Y-74574400D02*
X133426200Y-77976700D01*
X133426200Y-77976700D02*
X133426200Y-79146400D01*
X133731000Y-79146400D02*
X134340600Y-78536800D01*
%TO.N,SDA_ENC*%
X131107800Y-76225400D02*
X127582300Y-76225400D01*
X132232400Y-79502000D02*
X132537200Y-79806800D01*
X132537200Y-79806800D02*
X135872200Y-79806800D01*
X132232400Y-79502000D02*
X131927600Y-79197200D01*
X131927600Y-77045200D02*
X131107800Y-76225400D01*
X131927600Y-79197200D02*
X131927600Y-77045200D01*
%TO.N,Net-(J3-CC1)*%
X139039600Y-85342100D02*
X139424100Y-85342100D01*
X139424100Y-85342100D02*
X139979400Y-85897400D01*
D24*
%TO.N,Net-(J3-CC2)*%
X138936100Y-89712800D02*
X137996300Y-90652600D01*
X138938000Y-89712800D02*
X138936100Y-89712800D01*
%TD*%
%TA.AperFunction,Conductor*%
%TO.N,GND*%
G36*
X149209392Y-65398894D02*
G01*
X149245821Y-65448053D01*
X149250957Y-65478976D01*
X149263906Y-67786149D01*
X149245326Y-67844445D01*
X149231744Y-67859739D01*
X149173893Y-67912680D01*
X149135591Y-67947731D01*
X149124896Y-67953971D01*
X149087119Y-67992087D01*
X149085331Y-67993724D01*
X149047502Y-68028342D01*
X149047500Y-68028345D01*
X149046535Y-68029858D01*
X149040843Y-68038780D01*
X149032129Y-68047574D01*
X149005496Y-68094181D01*
X149004199Y-68096215D01*
X149004196Y-68096217D01*
X148976621Y-68139440D01*
X148976621Y-68139441D01*
X148976077Y-68141163D01*
X148967645Y-68160425D01*
X148966748Y-68161993D01*
X148965887Y-68165266D01*
X148953084Y-68213917D01*
X148936910Y-68265100D01*
X148936361Y-68277466D01*
X148933670Y-68287693D01*
X148933670Y-68287697D01*
X148933211Y-68289440D01*
X148933210Y-68289443D01*
X148933440Y-68340707D01*
X148933344Y-68345532D01*
X148931074Y-68396756D01*
X148931463Y-68398517D01*
X148933792Y-68419427D01*
X149030964Y-90114581D01*
X149030969Y-90115744D01*
X149029864Y-90175881D01*
X149031264Y-90181522D01*
X149031290Y-90187244D01*
X149031291Y-90187336D01*
X149046829Y-90244306D01*
X149046830Y-90244306D01*
X149047129Y-90245403D01*
X149061627Y-90303781D01*
X149064438Y-90308864D01*
X149065968Y-90314473D01*
X149095704Y-90365448D01*
X149096821Y-90367415D01*
X149125405Y-90419094D01*
X149125409Y-90419100D01*
X149125410Y-90419101D01*
X149129443Y-90423285D01*
X149132371Y-90428304D01*
X149175099Y-90470651D01*
X149216867Y-90513983D01*
X149221846Y-90516981D01*
X149225974Y-90521072D01*
X149278216Y-90550922D01*
X149279180Y-90551503D01*
X149344444Y-90590800D01*
X149384543Y-90637014D01*
X149392375Y-90675056D01*
X149402247Y-92433825D01*
X149383667Y-92492121D01*
X149334370Y-92528362D01*
X149304430Y-92533374D01*
X147103470Y-92559642D01*
X147095277Y-92557087D01*
X147086801Y-92558430D01*
X147066648Y-92548161D01*
X147045058Y-92541430D01*
X147032285Y-92530652D01*
X146971400Y-92469766D01*
X146968370Y-92466599D01*
X146958946Y-92456301D01*
X146955889Y-92453732D01*
X146949582Y-92447948D01*
X146941516Y-92439882D01*
X146941509Y-92439877D01*
X146856053Y-92390539D01*
X146856050Y-92390538D01*
X146854152Y-92389442D01*
X146847849Y-92385421D01*
X146846386Y-92384958D01*
X146840667Y-92381656D01*
X146840666Y-92381655D01*
X146827389Y-92373990D01*
X146827386Y-92373989D01*
X146724111Y-92346317D01*
X146722191Y-92345710D01*
X146721778Y-92345691D01*
X146717064Y-92344428D01*
X146717063Y-92344427D01*
X146700092Y-92339881D01*
X146665662Y-92339881D01*
X146607471Y-92320974D01*
X146571507Y-92271474D01*
X146571507Y-92210288D01*
X146607471Y-92160788D01*
X146610660Y-92158566D01*
X146638192Y-92140169D01*
X146714489Y-92089189D01*
X146825989Y-91977689D01*
X146913594Y-91846579D01*
X146973937Y-91700897D01*
X147004700Y-91546242D01*
X147004700Y-91388558D01*
X146973937Y-91233903D01*
X146913594Y-91088221D01*
X146913593Y-91088219D01*
X146913590Y-91088214D01*
X146867126Y-91018677D01*
X146825989Y-90957111D01*
X146714489Y-90845611D01*
X146662259Y-90810712D01*
X146583385Y-90758009D01*
X146583374Y-90758003D01*
X146437697Y-90697663D01*
X146283044Y-90666900D01*
X146283042Y-90666900D01*
X145325358Y-90666900D01*
X145325355Y-90666900D01*
X145170703Y-90697663D01*
X145170701Y-90697663D01*
X145025025Y-90758003D01*
X145025014Y-90758009D01*
X144893911Y-90845611D01*
X144893907Y-90845614D01*
X144782414Y-90957107D01*
X144782411Y-90957111D01*
X144694809Y-91088214D01*
X144694803Y-91088225D01*
X144634463Y-91233901D01*
X144634463Y-91233903D01*
X144603700Y-91388555D01*
X144603700Y-91546244D01*
X144634463Y-91700896D01*
X144634463Y-91700898D01*
X144694803Y-91846574D01*
X144694809Y-91846585D01*
X144747512Y-91925459D01*
X144782411Y-91977689D01*
X144893911Y-92089189D01*
X144958724Y-92132495D01*
X144997740Y-92158566D01*
X145035619Y-92206616D01*
X145038021Y-92267754D01*
X145004028Y-92318628D01*
X144946624Y-92339805D01*
X144942738Y-92339881D01*
X142635661Y-92339881D01*
X142577470Y-92320974D01*
X142541506Y-92271474D01*
X142541506Y-92210288D01*
X142577470Y-92160788D01*
X142580659Y-92158566D01*
X142684489Y-92089189D01*
X142795989Y-91977689D01*
X142883594Y-91846579D01*
X142943937Y-91700897D01*
X142974700Y-91546242D01*
X142974700Y-91388558D01*
X142943937Y-91233903D01*
X142883594Y-91088221D01*
X142883593Y-91088219D01*
X142883590Y-91088214D01*
X142837126Y-91018677D01*
X142795989Y-90957111D01*
X142684489Y-90845611D01*
X142632259Y-90810712D01*
X142553385Y-90758009D01*
X142553374Y-90758003D01*
X142432402Y-90707896D01*
X142385876Y-90668160D01*
X142371592Y-90608665D01*
X142395006Y-90552137D01*
X142420786Y-90530696D01*
X142477565Y-90497915D01*
X142584715Y-90390765D01*
X142628736Y-90314519D01*
X142660479Y-90259539D01*
X142660479Y-90259537D01*
X142660481Y-90259535D01*
X142699700Y-90113166D01*
X142699700Y-89961634D01*
X142660481Y-89815265D01*
X142660479Y-89815262D01*
X142660479Y-89815260D01*
X142584718Y-89684039D01*
X142584716Y-89684037D01*
X142584715Y-89684035D01*
X142477565Y-89576885D01*
X142477562Y-89576883D01*
X142477560Y-89576881D01*
X142346338Y-89501120D01*
X142346340Y-89501120D01*
X142289547Y-89485903D01*
X142199966Y-89461900D01*
X142048434Y-89461900D01*
X141958852Y-89485903D01*
X141902060Y-89501120D01*
X141770839Y-89576881D01*
X141663681Y-89684039D01*
X141587920Y-89815260D01*
X141571217Y-89877600D01*
X141548700Y-89961634D01*
X141548700Y-90113166D01*
X141567016Y-90181522D01*
X141587920Y-90259539D01*
X141663681Y-90390760D01*
X141663683Y-90390762D01*
X141663685Y-90390765D01*
X141770818Y-90497898D01*
X141798594Y-90552413D01*
X141789023Y-90612845D01*
X141745758Y-90656110D01*
X141700813Y-90666900D01*
X140995355Y-90666900D01*
X140840703Y-90697663D01*
X140840701Y-90697663D01*
X140695025Y-90758003D01*
X140695014Y-90758009D01*
X140563911Y-90845611D01*
X140563907Y-90845614D01*
X140452414Y-90957107D01*
X140452411Y-90957111D01*
X140364809Y-91088214D01*
X140364803Y-91088225D01*
X140304463Y-91233901D01*
X140304463Y-91233903D01*
X140273700Y-91388555D01*
X140273700Y-91546244D01*
X140304463Y-91700896D01*
X140304463Y-91700898D01*
X140364803Y-91846574D01*
X140364809Y-91846585D01*
X140417512Y-91925459D01*
X140452411Y-91977689D01*
X140563911Y-92089189D01*
X140628724Y-92132495D01*
X140667740Y-92158566D01*
X140705619Y-92206616D01*
X140708021Y-92267754D01*
X140674028Y-92318628D01*
X140616624Y-92339805D01*
X140612738Y-92339881D01*
X122417430Y-92339881D01*
X122359239Y-92320974D01*
X122323275Y-92271474D01*
X122323275Y-92210288D01*
X122353320Y-92168934D01*
X122352078Y-92167692D01*
X122358563Y-92161206D01*
X122358565Y-92161206D01*
X122438006Y-92081765D01*
X122483385Y-91978991D01*
X122486300Y-91953865D01*
X122486299Y-90902601D01*
X135383800Y-90902601D01*
X135383800Y-90932182D01*
X135394173Y-91018558D01*
X135448376Y-91156008D01*
X135448379Y-91156012D01*
X135537654Y-91273739D01*
X135537660Y-91273745D01*
X135655387Y-91363020D01*
X135655391Y-91363023D01*
X135792841Y-91417226D01*
X135879217Y-91427599D01*
X135879224Y-91427600D01*
X135921299Y-91427600D01*
X135921300Y-91427599D01*
X135921300Y-90902601D01*
X136421300Y-90902601D01*
X136421300Y-91427599D01*
X136421301Y-91427600D01*
X136463376Y-91427600D01*
X136463382Y-91427599D01*
X136549758Y-91417226D01*
X136687208Y-91363023D01*
X136687212Y-91363020D01*
X136804939Y-91273745D01*
X136804945Y-91273739D01*
X136894220Y-91156012D01*
X136894223Y-91156008D01*
X136948426Y-91018558D01*
X136958799Y-90932182D01*
X136958800Y-90932176D01*
X136958800Y-90902601D01*
X136958799Y-90902600D01*
X136421301Y-90902600D01*
X136421300Y-90902601D01*
X135921300Y-90902601D01*
X135921299Y-90902600D01*
X135383801Y-90902600D01*
X135383800Y-90902601D01*
X122486299Y-90902601D01*
X122486299Y-90373017D01*
X135383800Y-90373017D01*
X135383800Y-90402599D01*
X135383801Y-90402600D01*
X135921299Y-90402600D01*
X135921300Y-90402599D01*
X135921300Y-89877601D01*
X136421300Y-89877601D01*
X136421300Y-90402599D01*
X136421301Y-90402600D01*
X136958799Y-90402600D01*
X136958800Y-90402599D01*
X136958800Y-90373020D01*
X136958795Y-90372979D01*
X137208300Y-90372979D01*
X137208300Y-90932220D01*
X137218683Y-91018679D01*
X137246109Y-91088225D01*
X137272938Y-91156258D01*
X137362300Y-91274100D01*
X137480142Y-91363462D01*
X137543784Y-91388559D01*
X137616477Y-91417226D01*
X137617723Y-91417717D01*
X137704182Y-91428100D01*
X137704184Y-91428100D01*
X138288416Y-91428100D01*
X138288418Y-91428100D01*
X138374877Y-91417717D01*
X138512458Y-91363462D01*
X138630300Y-91274100D01*
X138719662Y-91156258D01*
X138773917Y-91018677D01*
X138784300Y-90932218D01*
X138784300Y-90542711D01*
X138786768Y-90535113D01*
X138785519Y-90527224D01*
X138796043Y-90506568D01*
X138803207Y-90484520D01*
X138813296Y-90472707D01*
X138943707Y-90342296D01*
X138998224Y-90314519D01*
X139013711Y-90313300D01*
X139017055Y-90313300D01*
X139017057Y-90313300D01*
X139169784Y-90272377D01*
X139306716Y-90193320D01*
X139418520Y-90081516D01*
X139497577Y-89944584D01*
X139538500Y-89791857D01*
X139538500Y-89633743D01*
X139497577Y-89481016D01*
X139418520Y-89344084D01*
X139306716Y-89232280D01*
X139169784Y-89153223D01*
X139017057Y-89112300D01*
X138858943Y-89112300D01*
X138706216Y-89153223D01*
X138569284Y-89232280D01*
X138457480Y-89344084D01*
X138378423Y-89481016D01*
X138337499Y-89633745D01*
X138336653Y-89640177D01*
X138335319Y-89640001D01*
X138318593Y-89691480D01*
X138308504Y-89703293D01*
X138163693Y-89848104D01*
X138109176Y-89875881D01*
X138093689Y-89877100D01*
X137704179Y-89877100D01*
X137617720Y-89887483D01*
X137480141Y-89941738D01*
X137362303Y-90031097D01*
X137362297Y-90031103D01*
X137272938Y-90148941D01*
X137218683Y-90286520D01*
X137208300Y-90372979D01*
X136958795Y-90372979D01*
X136948426Y-90286641D01*
X136894223Y-90149191D01*
X136894220Y-90149187D01*
X136804945Y-90031460D01*
X136804939Y-90031454D01*
X136687212Y-89942179D01*
X136687208Y-89942176D01*
X136549758Y-89887973D01*
X136463382Y-89877600D01*
X136421301Y-89877600D01*
X136421300Y-89877601D01*
X135921300Y-89877601D01*
X135921299Y-89877600D01*
X135879217Y-89877600D01*
X135792841Y-89887973D01*
X135655391Y-89942176D01*
X135655387Y-89942179D01*
X135537660Y-90031454D01*
X135537654Y-90031460D01*
X135448379Y-90149187D01*
X135448376Y-90149191D01*
X135394173Y-90286641D01*
X135383800Y-90373017D01*
X122486299Y-90373017D01*
X122486299Y-90164136D01*
X122483385Y-90139009D01*
X122438006Y-90036235D01*
X122358565Y-89956794D01*
X122255791Y-89911415D01*
X122255790Y-89911414D01*
X122255788Y-89911414D01*
X122230668Y-89908500D01*
X120440939Y-89908500D01*
X120440936Y-89908501D01*
X120415809Y-89911414D01*
X120340690Y-89944583D01*
X120313035Y-89956794D01*
X120233594Y-90036235D01*
X120212006Y-90085125D01*
X120201158Y-90097249D01*
X120194406Y-90112049D01*
X120181270Y-90119473D01*
X120172283Y-90129517D01*
X120182564Y-90146293D01*
X120185300Y-90169408D01*
X120185300Y-91953860D01*
X120185301Y-91953863D01*
X120188214Y-91978990D01*
X120213556Y-92036385D01*
X120233594Y-92081765D01*
X120313035Y-92161206D01*
X120415809Y-92206585D01*
X120440935Y-92209500D01*
X121970145Y-92209499D01*
X122028336Y-92228406D01*
X122064300Y-92277906D01*
X122064300Y-92339092D01*
X122028336Y-92388592D01*
X122018059Y-92395131D01*
X121956190Y-92429352D01*
X121950301Y-92432609D01*
X121950296Y-92432612D01*
X121855418Y-92524065D01*
X121855413Y-92524071D01*
X121853945Y-92526507D01*
X121853946Y-92526508D01*
X121852830Y-92528362D01*
X121850444Y-92532324D01*
X121849700Y-92533069D01*
X121842798Y-92545022D01*
X121842324Y-92545810D01*
X121842323Y-92545811D01*
X121679541Y-92816155D01*
X121633326Y-92856253D01*
X121595911Y-92864080D01*
X119708782Y-92886604D01*
X119650369Y-92868392D01*
X119613817Y-92819325D01*
X119608600Y-92787611D01*
X119608600Y-90588395D01*
X119627507Y-90530204D01*
X119640758Y-90515366D01*
X119823192Y-90348420D01*
X119834500Y-90341892D01*
X119879454Y-90296934D01*
X119913098Y-90266147D01*
X119913100Y-90266144D01*
X119917279Y-90261172D01*
X119917289Y-90261181D01*
X119925788Y-90250597D01*
X119927683Y-90248703D01*
X119960558Y-90191757D01*
X119983979Y-90155049D01*
X119986673Y-90146523D01*
X119993572Y-90134574D01*
X119993573Y-90134570D01*
X119993576Y-90134565D01*
X119994835Y-90131526D01*
X119996368Y-90129730D01*
X119996822Y-90128945D01*
X119996967Y-90129029D01*
X120033880Y-90085806D01*
X120032920Y-90080206D01*
X120024670Y-90066017D01*
X120023084Y-90033889D01*
X120023545Y-90029848D01*
X120023691Y-90029390D01*
X120023749Y-90028068D01*
X120024140Y-90024654D01*
X120024775Y-90023260D01*
X120024822Y-90022999D01*
X120024889Y-90023010D01*
X120024920Y-90022943D01*
X120026872Y-90010281D01*
X120027677Y-90007279D01*
X120027675Y-89939494D01*
X120029526Y-89897735D01*
X120027673Y-89889354D01*
X120027645Y-88841074D01*
X120046551Y-88782883D01*
X120096050Y-88746918D01*
X120157235Y-88746917D01*
X120206736Y-88782879D01*
X120220800Y-88810480D01*
X120269588Y-88960637D01*
X120346864Y-89112300D01*
X120351804Y-89121994D01*
X120458247Y-89268501D01*
X120586299Y-89396553D01*
X120732806Y-89502996D01*
X120894161Y-89585211D01*
X121066391Y-89641171D01*
X121137936Y-89652502D01*
X121245251Y-89669500D01*
X121245254Y-89669500D01*
X121426349Y-89669500D01*
X121515777Y-89655335D01*
X121605209Y-89641171D01*
X121777439Y-89585211D01*
X121938794Y-89502996D01*
X122085301Y-89396553D01*
X122213353Y-89268501D01*
X122319796Y-89121994D01*
X122402011Y-88960639D01*
X122457971Y-88788409D01*
X122486300Y-88609546D01*
X122486300Y-88428454D01*
X122486300Y-88428450D01*
X122465318Y-88295979D01*
X122457971Y-88249591D01*
X122402011Y-88077361D01*
X122319796Y-87916006D01*
X122213353Y-87769499D01*
X122085301Y-87641447D01*
X121938794Y-87535004D01*
X121938793Y-87535003D01*
X121938791Y-87535002D01*
X121777437Y-87452788D01*
X121605206Y-87396828D01*
X121426349Y-87368500D01*
X121426346Y-87368500D01*
X121245254Y-87368500D01*
X121245251Y-87368500D01*
X121066393Y-87396828D01*
X120894162Y-87452788D01*
X120732808Y-87535002D01*
X120659552Y-87588225D01*
X120586299Y-87641447D01*
X120458247Y-87769499D01*
X120405025Y-87842752D01*
X120351802Y-87916008D01*
X120269588Y-88077362D01*
X120220783Y-88227571D01*
X120184819Y-88277072D01*
X120126628Y-88295979D01*
X120068437Y-88277072D01*
X120032473Y-88227572D01*
X120027628Y-88196982D01*
X120027625Y-88077361D01*
X120027578Y-86300864D01*
X120046483Y-86242676D01*
X120095982Y-86206711D01*
X120157167Y-86206710D01*
X120206668Y-86242672D01*
X120220732Y-86270272D01*
X120269589Y-86420639D01*
X120329378Y-86537982D01*
X120351804Y-86581994D01*
X120458247Y-86728501D01*
X120586299Y-86856553D01*
X120732806Y-86962996D01*
X120894161Y-87045211D01*
X121066391Y-87101171D01*
X121137936Y-87112502D01*
X121245251Y-87129500D01*
X121245254Y-87129500D01*
X121426349Y-87129500D01*
X121515777Y-87115335D01*
X121605209Y-87101171D01*
X121777439Y-87045211D01*
X121938794Y-86962996D01*
X122085301Y-86856553D01*
X122213353Y-86728501D01*
X122319796Y-86581994D01*
X122402011Y-86420639D01*
X122457971Y-86248409D01*
X122476854Y-86129184D01*
X122486300Y-86069549D01*
X122486300Y-85888450D01*
X122465122Y-85754741D01*
X122457971Y-85709591D01*
X122402011Y-85537361D01*
X122319796Y-85376006D01*
X122213353Y-85229499D01*
X122085301Y-85101447D01*
X121987206Y-85030177D01*
X121938799Y-84995007D01*
X121938793Y-84995003D01*
X121920227Y-84985543D01*
X128170700Y-84985543D01*
X128170700Y-85143657D01*
X128211623Y-85296384D01*
X128290680Y-85433316D01*
X128341705Y-85484341D01*
X128345330Y-85491456D01*
X128351793Y-85496152D01*
X128358956Y-85518200D01*
X128369481Y-85538856D01*
X128370700Y-85554343D01*
X128370700Y-85712187D01*
X128363798Y-85748506D01*
X128361339Y-85754739D01*
X128361338Y-85754742D01*
X128308609Y-85888454D01*
X128307083Y-85892324D01*
X128296700Y-85978779D01*
X128296700Y-86538020D01*
X128307083Y-86624479D01*
X128342793Y-86715032D01*
X128361338Y-86762058D01*
X128450700Y-86879900D01*
X128568542Y-86969262D01*
X128674189Y-87010924D01*
X128704877Y-87023026D01*
X128706123Y-87023517D01*
X128792582Y-87033900D01*
X128792584Y-87033900D01*
X129476816Y-87033900D01*
X129476818Y-87033900D01*
X129563277Y-87023517D01*
X129700858Y-86969262D01*
X129818700Y-86879900D01*
X129908062Y-86762058D01*
X129908065Y-86762050D01*
X129911191Y-86756491D01*
X129956189Y-86715032D01*
X130016962Y-86707940D01*
X130070297Y-86737924D01*
X130083783Y-86756484D01*
X130086778Y-86761811D01*
X130176054Y-86879539D01*
X130176060Y-86879545D01*
X130293787Y-86968820D01*
X130293791Y-86968823D01*
X130431241Y-87023026D01*
X130517617Y-87033399D01*
X130517624Y-87033400D01*
X130609699Y-87033400D01*
X130609700Y-87033399D01*
X130609700Y-86508401D01*
X131109700Y-86508401D01*
X131109700Y-87033399D01*
X131109701Y-87033400D01*
X131201776Y-87033400D01*
X131201782Y-87033399D01*
X131288158Y-87023026D01*
X131425608Y-86968823D01*
X131425612Y-86968820D01*
X131543339Y-86879545D01*
X131543345Y-86879539D01*
X131632620Y-86761812D01*
X131632623Y-86761808D01*
X131686826Y-86624358D01*
X131697199Y-86537982D01*
X131697200Y-86537976D01*
X131697200Y-86508401D01*
X131697199Y-86508400D01*
X131109701Y-86508400D01*
X131109700Y-86508401D01*
X130609700Y-86508401D01*
X130609700Y-85483401D01*
X131109700Y-85483401D01*
X131109700Y-86008399D01*
X131109701Y-86008400D01*
X131697199Y-86008400D01*
X131697200Y-86008399D01*
X131697200Y-85978823D01*
X131697199Y-85978817D01*
X131686826Y-85892441D01*
X131632623Y-85754991D01*
X131632620Y-85754987D01*
X131543345Y-85637260D01*
X131543339Y-85637254D01*
X131425612Y-85547979D01*
X131425608Y-85547976D01*
X131288158Y-85493773D01*
X131201782Y-85483400D01*
X131109701Y-85483400D01*
X131109700Y-85483401D01*
X130609700Y-85483401D01*
X130609699Y-85483400D01*
X130517617Y-85483400D01*
X130431241Y-85493773D01*
X130293791Y-85547976D01*
X130293787Y-85547979D01*
X130176060Y-85637254D01*
X130176054Y-85637260D01*
X130086778Y-85754988D01*
X130083781Y-85760319D01*
X130038778Y-85801772D01*
X129978004Y-85808857D01*
X129924673Y-85778866D01*
X129911193Y-85760311D01*
X129908061Y-85754741D01*
X129903333Y-85748506D01*
X129818700Y-85636900D01*
X129700858Y-85547538D01*
X129678842Y-85538856D01*
X129563279Y-85493283D01*
X129476820Y-85482900D01*
X129476818Y-85482900D01*
X129394565Y-85482900D01*
X129336374Y-85463993D01*
X129300410Y-85414493D01*
X129300410Y-85353307D01*
X129308825Y-85334404D01*
X129330777Y-85296384D01*
X129365693Y-85166075D01*
X129399016Y-85114763D01*
X129456138Y-85092836D01*
X129461319Y-85092700D01*
X135345700Y-85092700D01*
X135403891Y-85111607D01*
X135439855Y-85161107D01*
X135444700Y-85191700D01*
X135444700Y-85659620D01*
X135455083Y-85746079D01*
X135460699Y-85760319D01*
X135509338Y-85883658D01*
X135598700Y-86001500D01*
X135716542Y-86090862D01*
X135854123Y-86145117D01*
X135940582Y-86155500D01*
X135940584Y-86155500D01*
X136499816Y-86155500D01*
X136499818Y-86155500D01*
X136586277Y-86145117D01*
X136723858Y-86090862D01*
X136841700Y-86001500D01*
X136931062Y-85883658D01*
X136985317Y-85746077D01*
X136995700Y-85659618D01*
X136995700Y-85385925D01*
X137014607Y-85327734D01*
X137064107Y-85291770D01*
X137125293Y-85291770D01*
X137130887Y-85293834D01*
X137131411Y-85293974D01*
X137131416Y-85293977D01*
X137284143Y-85334900D01*
X137284145Y-85334900D01*
X137442255Y-85334900D01*
X137442257Y-85334900D01*
X137594984Y-85293977D01*
X137731916Y-85214920D01*
X137843720Y-85103116D01*
X137876164Y-85046919D01*
X137921633Y-85005980D01*
X137982483Y-84999584D01*
X138035471Y-85030177D01*
X138060358Y-85086072D01*
X138060900Y-85096421D01*
X138060900Y-85632320D01*
X138071283Y-85718779D01*
X138087665Y-85760319D01*
X138125538Y-85856358D01*
X138214900Y-85974200D01*
X138332742Y-86063562D01*
X138470323Y-86117817D01*
X138556782Y-86128200D01*
X138556784Y-86128200D01*
X139116016Y-86128200D01*
X139116018Y-86128200D01*
X139202477Y-86117817D01*
X139294783Y-86081415D01*
X139355851Y-86077657D01*
X139407467Y-86110512D01*
X139416838Y-86124013D01*
X139419822Y-86129182D01*
X139419823Y-86129184D01*
X139498880Y-86266116D01*
X139610684Y-86377920D01*
X139747616Y-86456977D01*
X139900343Y-86497900D01*
X139900345Y-86497900D01*
X140058455Y-86497900D01*
X140058457Y-86497900D01*
X140211184Y-86456977D01*
X140348116Y-86377920D01*
X140459920Y-86266116D01*
X140538977Y-86129184D01*
X140579900Y-85976457D01*
X140579900Y-85818343D01*
X140538977Y-85665616D01*
X140459920Y-85528684D01*
X140348116Y-85416880D01*
X140211184Y-85337823D01*
X140058457Y-85296900D01*
X140058455Y-85296900D01*
X139986301Y-85296900D01*
X139928110Y-85277993D01*
X139916298Y-85267904D01*
X139670013Y-85021620D01*
X139641878Y-85005376D01*
X139600939Y-84959907D01*
X139599305Y-84956014D01*
X139547262Y-84824042D01*
X139457900Y-84706200D01*
X139340058Y-84616838D01*
X139324658Y-84610765D01*
X139202479Y-84562583D01*
X139116020Y-84552200D01*
X139116018Y-84552200D01*
X138556782Y-84552200D01*
X138556779Y-84552200D01*
X138470320Y-84562583D01*
X138332741Y-84616838D01*
X138214903Y-84706197D01*
X138214897Y-84706203D01*
X138141584Y-84802882D01*
X138091357Y-84837825D01*
X138030185Y-84836571D01*
X137981432Y-84799601D01*
X137963700Y-84743063D01*
X137963700Y-84655344D01*
X137963700Y-84655343D01*
X137922777Y-84502616D01*
X137843720Y-84365684D01*
X137843717Y-84365681D01*
X137843716Y-84365679D01*
X137842690Y-84364653D01*
X137842216Y-84363724D01*
X137839769Y-84360534D01*
X137840360Y-84360080D01*
X137814917Y-84310134D01*
X137813700Y-84294656D01*
X137813700Y-83765201D01*
X138061400Y-83765201D01*
X138061400Y-83807282D01*
X138071773Y-83893658D01*
X138125976Y-84031108D01*
X138125979Y-84031112D01*
X138215254Y-84148839D01*
X138215260Y-84148845D01*
X138332987Y-84238120D01*
X138332991Y-84238123D01*
X138470441Y-84292326D01*
X138556817Y-84302699D01*
X138556824Y-84302700D01*
X138586399Y-84302700D01*
X138586400Y-84302699D01*
X138586400Y-83765201D01*
X139086400Y-83765201D01*
X139086400Y-84302699D01*
X139086401Y-84302700D01*
X139115976Y-84302700D01*
X139115982Y-84302699D01*
X139202358Y-84292326D01*
X139339808Y-84238123D01*
X139339812Y-84238120D01*
X139457539Y-84148845D01*
X139457545Y-84148839D01*
X139546820Y-84031112D01*
X139546823Y-84031108D01*
X139601026Y-83893658D01*
X139611399Y-83807282D01*
X139611400Y-83807276D01*
X139611400Y-83765201D01*
X139611399Y-83765200D01*
X139086401Y-83765200D01*
X139086400Y-83765201D01*
X138586400Y-83765201D01*
X138586399Y-83765200D01*
X138061401Y-83765200D01*
X138061400Y-83765201D01*
X137813700Y-83765201D01*
X137813700Y-83463409D01*
X137832607Y-83405218D01*
X137842684Y-83393418D01*
X137946151Y-83289951D01*
X138000664Y-83262177D01*
X138020393Y-83265301D01*
X138020393Y-83265200D01*
X138586399Y-83265200D01*
X138586400Y-83265199D01*
X138586400Y-82727701D01*
X139086400Y-82727701D01*
X139086400Y-83265199D01*
X139086401Y-83265200D01*
X139611399Y-83265200D01*
X139611400Y-83265199D01*
X139611400Y-83223123D01*
X139611399Y-83223117D01*
X139601026Y-83136741D01*
X139546823Y-82999291D01*
X139546820Y-82999287D01*
X139457545Y-82881560D01*
X139457539Y-82881554D01*
X139379767Y-82822578D01*
X139379766Y-82822577D01*
X139339813Y-82792279D01*
X139339808Y-82792276D01*
X139228939Y-82748555D01*
X140273700Y-82748555D01*
X140273700Y-82906244D01*
X140304463Y-83060896D01*
X140304463Y-83060898D01*
X140364803Y-83206574D01*
X140364809Y-83206585D01*
X140403975Y-83265200D01*
X140452411Y-83337689D01*
X140563911Y-83449189D01*
X140630227Y-83493500D01*
X140695014Y-83536790D01*
X140695025Y-83536796D01*
X140730986Y-83551691D01*
X140840703Y-83597137D01*
X140995358Y-83627900D01*
X140995359Y-83627900D01*
X141700813Y-83627900D01*
X141759004Y-83646807D01*
X141794968Y-83696307D01*
X141794968Y-83757493D01*
X141770818Y-83796901D01*
X141687083Y-83880637D01*
X141663682Y-83904038D01*
X141663681Y-83904039D01*
X141587920Y-84035260D01*
X141586116Y-84041994D01*
X141548700Y-84181634D01*
X141548700Y-84333166D01*
X141572770Y-84422996D01*
X141587920Y-84479539D01*
X141663681Y-84610760D01*
X141663683Y-84610762D01*
X141663685Y-84610765D01*
X141770835Y-84717915D01*
X141770837Y-84717916D01*
X141770839Y-84717918D01*
X141902061Y-84793679D01*
X141902059Y-84793679D01*
X141902063Y-84793680D01*
X141902065Y-84793681D01*
X142048434Y-84832900D01*
X142048436Y-84832900D01*
X142199964Y-84832900D01*
X142199966Y-84832900D01*
X142346335Y-84793681D01*
X142346337Y-84793679D01*
X142346339Y-84793679D01*
X142477560Y-84717918D01*
X142477560Y-84717917D01*
X142477565Y-84717915D01*
X142584715Y-84610765D01*
X142584718Y-84610760D01*
X142660479Y-84479539D01*
X142660479Y-84479537D01*
X142660481Y-84479535D01*
X142699700Y-84333166D01*
X142699700Y-84181634D01*
X142660481Y-84035265D01*
X142660479Y-84035262D01*
X142660479Y-84035260D01*
X142584718Y-83904039D01*
X142584716Y-83904037D01*
X142584715Y-83904035D01*
X142477565Y-83796885D01*
X142477562Y-83796883D01*
X142420786Y-83764103D01*
X142379846Y-83718633D01*
X142373451Y-83657783D01*
X142404044Y-83604795D01*
X142432393Y-83586907D01*
X142553379Y-83536794D01*
X142684489Y-83449189D01*
X142795989Y-83337689D01*
X142883594Y-83206579D01*
X142943937Y-83060897D01*
X142974700Y-82906242D01*
X142974700Y-82748558D01*
X142974699Y-82748555D01*
X144603700Y-82748555D01*
X144603700Y-82906244D01*
X144634463Y-83060896D01*
X144634463Y-83060898D01*
X144694803Y-83206574D01*
X144694809Y-83206585D01*
X144733975Y-83265200D01*
X144782411Y-83337689D01*
X144893911Y-83449189D01*
X144960227Y-83493500D01*
X145025014Y-83536790D01*
X145025025Y-83536796D01*
X145060986Y-83551691D01*
X145170703Y-83597137D01*
X145325358Y-83627900D01*
X145325359Y-83627900D01*
X146283041Y-83627900D01*
X146283042Y-83627900D01*
X146437697Y-83597137D01*
X146583379Y-83536794D01*
X146714489Y-83449189D01*
X146825989Y-83337689D01*
X146913594Y-83206579D01*
X146973937Y-83060897D01*
X147004700Y-82906242D01*
X147004700Y-82748558D01*
X146973937Y-82593903D01*
X146913594Y-82448221D01*
X146913593Y-82448219D01*
X146913590Y-82448214D01*
X146878217Y-82395276D01*
X146825989Y-82317111D01*
X146714489Y-82205611D01*
X146662259Y-82170712D01*
X146583385Y-82118009D01*
X146583374Y-82118003D01*
X146437697Y-82057663D01*
X146283044Y-82026900D01*
X146283042Y-82026900D01*
X145325358Y-82026900D01*
X145325355Y-82026900D01*
X145170703Y-82057663D01*
X145170701Y-82057663D01*
X145025025Y-82118003D01*
X145025014Y-82118009D01*
X144893911Y-82205611D01*
X144893907Y-82205614D01*
X144782414Y-82317107D01*
X144782411Y-82317111D01*
X144694809Y-82448214D01*
X144694803Y-82448225D01*
X144634463Y-82593901D01*
X144634463Y-82593903D01*
X144603700Y-82748555D01*
X142974699Y-82748555D01*
X142943937Y-82593903D01*
X142883594Y-82448221D01*
X142883593Y-82448219D01*
X142883590Y-82448214D01*
X142848217Y-82395276D01*
X142795989Y-82317111D01*
X142684489Y-82205611D01*
X142632259Y-82170712D01*
X142553385Y-82118009D01*
X142553374Y-82118003D01*
X142407697Y-82057663D01*
X142253044Y-82026900D01*
X142253042Y-82026900D01*
X140995358Y-82026900D01*
X140995355Y-82026900D01*
X140840703Y-82057663D01*
X140840701Y-82057663D01*
X140695025Y-82118003D01*
X140695014Y-82118009D01*
X140563911Y-82205611D01*
X140563907Y-82205614D01*
X140452414Y-82317107D01*
X140452411Y-82317111D01*
X140364809Y-82448214D01*
X140364803Y-82448225D01*
X140304463Y-82593901D01*
X140304463Y-82593903D01*
X140273700Y-82748555D01*
X139228939Y-82748555D01*
X139202358Y-82738073D01*
X139115982Y-82727700D01*
X139086401Y-82727700D01*
X139086400Y-82727701D01*
X138586400Y-82727701D01*
X138586400Y-82690710D01*
X138588868Y-82683112D01*
X138587619Y-82675223D01*
X138595262Y-82660222D01*
X138595262Y-82656100D01*
X138600334Y-82647821D01*
X138605307Y-82632519D01*
X138615390Y-82620712D01*
X139936207Y-81299896D01*
X139990724Y-81272119D01*
X140006211Y-81270900D01*
X140007655Y-81270900D01*
X140007657Y-81270900D01*
X140160384Y-81229977D01*
X140297316Y-81150920D01*
X140409120Y-81039116D01*
X140488177Y-80902184D01*
X140529100Y-80749457D01*
X140529100Y-80591343D01*
X140488177Y-80438616D01*
X140409120Y-80301684D01*
X140297316Y-80189880D01*
X140160384Y-80110823D01*
X140007657Y-80069900D01*
X139849543Y-80069900D01*
X139696816Y-80110823D01*
X139559884Y-80189880D01*
X139448080Y-80301684D01*
X139369023Y-80438616D01*
X139332296Y-80575686D01*
X139328100Y-80591344D01*
X139328100Y-80592789D01*
X139327780Y-80593773D01*
X139327253Y-80597777D01*
X139326511Y-80597679D01*
X139309193Y-80650980D01*
X139299104Y-80662793D01*
X137012926Y-82948970D01*
X136958409Y-82976747D01*
X136897977Y-82967176D01*
X136864038Y-82938785D01*
X136841345Y-82908860D01*
X136841339Y-82908854D01*
X136723612Y-82819579D01*
X136723608Y-82819576D01*
X136586158Y-82765373D01*
X136499782Y-82755000D01*
X136470201Y-82755000D01*
X136470200Y-82755001D01*
X136470200Y-83493500D01*
X136451293Y-83551691D01*
X136401793Y-83587655D01*
X136371200Y-83592500D01*
X136220201Y-83592500D01*
X136220200Y-83592501D01*
X136220200Y-83743500D01*
X136201293Y-83801691D01*
X136151793Y-83837655D01*
X136121200Y-83842500D01*
X135445201Y-83842500D01*
X135445200Y-83842501D01*
X135445200Y-83934582D01*
X135455572Y-84020955D01*
X135508978Y-84156381D01*
X135512736Y-84217451D01*
X135479881Y-84269067D01*
X135422961Y-84291513D01*
X135416880Y-84291700D01*
X129196327Y-84291700D01*
X129090873Y-84291700D01*
X129049820Y-84302700D01*
X128989007Y-84318994D01*
X128897691Y-84371716D01*
X128897686Y-84371720D01*
X128834302Y-84435104D01*
X128779785Y-84462881D01*
X128764299Y-84464100D01*
X128692143Y-84464100D01*
X128539416Y-84505023D01*
X128402484Y-84584080D01*
X128290680Y-84695884D01*
X128211623Y-84832816D01*
X128170700Y-84985543D01*
X121920227Y-84985543D01*
X121777437Y-84912788D01*
X121605206Y-84856828D01*
X121426349Y-84828500D01*
X121426346Y-84828500D01*
X121245254Y-84828500D01*
X121245251Y-84828500D01*
X121066393Y-84856828D01*
X120894162Y-84912788D01*
X120732808Y-84995002D01*
X120696172Y-85021620D01*
X120586299Y-85101447D01*
X120458247Y-85229499D01*
X120409278Y-85296900D01*
X120351802Y-85376008D01*
X120269589Y-85537360D01*
X120220715Y-85687779D01*
X120184751Y-85737279D01*
X120126560Y-85756186D01*
X120068369Y-85737279D01*
X120032405Y-85687778D01*
X120027560Y-85657195D01*
X120027510Y-83760658D01*
X120046416Y-83702469D01*
X120095915Y-83666504D01*
X120157100Y-83666503D01*
X120206601Y-83702465D01*
X120220665Y-83730066D01*
X120269588Y-83880637D01*
X120348372Y-84035260D01*
X120351804Y-84041994D01*
X120458247Y-84188501D01*
X120586299Y-84316553D01*
X120732806Y-84422996D01*
X120894161Y-84505211D01*
X121066391Y-84561171D01*
X121137936Y-84572502D01*
X121245251Y-84589500D01*
X121245254Y-84589500D01*
X121426349Y-84589500D01*
X121515777Y-84575335D01*
X121605209Y-84561171D01*
X121777439Y-84505211D01*
X121938794Y-84422996D01*
X122085301Y-84316553D01*
X122213353Y-84188501D01*
X122319796Y-84041994D01*
X122402011Y-83880639D01*
X122457971Y-83708409D01*
X122476329Y-83592500D01*
X122486300Y-83529549D01*
X122486300Y-83348450D01*
X122472758Y-83262950D01*
X122470773Y-83250417D01*
X135445200Y-83250417D01*
X135445200Y-83342499D01*
X135445201Y-83342500D01*
X135970199Y-83342500D01*
X135970200Y-83342499D01*
X135970200Y-82755001D01*
X135970199Y-82755000D01*
X135940617Y-82755000D01*
X135854241Y-82765373D01*
X135716791Y-82819576D01*
X135716787Y-82819579D01*
X135599060Y-82908854D01*
X135599054Y-82908860D01*
X135509779Y-83026587D01*
X135509776Y-83026591D01*
X135455573Y-83164041D01*
X135445200Y-83250417D01*
X122470773Y-83250417D01*
X122463829Y-83206579D01*
X122457971Y-83169591D01*
X122402011Y-82997361D01*
X122319796Y-82836006D01*
X122213353Y-82689499D01*
X122085301Y-82561447D01*
X121938794Y-82455004D01*
X121938793Y-82455003D01*
X121938791Y-82455002D01*
X121777437Y-82372788D01*
X121605206Y-82316828D01*
X121426349Y-82288500D01*
X121426346Y-82288500D01*
X121245254Y-82288500D01*
X121245251Y-82288500D01*
X121066393Y-82316828D01*
X120894162Y-82372788D01*
X120732808Y-82455002D01*
X120659552Y-82508225D01*
X120586299Y-82561447D01*
X120458247Y-82689499D01*
X120430492Y-82727701D01*
X120351802Y-82836008D01*
X120269589Y-82997360D01*
X120220648Y-83147986D01*
X120184684Y-83197486D01*
X120126493Y-83216393D01*
X120068302Y-83197486D01*
X120032338Y-83147986D01*
X120027493Y-83117400D01*
X120027383Y-78965617D01*
X120046289Y-78907428D01*
X120095788Y-78871463D01*
X120156973Y-78871462D01*
X120196384Y-78895611D01*
X123917253Y-82616480D01*
X123917255Y-82616481D01*
X123917257Y-82616483D01*
X124008574Y-82669205D01*
X124008572Y-82669205D01*
X124008576Y-82669206D01*
X124008578Y-82669207D01*
X124110439Y-82696500D01*
X124122656Y-82696500D01*
X124180847Y-82715407D01*
X124192659Y-82725496D01*
X124222164Y-82755000D01*
X124243684Y-82776520D01*
X124380616Y-82855577D01*
X124533343Y-82896500D01*
X124533345Y-82896500D01*
X124691455Y-82896500D01*
X124691457Y-82896500D01*
X124844184Y-82855577D01*
X124981116Y-82776520D01*
X125092920Y-82664716D01*
X125171977Y-82527784D01*
X125212900Y-82375057D01*
X125212900Y-82216943D01*
X125171977Y-82064216D01*
X125092920Y-81927284D01*
X124981116Y-81815480D01*
X124844184Y-81736423D01*
X124691457Y-81695500D01*
X124533343Y-81695500D01*
X124380616Y-81736423D01*
X124380615Y-81736423D01*
X124380613Y-81736424D01*
X124312866Y-81775537D01*
X124253017Y-81788257D01*
X124197122Y-81763370D01*
X124193363Y-81759804D01*
X123799663Y-81366104D01*
X123779638Y-81326801D01*
X129422201Y-81326801D01*
X129422201Y-81446591D01*
X129425109Y-81471674D01*
X129470413Y-81574277D01*
X129549722Y-81653586D01*
X129652327Y-81698890D01*
X129677403Y-81701799D01*
X130222198Y-81701799D01*
X130222200Y-81701798D01*
X130222200Y-81326801D01*
X130722200Y-81326801D01*
X130722200Y-81701798D01*
X130722201Y-81701799D01*
X131266990Y-81701799D01*
X131266991Y-81701798D01*
X131292074Y-81698890D01*
X131394677Y-81653586D01*
X131473986Y-81574277D01*
X131519290Y-81471672D01*
X131522199Y-81446597D01*
X131522200Y-81446595D01*
X131522200Y-81326801D01*
X131522199Y-81326800D01*
X130722201Y-81326800D01*
X130722200Y-81326801D01*
X130222200Y-81326801D01*
X130222199Y-81326800D01*
X129422202Y-81326800D01*
X129422201Y-81326801D01*
X123779638Y-81326801D01*
X123771886Y-81311587D01*
X123781457Y-81251155D01*
X123824722Y-81207890D01*
X123869667Y-81197100D01*
X125090956Y-81197100D01*
X125090957Y-81197100D01*
X125192818Y-81169807D01*
X125192820Y-81169805D01*
X125192822Y-81169805D01*
X125284138Y-81117083D01*
X125284138Y-81117082D01*
X125284143Y-81117080D01*
X125367958Y-81033265D01*
X125451773Y-80949451D01*
X125506289Y-80921674D01*
X125521776Y-80920455D01*
X125593930Y-80920455D01*
X125593932Y-80920455D01*
X125746659Y-80879532D01*
X125883591Y-80800475D01*
X125995395Y-80688671D01*
X126074452Y-80551739D01*
X126115375Y-80399012D01*
X126115375Y-80240898D01*
X126074452Y-80088171D01*
X125995395Y-79951239D01*
X125883591Y-79839435D01*
X125746659Y-79760378D01*
X125593932Y-79719455D01*
X125435818Y-79719455D01*
X125283091Y-79760378D01*
X125146159Y-79839435D01*
X125034355Y-79951239D01*
X124955298Y-80088171D01*
X124916735Y-80232093D01*
X124914375Y-80240899D01*
X124914375Y-80297100D01*
X124895468Y-80355291D01*
X124845968Y-80391255D01*
X124815375Y-80396100D01*
X124572000Y-80396100D01*
X124513809Y-80377193D01*
X124477845Y-80327693D01*
X124473000Y-80297100D01*
X124473000Y-80208101D01*
X124472999Y-80208100D01*
X123797000Y-80208100D01*
X123738809Y-80189193D01*
X123702845Y-80139693D01*
X123698000Y-80109100D01*
X123698000Y-79807100D01*
X123716907Y-79748909D01*
X123766407Y-79712945D01*
X123797000Y-79708100D01*
X124472999Y-79708100D01*
X124473000Y-79708099D01*
X124473000Y-79616023D01*
X124472999Y-79616017D01*
X124462626Y-79529641D01*
X124408423Y-79392191D01*
X124408420Y-79392187D01*
X124319145Y-79274460D01*
X124319139Y-79274454D01*
X124201411Y-79185178D01*
X124196084Y-79182183D01*
X124154628Y-79137181D01*
X124147542Y-79076408D01*
X124177530Y-79023075D01*
X124196091Y-79009591D01*
X124201650Y-79006465D01*
X124201658Y-79006462D01*
X124319500Y-78917100D01*
X124408862Y-78799258D01*
X124449471Y-78696278D01*
X124488407Y-78649084D01*
X124541568Y-78633600D01*
X125140234Y-78633600D01*
X125198425Y-78652507D01*
X125211355Y-78665103D01*
X125211812Y-78664647D01*
X125216398Y-78669233D01*
X125216400Y-78669236D01*
X125328204Y-78781040D01*
X125465136Y-78860097D01*
X125617863Y-78901020D01*
X125617865Y-78901020D01*
X125775975Y-78901020D01*
X125775977Y-78901020D01*
X125928704Y-78860097D01*
X126065636Y-78781040D01*
X126177440Y-78669236D01*
X126256497Y-78532304D01*
X126297420Y-78379577D01*
X126297420Y-78221463D01*
X126256497Y-78068736D01*
X126177440Y-77931804D01*
X126065636Y-77820000D01*
X125928704Y-77740943D01*
X125775977Y-77700020D01*
X125617863Y-77700020D01*
X125465136Y-77740943D01*
X125329350Y-77819337D01*
X125279854Y-77832600D01*
X124903901Y-77832600D01*
X124845710Y-77813693D01*
X124809746Y-77764193D01*
X124809746Y-77703007D01*
X124833897Y-77663596D01*
X125467596Y-77029896D01*
X125522113Y-77002119D01*
X125537600Y-77000900D01*
X125925399Y-77000900D01*
X125983590Y-77019807D01*
X125995403Y-77029896D01*
X126529020Y-77563513D01*
X127822787Y-78857280D01*
X127822789Y-78857281D01*
X127822790Y-78857282D01*
X127822791Y-78857283D01*
X127914108Y-78910005D01*
X127914106Y-78910005D01*
X127914110Y-78910006D01*
X127914112Y-78910007D01*
X128015973Y-78937300D01*
X128121427Y-78937300D01*
X129362539Y-78937300D01*
X129420730Y-78956207D01*
X129440882Y-78975774D01*
X129448240Y-78985299D01*
X129469994Y-79034565D01*
X129541699Y-79106270D01*
X129545565Y-79111274D01*
X129553844Y-79134413D01*
X129565003Y-79156313D01*
X129563983Y-79162748D01*
X129566179Y-79168883D01*
X129559276Y-79192470D01*
X129555432Y-79216745D01*
X129549975Y-79224256D01*
X129548995Y-79227605D01*
X129545682Y-79230163D01*
X129537228Y-79241800D01*
X129502322Y-79276707D01*
X129469994Y-79309035D01*
X129424614Y-79411811D01*
X129421700Y-79436930D01*
X129421700Y-80176660D01*
X129421701Y-80176663D01*
X129424614Y-80201790D01*
X129441882Y-80240898D01*
X129469994Y-80304565D01*
X129537580Y-80372151D01*
X129565356Y-80426666D01*
X129555785Y-80487098D01*
X129537579Y-80512157D01*
X129470413Y-80579322D01*
X129425109Y-80681927D01*
X129422200Y-80707002D01*
X129422200Y-80826799D01*
X129422201Y-80826800D01*
X131505279Y-80826800D01*
X131563470Y-80845707D01*
X131575277Y-80855791D01*
X132019383Y-81299896D01*
X132811722Y-82092235D01*
X132839499Y-82146752D01*
X132840718Y-82162239D01*
X132840718Y-82234396D01*
X132881641Y-82387123D01*
X132960698Y-82524055D01*
X133072502Y-82635859D01*
X133209434Y-82714916D01*
X133362161Y-82755839D01*
X133362163Y-82755839D01*
X133520273Y-82755839D01*
X133520275Y-82755839D01*
X133673002Y-82714916D01*
X133809934Y-82635859D01*
X133921738Y-82524055D01*
X134000795Y-82387123D01*
X134041718Y-82234396D01*
X134041718Y-82076282D01*
X134000795Y-81923555D01*
X133921738Y-81786623D01*
X133809934Y-81674819D01*
X133673002Y-81595762D01*
X133520275Y-81554839D01*
X133520273Y-81554839D01*
X133448118Y-81554839D01*
X133389927Y-81535932D01*
X133378114Y-81525843D01*
X132123776Y-80271504D01*
X132113251Y-80250848D01*
X132099625Y-80232093D01*
X132099625Y-80224103D01*
X132095999Y-80216987D01*
X132099625Y-80194092D01*
X132099625Y-80170907D01*
X132104320Y-80164444D01*
X132105570Y-80156555D01*
X132121961Y-80140163D01*
X132135589Y-80121407D01*
X132143186Y-80118938D01*
X132148835Y-80113290D01*
X132193780Y-80102500D01*
X132225500Y-80102500D01*
X132283691Y-80121407D01*
X132286062Y-80123432D01*
X132286141Y-80123331D01*
X132291291Y-80127283D01*
X132382608Y-80180005D01*
X132382606Y-80180005D01*
X132382610Y-80180006D01*
X132382612Y-80180007D01*
X132484473Y-80207300D01*
X134762539Y-80207300D01*
X134820730Y-80226207D01*
X134840882Y-80245774D01*
X134848240Y-80255299D01*
X134869994Y-80304565D01*
X134941699Y-80376270D01*
X134945565Y-80381274D01*
X134953844Y-80404413D01*
X134965003Y-80426313D01*
X134963983Y-80432748D01*
X134966179Y-80438883D01*
X134959276Y-80462470D01*
X134955432Y-80486745D01*
X134949975Y-80494256D01*
X134948995Y-80497605D01*
X134945682Y-80500163D01*
X134937228Y-80511800D01*
X134897291Y-80551738D01*
X134869994Y-80579035D01*
X134824614Y-80681811D01*
X134821700Y-80706930D01*
X134821700Y-81446660D01*
X134821701Y-81446663D01*
X134824614Y-81471790D01*
X134848481Y-81525843D01*
X134869994Y-81574565D01*
X134949435Y-81654006D01*
X135052209Y-81699385D01*
X135077335Y-81702300D01*
X136667064Y-81702299D01*
X136692191Y-81699385D01*
X136794965Y-81654006D01*
X136874406Y-81574565D01*
X136919785Y-81471791D01*
X136922700Y-81446665D01*
X136922699Y-80706936D01*
X136919785Y-80681809D01*
X136874406Y-80579035D01*
X136807172Y-80511801D01*
X136779397Y-80457287D01*
X136788968Y-80396855D01*
X136807171Y-80371799D01*
X136874406Y-80304565D01*
X136919785Y-80201791D01*
X136922700Y-80176665D01*
X136922699Y-79513089D01*
X145890600Y-79513089D01*
X145890600Y-79694110D01*
X145918916Y-79872889D01*
X145974850Y-80045040D01*
X146057032Y-80206330D01*
X146068511Y-80222131D01*
X146557636Y-79733006D01*
X146574675Y-79796593D01*
X146640501Y-79910607D01*
X146733593Y-80003699D01*
X146847607Y-80069525D01*
X146911191Y-80086562D01*
X146422066Y-80575687D01*
X146437866Y-80587166D01*
X146599159Y-80669349D01*
X146771310Y-80725283D01*
X146950090Y-80753600D01*
X147131110Y-80753600D01*
X147309889Y-80725283D01*
X147482040Y-80669349D01*
X147643330Y-80587168D01*
X147643335Y-80587164D01*
X147659132Y-80575687D01*
X147659132Y-80575686D01*
X147170008Y-80086562D01*
X147233593Y-80069525D01*
X147347607Y-80003699D01*
X147440699Y-79910607D01*
X147506525Y-79796593D01*
X147523562Y-79733008D01*
X148012686Y-80222132D01*
X148012687Y-80222132D01*
X148024164Y-80206335D01*
X148024168Y-80206330D01*
X148106349Y-80045040D01*
X148162283Y-79872889D01*
X148190600Y-79694110D01*
X148190600Y-79513089D01*
X148162283Y-79334310D01*
X148106349Y-79162159D01*
X148024166Y-79000866D01*
X148012687Y-78985066D01*
X147523562Y-79474191D01*
X147506525Y-79410607D01*
X147440699Y-79296593D01*
X147347607Y-79203501D01*
X147233593Y-79137675D01*
X147170006Y-79120636D01*
X147659132Y-78631511D01*
X147643330Y-78620032D01*
X147482040Y-78537850D01*
X147309889Y-78481916D01*
X147131110Y-78453600D01*
X146950090Y-78453600D01*
X146771310Y-78481916D01*
X146599159Y-78537850D01*
X146437864Y-78620034D01*
X146422066Y-78631511D01*
X146911192Y-79120637D01*
X146847607Y-79137675D01*
X146733593Y-79203501D01*
X146640501Y-79296593D01*
X146574675Y-79410607D01*
X146557637Y-79474192D01*
X146068511Y-78985066D01*
X146057034Y-79000864D01*
X145974850Y-79162159D01*
X145918916Y-79334310D01*
X145890600Y-79513089D01*
X136922699Y-79513089D01*
X136922699Y-79436936D01*
X136919785Y-79411809D01*
X136874406Y-79309035D01*
X136807172Y-79241801D01*
X136779397Y-79187287D01*
X136788968Y-79126855D01*
X136807171Y-79101799D01*
X136874406Y-79034565D01*
X136919785Y-78931791D01*
X136922700Y-78906665D01*
X136922699Y-78166936D01*
X136919785Y-78141809D01*
X136874406Y-78039035D01*
X136807172Y-77971801D01*
X136779397Y-77917287D01*
X136788968Y-77856855D01*
X136807171Y-77831799D01*
X136874406Y-77764565D01*
X136919785Y-77661791D01*
X136922700Y-77636665D01*
X136922699Y-76896936D01*
X136919785Y-76871809D01*
X136874406Y-76769035D01*
X136794965Y-76689594D01*
X136692191Y-76644215D01*
X136692190Y-76644214D01*
X136692188Y-76644214D01*
X136667068Y-76641300D01*
X135077339Y-76641300D01*
X135077336Y-76641301D01*
X135052209Y-76644214D01*
X134951727Y-76688582D01*
X134949435Y-76689594D01*
X134869994Y-76769035D01*
X134853102Y-76807289D01*
X134812304Y-76852882D01*
X134762540Y-76866299D01*
X134668874Y-76866299D01*
X134567013Y-76893593D01*
X134567011Y-76893593D01*
X134567007Y-76893595D01*
X134475687Y-76946319D01*
X134401122Y-77020883D01*
X134401118Y-77020889D01*
X134251305Y-77170703D01*
X134196788Y-77198481D01*
X134181301Y-77199700D01*
X134109143Y-77199700D01*
X133956416Y-77240623D01*
X133819484Y-77319680D01*
X133707678Y-77431486D01*
X133676912Y-77484775D01*
X133631443Y-77525716D01*
X133570592Y-77532112D01*
X133521172Y-77505279D01*
X131928993Y-75913100D01*
X130269813Y-74253920D01*
X130269810Y-74253918D01*
X130269809Y-74253917D01*
X130269808Y-74253916D01*
X130178491Y-74201194D01*
X130178493Y-74201194D01*
X130138970Y-74190604D01*
X130076627Y-74173900D01*
X130076625Y-74173900D01*
X128362921Y-74173900D01*
X128304730Y-74154993D01*
X128270824Y-74111219D01*
X128254862Y-74070742D01*
X128165500Y-73952900D01*
X128047658Y-73863538D01*
X127910079Y-73809283D01*
X127823620Y-73798900D01*
X127823618Y-73798900D01*
X127287400Y-73798900D01*
X127229209Y-73779993D01*
X127193245Y-73730493D01*
X127193245Y-73669307D01*
X127217396Y-73629896D01*
X127697596Y-73149696D01*
X127752113Y-73121919D01*
X127767600Y-73120700D01*
X129320079Y-73120700D01*
X129378270Y-73139607D01*
X129412175Y-73183380D01*
X129428138Y-73223858D01*
X129517500Y-73341700D01*
X129635342Y-73431062D01*
X129725133Y-73466471D01*
X129771677Y-73484826D01*
X129772923Y-73485317D01*
X129859382Y-73495700D01*
X129859384Y-73495700D01*
X130543616Y-73495700D01*
X130543618Y-73495700D01*
X130630077Y-73485317D01*
X130767658Y-73431062D01*
X130885500Y-73341700D01*
X130974862Y-73223858D01*
X130974865Y-73223850D01*
X130977991Y-73218291D01*
X131022989Y-73176832D01*
X131083762Y-73169740D01*
X131137097Y-73199724D01*
X131150583Y-73218284D01*
X131153578Y-73223611D01*
X131242854Y-73341339D01*
X131242860Y-73341345D01*
X131360587Y-73430620D01*
X131360591Y-73430623D01*
X131498041Y-73484826D01*
X131584417Y-73495199D01*
X131584424Y-73495200D01*
X131676499Y-73495200D01*
X131676500Y-73495199D01*
X131676500Y-72970201D01*
X132176500Y-72970201D01*
X132176500Y-73495199D01*
X132176501Y-73495200D01*
X132268576Y-73495200D01*
X132268582Y-73495199D01*
X132354958Y-73484826D01*
X132492408Y-73430623D01*
X132492412Y-73430620D01*
X132610139Y-73341345D01*
X132610145Y-73341339D01*
X132699420Y-73223612D01*
X132699423Y-73223608D01*
X132753626Y-73086158D01*
X132763999Y-72999782D01*
X132764000Y-72999776D01*
X132764000Y-72970201D01*
X132763999Y-72970200D01*
X132176501Y-72970200D01*
X132176500Y-72970201D01*
X131676500Y-72970201D01*
X131676500Y-72944801D01*
X133453400Y-72944801D01*
X133453400Y-72974382D01*
X133463773Y-73060758D01*
X133517976Y-73198208D01*
X133517979Y-73198212D01*
X133607254Y-73315939D01*
X133607260Y-73315945D01*
X133724987Y-73405220D01*
X133724991Y-73405223D01*
X133862441Y-73459426D01*
X133948817Y-73469799D01*
X133948824Y-73469800D01*
X134040899Y-73469800D01*
X134040900Y-73469799D01*
X134040900Y-72944801D01*
X134040899Y-72944800D01*
X133453401Y-72944800D01*
X133453400Y-72944801D01*
X131676500Y-72944801D01*
X131676500Y-72819200D01*
X131695407Y-72761009D01*
X131744907Y-72725045D01*
X131775500Y-72720200D01*
X131926499Y-72720200D01*
X131926500Y-72720199D01*
X131926500Y-72569200D01*
X131945407Y-72511009D01*
X131994907Y-72475045D01*
X132025500Y-72470200D01*
X132763999Y-72470200D01*
X132764000Y-72470199D01*
X132764000Y-72440623D01*
X132763999Y-72440617D01*
X132753626Y-72354241D01*
X132699423Y-72216791D01*
X132699420Y-72216787D01*
X132610145Y-72099060D01*
X132610139Y-72099054D01*
X132492412Y-72009779D01*
X132492408Y-72009776D01*
X132358569Y-71956997D01*
X132311372Y-71918061D01*
X132296075Y-71858818D01*
X132318521Y-71801899D01*
X132370137Y-71769044D01*
X132394888Y-71765900D01*
X133758103Y-71765900D01*
X133816294Y-71784807D01*
X133852258Y-71834307D01*
X133852258Y-71895493D01*
X133816294Y-71944993D01*
X133794422Y-71956997D01*
X133724991Y-71984376D01*
X133724987Y-71984379D01*
X133607260Y-72073654D01*
X133607254Y-72073660D01*
X133517979Y-72191387D01*
X133517976Y-72191391D01*
X133463773Y-72328841D01*
X133453400Y-72415217D01*
X133453400Y-72444799D01*
X133453401Y-72444800D01*
X134191900Y-72444800D01*
X134250091Y-72463707D01*
X134286055Y-72513207D01*
X134290900Y-72543800D01*
X134290900Y-72694799D01*
X134290901Y-72694800D01*
X134441900Y-72694800D01*
X134500091Y-72713707D01*
X134536055Y-72763207D01*
X134540900Y-72793800D01*
X134540900Y-73469799D01*
X134540901Y-73469800D01*
X134632976Y-73469800D01*
X134632982Y-73469799D01*
X134719358Y-73459426D01*
X134856808Y-73405223D01*
X134856812Y-73405220D01*
X134974539Y-73315945D01*
X134974545Y-73315939D01*
X135063818Y-73198215D01*
X135066813Y-73192889D01*
X135111812Y-73151431D01*
X135172585Y-73144340D01*
X135225919Y-73174325D01*
X135239405Y-73192885D01*
X135242540Y-73198461D01*
X135307788Y-73284504D01*
X135331900Y-73316300D01*
X135449742Y-73405662D01*
X135579221Y-73456722D01*
X135600583Y-73474345D01*
X135622993Y-73490627D01*
X135623972Y-73493640D01*
X135626416Y-73495657D01*
X135641900Y-73548818D01*
X135641900Y-73551256D01*
X135622993Y-73609447D01*
X135612904Y-73621259D01*
X135561882Y-73672281D01*
X135561880Y-73672283D01*
X135561880Y-73672284D01*
X135482823Y-73809216D01*
X135441900Y-73961943D01*
X135441900Y-74120057D01*
X135482823Y-74272784D01*
X135561880Y-74409716D01*
X135673684Y-74521520D01*
X135810616Y-74600577D01*
X135963343Y-74641500D01*
X136035499Y-74641500D01*
X136093690Y-74660407D01*
X136105503Y-74670496D01*
X137041087Y-75606080D01*
X137041089Y-75606081D01*
X137041090Y-75606082D01*
X137041091Y-75606083D01*
X137132408Y-75658805D01*
X137132406Y-75658805D01*
X137132410Y-75658806D01*
X137132412Y-75658807D01*
X137234273Y-75686100D01*
X137332432Y-75686100D01*
X137390623Y-75705007D01*
X137424528Y-75748778D01*
X137465138Y-75851758D01*
X137554500Y-75969600D01*
X137672342Y-76058962D01*
X137712819Y-76074924D01*
X137760016Y-76113860D01*
X137775500Y-76167021D01*
X137775500Y-78509473D01*
X137775500Y-78614927D01*
X137800727Y-78709080D01*
X137804100Y-78734697D01*
X137804100Y-78869857D01*
X137845023Y-79022584D01*
X137924080Y-79159516D01*
X138035884Y-79271320D01*
X138172816Y-79350377D01*
X138325543Y-79391300D01*
X138325545Y-79391300D01*
X138483655Y-79391300D01*
X138483657Y-79391300D01*
X138636384Y-79350377D01*
X138773316Y-79271320D01*
X138885120Y-79159516D01*
X138964177Y-79022584D01*
X139005100Y-78869857D01*
X139005100Y-78711743D01*
X138964177Y-78559016D01*
X138885120Y-78422084D01*
X138773316Y-78310280D01*
X138636384Y-78231223D01*
X138636381Y-78231222D01*
X138630764Y-78227979D01*
X138631573Y-78226576D01*
X138591082Y-78191985D01*
X138576500Y-78140268D01*
X138576500Y-76167021D01*
X138595407Y-76108830D01*
X138639180Y-76074924D01*
X138679658Y-76058962D01*
X138797500Y-75969600D01*
X138886862Y-75851758D01*
X138941117Y-75714177D01*
X138951500Y-75627718D01*
X138951500Y-74943482D01*
X138941117Y-74857023D01*
X138886862Y-74719442D01*
X138797500Y-74601600D01*
X138698071Y-74526201D01*
X138679661Y-74512240D01*
X138679659Y-74512239D01*
X138679658Y-74512238D01*
X138679656Y-74512237D01*
X138674085Y-74509105D01*
X138632629Y-74464104D01*
X138625541Y-74403331D01*
X138655529Y-74349998D01*
X138674089Y-74336513D01*
X138679415Y-74333518D01*
X138797139Y-74244245D01*
X138797145Y-74244239D01*
X138886420Y-74126512D01*
X138886423Y-74126508D01*
X138940626Y-73989058D01*
X138950999Y-73902682D01*
X138951000Y-73902676D01*
X138951000Y-73834943D01*
X141868100Y-73834943D01*
X141868100Y-73993057D01*
X141909023Y-74145784D01*
X141988080Y-74282716D01*
X142099884Y-74394520D01*
X142236816Y-74473577D01*
X142389543Y-74514500D01*
X142461699Y-74514500D01*
X142519890Y-74533407D01*
X142531703Y-74543496D01*
X143436104Y-75447897D01*
X143463881Y-75502414D01*
X143465100Y-75517901D01*
X143465100Y-77539056D01*
X143446193Y-77597247D01*
X143436104Y-77609059D01*
X143385082Y-77660081D01*
X143385080Y-77660083D01*
X143385080Y-77660084D01*
X143306023Y-77797016D01*
X143265100Y-77949743D01*
X143265100Y-78107857D01*
X143306023Y-78260584D01*
X143385080Y-78397516D01*
X143496884Y-78509320D01*
X143633816Y-78588377D01*
X143786543Y-78629300D01*
X143786545Y-78629300D01*
X143944655Y-78629300D01*
X143944657Y-78629300D01*
X144097384Y-78588377D01*
X144234316Y-78509320D01*
X144346120Y-78397516D01*
X144425177Y-78260584D01*
X144466100Y-78107857D01*
X144466100Y-77949743D01*
X144425177Y-77797016D01*
X144346120Y-77660084D01*
X144322701Y-77636665D01*
X144295096Y-77609059D01*
X144267319Y-77554542D01*
X144266100Y-77539056D01*
X144266100Y-76973050D01*
X145890100Y-76973050D01*
X145890100Y-77154149D01*
X145918428Y-77333006D01*
X145974388Y-77505237D01*
X146054156Y-77661791D01*
X146056604Y-77666594D01*
X146163047Y-77813101D01*
X146291099Y-77941153D01*
X146437606Y-78047596D01*
X146598961Y-78129811D01*
X146771191Y-78185771D01*
X146842736Y-78197102D01*
X146950051Y-78214100D01*
X146950054Y-78214100D01*
X147131149Y-78214100D01*
X147220577Y-78199935D01*
X147310009Y-78185771D01*
X147482239Y-78129811D01*
X147643594Y-78047596D01*
X147790101Y-77941153D01*
X147918153Y-77813101D01*
X148024596Y-77666594D01*
X148106811Y-77505239D01*
X148162771Y-77333009D01*
X148191100Y-77154146D01*
X148191100Y-76973054D01*
X148191100Y-76973050D01*
X148171119Y-76846900D01*
X148162771Y-76794191D01*
X148106811Y-76621961D01*
X148024596Y-76460606D01*
X147918153Y-76314099D01*
X147790101Y-76186047D01*
X147643594Y-76079604D01*
X147643593Y-76079603D01*
X147643591Y-76079602D01*
X147482237Y-75997388D01*
X147310006Y-75941428D01*
X147131149Y-75913100D01*
X147131146Y-75913100D01*
X146950054Y-75913100D01*
X146950051Y-75913100D01*
X146771193Y-75941428D01*
X146598962Y-75997388D01*
X146437608Y-76079602D01*
X146390456Y-76113860D01*
X146291099Y-76186047D01*
X146163047Y-76314099D01*
X146109825Y-76387352D01*
X146056602Y-76460608D01*
X145974388Y-76621962D01*
X145918428Y-76794193D01*
X145890100Y-76973050D01*
X144266100Y-76973050D01*
X144266100Y-75258274D01*
X144266100Y-75258273D01*
X144238807Y-75156413D01*
X144224142Y-75131013D01*
X144186080Y-75065087D01*
X144111513Y-74990519D01*
X144111513Y-74990520D01*
X143554043Y-74433050D01*
X145890100Y-74433050D01*
X145890100Y-74614149D01*
X145918428Y-74793006D01*
X145974388Y-74965237D01*
X146031873Y-75078058D01*
X146056604Y-75126594D01*
X146163047Y-75273101D01*
X146291099Y-75401153D01*
X146437606Y-75507596D01*
X146598961Y-75589811D01*
X146771191Y-75645771D01*
X146835118Y-75655896D01*
X146950051Y-75674100D01*
X146950054Y-75674100D01*
X147131149Y-75674100D01*
X147220577Y-75659935D01*
X147310009Y-75645771D01*
X147482239Y-75589811D01*
X147643594Y-75507596D01*
X147790101Y-75401153D01*
X147918153Y-75273101D01*
X148024596Y-75126594D01*
X148106811Y-74965239D01*
X148162771Y-74793009D01*
X148191100Y-74614146D01*
X148191100Y-74433054D01*
X148191100Y-74433050D01*
X148165716Y-74272784D01*
X148162771Y-74254191D01*
X148106811Y-74081961D01*
X148024596Y-73920606D01*
X147918153Y-73774099D01*
X147790101Y-73646047D01*
X147643594Y-73539604D01*
X147643593Y-73539603D01*
X147643591Y-73539602D01*
X147482237Y-73457388D01*
X147310006Y-73401428D01*
X147131149Y-73373100D01*
X147131146Y-73373100D01*
X146950054Y-73373100D01*
X146950051Y-73373100D01*
X146771193Y-73401428D01*
X146598962Y-73457388D01*
X146437608Y-73539602D01*
X146371827Y-73587395D01*
X146291099Y-73646047D01*
X146163047Y-73774099D01*
X146118841Y-73834944D01*
X146056602Y-73920608D01*
X145974388Y-74081962D01*
X145918428Y-74254193D01*
X145890100Y-74433050D01*
X143554043Y-74433050D01*
X143140352Y-74019359D01*
X143112575Y-73964842D01*
X143122146Y-73904410D01*
X143140352Y-73879351D01*
X144556607Y-72463096D01*
X144611124Y-72435319D01*
X144626611Y-72434100D01*
X145791101Y-72434100D01*
X145849292Y-72453007D01*
X145885256Y-72502507D01*
X145890101Y-72533100D01*
X145890101Y-72878463D01*
X145893014Y-72903590D01*
X145911210Y-72944800D01*
X145938394Y-73006365D01*
X146017835Y-73085806D01*
X146120609Y-73131185D01*
X146145735Y-73134100D01*
X147935464Y-73134099D01*
X147960591Y-73131185D01*
X148063365Y-73085806D01*
X148142806Y-73006365D01*
X148188185Y-72903591D01*
X148191100Y-72878465D01*
X148191099Y-71088736D01*
X148188185Y-71063609D01*
X148142806Y-70960835D01*
X148063365Y-70881394D01*
X147960591Y-70836015D01*
X147960590Y-70836014D01*
X147960588Y-70836014D01*
X147935468Y-70833100D01*
X146145739Y-70833100D01*
X146145736Y-70833101D01*
X146120609Y-70836014D01*
X146017835Y-70881394D01*
X145938394Y-70960835D01*
X145893014Y-71063611D01*
X145890100Y-71088730D01*
X145890100Y-71434100D01*
X145871193Y-71492291D01*
X145821693Y-71528255D01*
X145791100Y-71533100D01*
X144339691Y-71533100D01*
X144294508Y-71545206D01*
X144249325Y-71557313D01*
X144249324Y-71557312D01*
X144225112Y-71563801D01*
X144225109Y-71563802D01*
X144122390Y-71623107D01*
X142460993Y-73284504D01*
X142406476Y-73312281D01*
X142390989Y-73313500D01*
X142389543Y-73313500D01*
X142236816Y-73354423D01*
X142099884Y-73433480D01*
X141988080Y-73545284D01*
X141909023Y-73682216D01*
X141868100Y-73834943D01*
X138951000Y-73834943D01*
X138951000Y-73810601D01*
X138950999Y-73810600D01*
X137401001Y-73810600D01*
X137401000Y-73810601D01*
X137401000Y-73902682D01*
X137411373Y-73989058D01*
X137465576Y-74126508D01*
X137465579Y-74126512D01*
X137554854Y-74244239D01*
X137554860Y-74244245D01*
X137672587Y-74333520D01*
X137677913Y-74336515D01*
X137719369Y-74381515D01*
X137726458Y-74442288D01*
X137696471Y-74495622D01*
X137677917Y-74509103D01*
X137672342Y-74512237D01*
X137554503Y-74601597D01*
X137554497Y-74601603D01*
X137465131Y-74719450D01*
X137465083Y-74719537D01*
X137465026Y-74719588D01*
X137461047Y-74724837D01*
X137460103Y-74724121D01*
X137420074Y-74760983D01*
X137359299Y-74768059D01*
X137308795Y-74741002D01*
X136671896Y-74104103D01*
X136644119Y-74049586D01*
X136642900Y-74034099D01*
X136642900Y-73961944D01*
X136642900Y-73961943D01*
X136601977Y-73809216D01*
X136522920Y-73672284D01*
X136519943Y-73669307D01*
X136471896Y-73621259D01*
X136468270Y-73614142D01*
X136461807Y-73609447D01*
X136454642Y-73587395D01*
X136444119Y-73566742D01*
X136442900Y-73551256D01*
X136442900Y-73527917D01*
X136461807Y-73469726D01*
X136505578Y-73435821D01*
X136582058Y-73405662D01*
X136699900Y-73316300D01*
X136774051Y-73218517D01*
X137401000Y-73218517D01*
X137401000Y-73310599D01*
X137401001Y-73310600D01*
X137925999Y-73310600D01*
X137926000Y-73310599D01*
X137926000Y-72723101D01*
X138426000Y-72723101D01*
X138426000Y-73310599D01*
X138426001Y-73310600D01*
X138950999Y-73310600D01*
X138951000Y-73310599D01*
X138951000Y-73218523D01*
X138950999Y-73218517D01*
X138940626Y-73132141D01*
X138886423Y-72994691D01*
X138886420Y-72994687D01*
X138797145Y-72876960D01*
X138797139Y-72876954D01*
X138679412Y-72787679D01*
X138679408Y-72787676D01*
X138541958Y-72733473D01*
X138455582Y-72723100D01*
X138426001Y-72723100D01*
X138426000Y-72723101D01*
X137926000Y-72723101D01*
X137925999Y-72723100D01*
X137896417Y-72723100D01*
X137810041Y-72733473D01*
X137672591Y-72787676D01*
X137672587Y-72787679D01*
X137554860Y-72876954D01*
X137554854Y-72876960D01*
X137465579Y-72994687D01*
X137465576Y-72994691D01*
X137411373Y-73132141D01*
X137401000Y-73218517D01*
X136774051Y-73218517D01*
X136789262Y-73198458D01*
X136843517Y-73060877D01*
X136853900Y-72974418D01*
X136853900Y-72415182D01*
X136843517Y-72328723D01*
X136789262Y-72191142D01*
X136699900Y-72073300D01*
X136582058Y-71983938D01*
X136513741Y-71956997D01*
X136466544Y-71918061D01*
X136451247Y-71858818D01*
X136473693Y-71801899D01*
X136525309Y-71769044D01*
X136550060Y-71765900D01*
X142045039Y-71765900D01*
X142094538Y-71779163D01*
X142154530Y-71813799D01*
X142186016Y-71831977D01*
X142338743Y-71872900D01*
X142338745Y-71872900D01*
X142496855Y-71872900D01*
X142496857Y-71872900D01*
X142649584Y-71831977D01*
X142786516Y-71752920D01*
X142898320Y-71641116D01*
X142977377Y-71504184D01*
X143018300Y-71351457D01*
X143018300Y-71193343D01*
X142977377Y-71040616D01*
X142898320Y-70903684D01*
X142786516Y-70791880D01*
X142649584Y-70712823D01*
X142496857Y-70671900D01*
X142338743Y-70671900D01*
X142186016Y-70712823D01*
X142049084Y-70791880D01*
X141937278Y-70903686D01*
X141930514Y-70915402D01*
X141885043Y-70956342D01*
X141844779Y-70964900D01*
X136069731Y-70964900D01*
X136069727Y-70964899D01*
X135964273Y-70964899D01*
X135964269Y-70964900D01*
X131615106Y-70964900D01*
X131615090Y-70964899D01*
X131609027Y-70964899D01*
X131503573Y-70964899D01*
X131503570Y-70964899D01*
X131401713Y-70992192D01*
X131401709Y-70992194D01*
X131310387Y-71044919D01*
X131235819Y-71119486D01*
X131235820Y-71119487D01*
X130439603Y-71915704D01*
X130385086Y-71943481D01*
X130369599Y-71944700D01*
X129859379Y-71944700D01*
X129772920Y-71955083D01*
X129635341Y-72009338D01*
X129517503Y-72098697D01*
X129517497Y-72098703D01*
X129428139Y-72216540D01*
X129428138Y-72216541D01*
X129428138Y-72216542D01*
X129412175Y-72257019D01*
X129373240Y-72304216D01*
X129320079Y-72319700D01*
X127613427Y-72319700D01*
X127507973Y-72319700D01*
X127406112Y-72346993D01*
X127406111Y-72346993D01*
X127406109Y-72346994D01*
X127372280Y-72366526D01*
X127314785Y-72399720D01*
X127240219Y-72474286D01*
X127240220Y-72474287D01*
X127240218Y-72474289D01*
X127240217Y-72474288D01*
X127179704Y-72534803D01*
X127125188Y-72562581D01*
X127109700Y-72563800D01*
X126512301Y-72563800D01*
X126512300Y-72563801D01*
X126512300Y-73101603D01*
X126526776Y-73130015D01*
X126517205Y-73190447D01*
X126498999Y-73215505D01*
X125944603Y-73769903D01*
X125890086Y-73797681D01*
X125874599Y-73798900D01*
X125414379Y-73798900D01*
X125327920Y-73809283D01*
X125190341Y-73863538D01*
X125072503Y-73952897D01*
X125072497Y-73952903D01*
X124983138Y-74070741D01*
X124928883Y-74208320D01*
X124918500Y-74294779D01*
X124918500Y-74854020D01*
X124928883Y-74940479D01*
X124953892Y-75003896D01*
X124983138Y-75078058D01*
X125072500Y-75195900D01*
X125190342Y-75285262D01*
X125272903Y-75317820D01*
X125320098Y-75356755D01*
X125335395Y-75415997D01*
X125312949Y-75472917D01*
X125272902Y-75502013D01*
X125241141Y-75514538D01*
X125123300Y-75603900D01*
X125123297Y-75603903D01*
X125033938Y-75721741D01*
X124979683Y-75859320D01*
X124969300Y-75945779D01*
X124969300Y-76354399D01*
X124950393Y-76412590D01*
X124940304Y-76424403D01*
X123998603Y-77366104D01*
X123944086Y-77393881D01*
X123928599Y-77395100D01*
X123418379Y-77395100D01*
X123331920Y-77405483D01*
X123194341Y-77459738D01*
X123076503Y-77549097D01*
X123076497Y-77549103D01*
X122987138Y-77666941D01*
X122932883Y-77804520D01*
X122922500Y-77890979D01*
X122922500Y-78575220D01*
X122932883Y-78661679D01*
X122961678Y-78734697D01*
X122987138Y-78799258D01*
X123076500Y-78917100D01*
X123194342Y-79006462D01*
X123194344Y-79006463D01*
X123199911Y-79009593D01*
X123241368Y-79054592D01*
X123248458Y-79115365D01*
X123218473Y-79168699D01*
X123199919Y-79182181D01*
X123194588Y-79185178D01*
X123076860Y-79274454D01*
X123076854Y-79274460D01*
X122987579Y-79392187D01*
X122987576Y-79392191D01*
X122933373Y-79529641D01*
X122923000Y-79616017D01*
X122923000Y-79683333D01*
X122904093Y-79741524D01*
X122854593Y-79777488D01*
X122793407Y-79777488D01*
X122753996Y-79753337D01*
X122045796Y-79045137D01*
X122018019Y-78990620D01*
X122016800Y-78975133D01*
X122016800Y-75441701D01*
X122035707Y-75383510D01*
X122045796Y-75371697D01*
X124299197Y-73118296D01*
X124353714Y-73090519D01*
X124369201Y-73089300D01*
X124879416Y-73089300D01*
X124879418Y-73089300D01*
X124965877Y-73078917D01*
X125103458Y-73024662D01*
X125221300Y-72935300D01*
X125310662Y-72817458D01*
X125310665Y-72817450D01*
X125313791Y-72811891D01*
X125358789Y-72770432D01*
X125419562Y-72763340D01*
X125472897Y-72793324D01*
X125486383Y-72811884D01*
X125489378Y-72817211D01*
X125578654Y-72934939D01*
X125578660Y-72934945D01*
X125696387Y-73024220D01*
X125696391Y-73024223D01*
X125833841Y-73078426D01*
X125920217Y-73088799D01*
X125920224Y-73088800D01*
X126012299Y-73088800D01*
X126012300Y-73088799D01*
X126012300Y-71538801D01*
X126512300Y-71538801D01*
X126512300Y-72063799D01*
X126512301Y-72063800D01*
X127099799Y-72063800D01*
X127099800Y-72063799D01*
X127099800Y-72034223D01*
X127099799Y-72034217D01*
X127089426Y-71947841D01*
X127035223Y-71810391D01*
X127035220Y-71810387D01*
X126945945Y-71692660D01*
X126945939Y-71692654D01*
X126828212Y-71603379D01*
X126828208Y-71603376D01*
X126690758Y-71549173D01*
X126604382Y-71538800D01*
X126512301Y-71538800D01*
X126512300Y-71538801D01*
X126012300Y-71538801D01*
X126012300Y-71535721D01*
X125987722Y-71487483D01*
X125997293Y-71427051D01*
X126015497Y-71401995D01*
X126425301Y-70992192D01*
X126579198Y-70838296D01*
X126633714Y-70810519D01*
X126649201Y-70809300D01*
X126815056Y-70809300D01*
X126873247Y-70828207D01*
X126885059Y-70838296D01*
X126928158Y-70881394D01*
X126936084Y-70889320D01*
X127073016Y-70968377D01*
X127225743Y-71009300D01*
X127225745Y-71009300D01*
X127383855Y-71009300D01*
X127383857Y-71009300D01*
X127536584Y-70968377D01*
X127673516Y-70889320D01*
X127785320Y-70777516D01*
X127864377Y-70640584D01*
X127905300Y-70487857D01*
X127905300Y-70329743D01*
X127864377Y-70177016D01*
X127785320Y-70040084D01*
X127673516Y-69928280D01*
X127536584Y-69849223D01*
X127383857Y-69808300D01*
X127225743Y-69808300D01*
X127073016Y-69849223D01*
X126965535Y-69911277D01*
X126936081Y-69928282D01*
X126885059Y-69979304D01*
X126830542Y-70007081D01*
X126815056Y-70008300D01*
X126495027Y-70008300D01*
X126389573Y-70008300D01*
X126328273Y-70024725D01*
X126287707Y-70035594D01*
X126196391Y-70088316D01*
X124775403Y-71509304D01*
X124720886Y-71537081D01*
X124705399Y-71538300D01*
X124195179Y-71538300D01*
X124108721Y-71548683D01*
X124076610Y-71561346D01*
X124051318Y-71562902D01*
X124026355Y-71567262D01*
X124021233Y-71564753D01*
X124015541Y-71565104D01*
X123994160Y-71551494D01*
X123971406Y-71540350D01*
X123968737Y-71535311D01*
X123963925Y-71532248D01*
X123954628Y-71508671D01*
X123942769Y-71486280D01*
X123943708Y-71480978D01*
X123941480Y-71475328D01*
X123951383Y-71425704D01*
X123952861Y-71422685D01*
X123995007Y-71349687D01*
X124001588Y-71325127D01*
X124002731Y-71320858D01*
X124006958Y-71312229D01*
X124015942Y-71302955D01*
X124025864Y-71285770D01*
X124102320Y-71209316D01*
X124181377Y-71072384D01*
X124222300Y-70919657D01*
X124222300Y-70761543D01*
X124181377Y-70608816D01*
X124102320Y-70471884D01*
X123990516Y-70360080D01*
X123853584Y-70281023D01*
X123700857Y-70240100D01*
X123542743Y-70240100D01*
X123390016Y-70281023D01*
X123253084Y-70360080D01*
X123141280Y-70471884D01*
X123062223Y-70608816D01*
X123021300Y-70761543D01*
X123021300Y-70919657D01*
X123062223Y-71072384D01*
X123062224Y-71072385D01*
X123062225Y-71072388D01*
X123066664Y-71080078D01*
X123079382Y-71139927D01*
X123054493Y-71195821D01*
X123050929Y-71199576D01*
X122766603Y-71483903D01*
X122712086Y-71511681D01*
X122696599Y-71512900D01*
X122186379Y-71512900D01*
X122099920Y-71523283D01*
X121962341Y-71577538D01*
X121844503Y-71666897D01*
X121844497Y-71666903D01*
X121755137Y-71784742D01*
X121752003Y-71790317D01*
X121707001Y-71831771D01*
X121646227Y-71838857D01*
X121592895Y-71808868D01*
X121579415Y-71790313D01*
X121576420Y-71784987D01*
X121487145Y-71667260D01*
X121487139Y-71667254D01*
X121369412Y-71577979D01*
X121369408Y-71577976D01*
X121231958Y-71523773D01*
X121145582Y-71513400D01*
X121053501Y-71513400D01*
X121053500Y-71513401D01*
X121053500Y-73066480D01*
X121078076Y-73114715D01*
X121068505Y-73175147D01*
X121050299Y-73200205D01*
X120196255Y-74054251D01*
X120141738Y-74082029D01*
X120081306Y-74072458D01*
X120038041Y-74029193D01*
X120027252Y-73984255D01*
X120027227Y-73038618D01*
X120046132Y-72980430D01*
X120095631Y-72944465D01*
X120156816Y-72944464D01*
X120186045Y-72959735D01*
X120237587Y-72998820D01*
X120237591Y-72998823D01*
X120375041Y-73053026D01*
X120461417Y-73063399D01*
X120461424Y-73063400D01*
X120553499Y-73063400D01*
X120553500Y-73063399D01*
X120553500Y-71513401D01*
X120553499Y-71513400D01*
X120461417Y-71513400D01*
X120375041Y-71523773D01*
X120237591Y-71577976D01*
X120237587Y-71577979D01*
X120186006Y-71617094D01*
X120128214Y-71637189D01*
X120069649Y-71619478D01*
X120032679Y-71570724D01*
X120027187Y-71538213D01*
X120027186Y-71515581D01*
X120027141Y-69795201D01*
X142368800Y-69795201D01*
X142368800Y-69824782D01*
X142379173Y-69911158D01*
X142433376Y-70048608D01*
X142433379Y-70048612D01*
X142522654Y-70166339D01*
X142522660Y-70166345D01*
X142640387Y-70255620D01*
X142640391Y-70255623D01*
X142777841Y-70309826D01*
X142864217Y-70320199D01*
X142864224Y-70320200D01*
X142956299Y-70320200D01*
X142956300Y-70320199D01*
X142956300Y-69795201D01*
X142956299Y-69795200D01*
X142368801Y-69795200D01*
X142368800Y-69795201D01*
X120027141Y-69795201D01*
X120027127Y-69265617D01*
X142368800Y-69265617D01*
X142368800Y-69295199D01*
X142368801Y-69295200D01*
X142956299Y-69295200D01*
X142956300Y-69295199D01*
X142956300Y-68770201D01*
X143456300Y-68770201D01*
X143456300Y-70320199D01*
X143456301Y-70320200D01*
X143548376Y-70320200D01*
X143548382Y-70320199D01*
X143634758Y-70309826D01*
X143772208Y-70255623D01*
X143772212Y-70255620D01*
X143889939Y-70166345D01*
X143889945Y-70166339D01*
X143979218Y-70048615D01*
X143982213Y-70043289D01*
X144027212Y-70001831D01*
X144087985Y-69994740D01*
X144141319Y-70024725D01*
X144154805Y-70043285D01*
X144157937Y-70048855D01*
X144157938Y-70048858D01*
X144247300Y-70166700D01*
X144365142Y-70256062D01*
X144428439Y-70281023D01*
X144501477Y-70309826D01*
X144502723Y-70310317D01*
X144589182Y-70320700D01*
X144589184Y-70320700D01*
X145273416Y-70320700D01*
X145273418Y-70320700D01*
X145359877Y-70310317D01*
X145497458Y-70256062D01*
X145615300Y-70166700D01*
X145704662Y-70048858D01*
X145704663Y-70048853D01*
X145706167Y-70046182D01*
X145707906Y-70044579D01*
X145708754Y-70043462D01*
X145708954Y-70043613D01*
X145751166Y-70004725D01*
X145792463Y-69995700D01*
X147785709Y-69995700D01*
X147876069Y-69971487D01*
X147876072Y-69971487D01*
X147889303Y-69967941D01*
X147900287Y-69964999D01*
X148003014Y-69905689D01*
X148020911Y-69887791D01*
X148038808Y-69869896D01*
X148093325Y-69842119D01*
X148108811Y-69840900D01*
X148110255Y-69840900D01*
X148110257Y-69840900D01*
X148262984Y-69799977D01*
X148399916Y-69720920D01*
X148511720Y-69609116D01*
X148590777Y-69472184D01*
X148631700Y-69319457D01*
X148631700Y-69161343D01*
X148590777Y-69008616D01*
X148511720Y-68871684D01*
X148399916Y-68759880D01*
X148262984Y-68680823D01*
X148110257Y-68639900D01*
X147952143Y-68639900D01*
X147799416Y-68680823D01*
X147662484Y-68759880D01*
X147550680Y-68871684D01*
X147471623Y-69008616D01*
X147468218Y-69021323D01*
X147434896Y-69072636D01*
X147377775Y-69094564D01*
X147372592Y-69094700D01*
X145792463Y-69094700D01*
X145734272Y-69075793D01*
X145706167Y-69044218D01*
X145704663Y-69041544D01*
X145704662Y-69041543D01*
X145704662Y-69041542D01*
X145615300Y-68923700D01*
X145497458Y-68834338D01*
X145359879Y-68780083D01*
X145273420Y-68769700D01*
X145273418Y-68769700D01*
X144589182Y-68769700D01*
X144589179Y-68769700D01*
X144502720Y-68780083D01*
X144365141Y-68834338D01*
X144247303Y-68923697D01*
X144247297Y-68923703D01*
X144157937Y-69041542D01*
X144154803Y-69047117D01*
X144109801Y-69088571D01*
X144049027Y-69095657D01*
X143995695Y-69065668D01*
X143982215Y-69047113D01*
X143979220Y-69041787D01*
X143889945Y-68924060D01*
X143889939Y-68924054D01*
X143772212Y-68834779D01*
X143772208Y-68834776D01*
X143634758Y-68780573D01*
X143548382Y-68770200D01*
X143456301Y-68770200D01*
X143456300Y-68770201D01*
X142956300Y-68770201D01*
X142956299Y-68770200D01*
X142864217Y-68770200D01*
X142777841Y-68780573D01*
X142640391Y-68834776D01*
X142640387Y-68834779D01*
X142522660Y-68924054D01*
X142522654Y-68924060D01*
X142433379Y-69041787D01*
X142433376Y-69041791D01*
X142379173Y-69179241D01*
X142368800Y-69265617D01*
X120027127Y-69265617D01*
X120027098Y-68164367D01*
X120028226Y-68103050D01*
X120027097Y-68098504D01*
X120027097Y-68093826D01*
X120011464Y-68035489D01*
X120011026Y-68033793D01*
X120009673Y-68028345D01*
X119996463Y-67975150D01*
X119996461Y-67975146D01*
X119994841Y-67971021D01*
X119994716Y-67970704D01*
X119994696Y-67970662D01*
X119992984Y-67966529D01*
X119962809Y-67914270D01*
X119961910Y-67912680D01*
X119932680Y-67859830D01*
X119932674Y-67859824D01*
X119930030Y-67856243D01*
X119929997Y-67856197D01*
X119929840Y-67855985D01*
X119929807Y-67855946D01*
X119927091Y-67852406D01*
X119884389Y-67809707D01*
X119884388Y-67809706D01*
X119883754Y-67809072D01*
X119841223Y-67764948D01*
X119837214Y-67762534D01*
X119833910Y-67759230D01*
X119833906Y-67759227D01*
X119833902Y-67759223D01*
X119833896Y-67759219D01*
X119833894Y-67759218D01*
X119781591Y-67729022D01*
X119780021Y-67728097D01*
X119656532Y-67653740D01*
X119616434Y-67607525D01*
X119608600Y-67568928D01*
X119608600Y-65757071D01*
X119627507Y-65698880D01*
X119677007Y-65662916D01*
X119706662Y-65658075D01*
X122114107Y-65635383D01*
X122117237Y-65635405D01*
X122128661Y-65635665D01*
X122133508Y-65636964D01*
X122185713Y-65636964D01*
X122186855Y-65636990D01*
X122186927Y-65637015D01*
X122188984Y-65637060D01*
X122241548Y-65639391D01*
X122241978Y-65639295D01*
X122263340Y-65636964D01*
X146898050Y-65636964D01*
X146959361Y-65638091D01*
X146963899Y-65636964D01*
X146968572Y-65636964D01*
X147026997Y-65621308D01*
X147028548Y-65620907D01*
X147087261Y-65606328D01*
X147087265Y-65606325D01*
X147091393Y-65604704D01*
X147091396Y-65604703D01*
X147091724Y-65604573D01*
X147091782Y-65604546D01*
X147095859Y-65602857D01*
X147095866Y-65602856D01*
X147148215Y-65572631D01*
X147149634Y-65571829D01*
X147202581Y-65542545D01*
X147202587Y-65542538D01*
X147206138Y-65539917D01*
X147206435Y-65539697D01*
X147206481Y-65539658D01*
X147209986Y-65536968D01*
X147209994Y-65536964D01*
X147253332Y-65493625D01*
X147297463Y-65451088D01*
X147299871Y-65447086D01*
X147303174Y-65443784D01*
X147303174Y-65443783D01*
X147303180Y-65443778D01*
X147303184Y-65443770D01*
X147307133Y-65438626D01*
X147307821Y-65439154D01*
X147307960Y-65439000D01*
X147308073Y-65438888D01*
X147308208Y-65439024D01*
X147312344Y-65436917D01*
X147346959Y-65405735D01*
X147386311Y-65397170D01*
X149151028Y-65380536D01*
X149209392Y-65398894D01*
G37*
%TD.AperFunction*%
%TA.AperFunction,Conductor*%
G36*
X132497104Y-77613997D02*
G01*
X132996704Y-78113597D01*
X133024481Y-78168114D01*
X133025700Y-78183601D01*
X133025700Y-78656656D01*
X133006793Y-78714847D01*
X132996704Y-78726659D01*
X132945682Y-78777681D01*
X132945680Y-78777683D01*
X132945680Y-78777684D01*
X132933224Y-78799258D01*
X132866623Y-78914615D01*
X132832312Y-79042666D01*
X132798987Y-79093980D01*
X132741866Y-79115906D01*
X132682765Y-79100070D01*
X132666686Y-79087050D01*
X132601116Y-79021480D01*
X132464184Y-78942423D01*
X132464181Y-78942422D01*
X132401475Y-78925619D01*
X132350162Y-78892294D01*
X132328236Y-78835173D01*
X132328100Y-78829993D01*
X132328100Y-77684001D01*
X132347007Y-77625810D01*
X132396507Y-77589846D01*
X132457693Y-77589846D01*
X132497104Y-77613997D01*
G37*
%TD.AperFunction*%
%TD*%
M02*
