%TF.GenerationSoftware,KiCad,Pcbnew,9.0.7*%
%TF.CreationDate,2026-02-20T19:59:31+05:30*%
%TF.ProjectId,breakout_board,62726561-6b6f-4757-945f-626f6172642e,rev?*%
%TF.SameCoordinates,Original*%
%TF.FileFunction,Legend,Bot*%
%TF.FilePolarity,Positive*%
%FSLAX46Y46*%
G04 Gerber Fmt 4.6, Leading zero omitted, Abs format (unit mm)*
G04 Created by KiCad (PCBNEW 9.0.7) date 2026-02-20 19:59:31*
%MOMM*%
%LPD*%
G01*
G04 APERTURE LIST*
%ADD10C,0.100000*%
%ADD11C,0.125000*%
%ADD12C,0.150000*%
%ADD13C,0.120000*%
G04 APERTURE END LIST*
D10*
X123648704Y-86510134D02*
X124448704Y-86510134D01*
X124448704Y-86510134D02*
X124448704Y-86319658D01*
X124448704Y-86319658D02*
X124410609Y-86205372D01*
X124410609Y-86205372D02*
X124334419Y-86129182D01*
X124334419Y-86129182D02*
X124258228Y-86091087D01*
X124258228Y-86091087D02*
X124105847Y-86052991D01*
X124105847Y-86052991D02*
X123991561Y-86052991D01*
X123991561Y-86052991D02*
X123839180Y-86091087D01*
X123839180Y-86091087D02*
X123762990Y-86129182D01*
X123762990Y-86129182D02*
X123686800Y-86205372D01*
X123686800Y-86205372D02*
X123648704Y-86319658D01*
X123648704Y-86319658D02*
X123648704Y-86510134D01*
X124182038Y-85367277D02*
X123648704Y-85367277D01*
X124182038Y-85710134D02*
X123762990Y-85710134D01*
X123762990Y-85710134D02*
X123686800Y-85672039D01*
X123686800Y-85672039D02*
X123648704Y-85595849D01*
X123648704Y-85595849D02*
X123648704Y-85481563D01*
X123648704Y-85481563D02*
X123686800Y-85405372D01*
X123686800Y-85405372D02*
X123724895Y-85367277D01*
X123648704Y-84986324D02*
X124182038Y-84986324D01*
X124105847Y-84986324D02*
X124143942Y-84948229D01*
X124143942Y-84948229D02*
X124182038Y-84872039D01*
X124182038Y-84872039D02*
X124182038Y-84757753D01*
X124182038Y-84757753D02*
X124143942Y-84681562D01*
X124143942Y-84681562D02*
X124067752Y-84643467D01*
X124067752Y-84643467D02*
X123648704Y-84643467D01*
X124067752Y-84643467D02*
X124143942Y-84605372D01*
X124143942Y-84605372D02*
X124182038Y-84529181D01*
X124182038Y-84529181D02*
X124182038Y-84414896D01*
X124182038Y-84414896D02*
X124143942Y-84338705D01*
X124143942Y-84338705D02*
X124067752Y-84300610D01*
X124067752Y-84300610D02*
X123648704Y-84300610D01*
X123648704Y-83919657D02*
X124182038Y-83919657D01*
X124105847Y-83919657D02*
X124143942Y-83881562D01*
X124143942Y-83881562D02*
X124182038Y-83805372D01*
X124182038Y-83805372D02*
X124182038Y-83691086D01*
X124182038Y-83691086D02*
X124143942Y-83614895D01*
X124143942Y-83614895D02*
X124067752Y-83576800D01*
X124067752Y-83576800D02*
X123648704Y-83576800D01*
X124067752Y-83576800D02*
X124143942Y-83538705D01*
X124143942Y-83538705D02*
X124182038Y-83462514D01*
X124182038Y-83462514D02*
X124182038Y-83348229D01*
X124182038Y-83348229D02*
X124143942Y-83272038D01*
X124143942Y-83272038D02*
X124067752Y-83233943D01*
X124067752Y-83233943D02*
X123648704Y-83233943D01*
X124182038Y-82929181D02*
X123648704Y-82738705D01*
X124182038Y-82548228D02*
X123648704Y-82738705D01*
X123648704Y-82738705D02*
X123458228Y-82814895D01*
X123458228Y-82814895D02*
X123420133Y-82852990D01*
X123420133Y-82852990D02*
X123382038Y-82929181D01*
X123648704Y-81633942D02*
X124448704Y-81633942D01*
X124448704Y-81633942D02*
X124448704Y-81329180D01*
X124448704Y-81329180D02*
X124410609Y-81252990D01*
X124410609Y-81252990D02*
X124372514Y-81214895D01*
X124372514Y-81214895D02*
X124296323Y-81176799D01*
X124296323Y-81176799D02*
X124182038Y-81176799D01*
X124182038Y-81176799D02*
X124105847Y-81214895D01*
X124105847Y-81214895D02*
X124067752Y-81252990D01*
X124067752Y-81252990D02*
X124029657Y-81329180D01*
X124029657Y-81329180D02*
X124029657Y-81633942D01*
X123648704Y-80833942D02*
X124182038Y-80833942D01*
X124448704Y-80833942D02*
X124410609Y-80872038D01*
X124410609Y-80872038D02*
X124372514Y-80833942D01*
X124372514Y-80833942D02*
X124410609Y-80795847D01*
X124410609Y-80795847D02*
X124448704Y-80833942D01*
X124448704Y-80833942D02*
X124372514Y-80833942D01*
X124182038Y-80452990D02*
X123648704Y-80452990D01*
X124105847Y-80452990D02*
X124143942Y-80414895D01*
X124143942Y-80414895D02*
X124182038Y-80338705D01*
X124182038Y-80338705D02*
X124182038Y-80224419D01*
X124182038Y-80224419D02*
X124143942Y-80148228D01*
X124143942Y-80148228D02*
X124067752Y-80110133D01*
X124067752Y-80110133D02*
X123648704Y-80110133D01*
X123686800Y-79767276D02*
X123648704Y-79691085D01*
X123648704Y-79691085D02*
X123648704Y-79538704D01*
X123648704Y-79538704D02*
X123686800Y-79462514D01*
X123686800Y-79462514D02*
X123762990Y-79424418D01*
X123762990Y-79424418D02*
X123801085Y-79424418D01*
X123801085Y-79424418D02*
X123877276Y-79462514D01*
X123877276Y-79462514D02*
X123915371Y-79538704D01*
X123915371Y-79538704D02*
X123915371Y-79652990D01*
X123915371Y-79652990D02*
X123953466Y-79729180D01*
X123953466Y-79729180D02*
X124029657Y-79767276D01*
X124029657Y-79767276D02*
X124067752Y-79767276D01*
X124067752Y-79767276D02*
X124143942Y-79729180D01*
X124143942Y-79729180D02*
X124182038Y-79652990D01*
X124182038Y-79652990D02*
X124182038Y-79538704D01*
X124182038Y-79538704D02*
X124143942Y-79462514D01*
D11*
X126042795Y-85032914D02*
X126042795Y-84651962D01*
X126042795Y-84651962D02*
X125242795Y-84651962D01*
X125623747Y-85299581D02*
X125623747Y-85566247D01*
X126042795Y-85680533D02*
X126042795Y-85299581D01*
X126042795Y-85299581D02*
X125242795Y-85299581D01*
X125242795Y-85299581D02*
X125242795Y-85680533D01*
X126042795Y-86023391D02*
X125242795Y-86023391D01*
X125242795Y-86023391D02*
X125242795Y-86213867D01*
X125242795Y-86213867D02*
X125280890Y-86328153D01*
X125280890Y-86328153D02*
X125357080Y-86404343D01*
X125357080Y-86404343D02*
X125433271Y-86442438D01*
X125433271Y-86442438D02*
X125585652Y-86480534D01*
X125585652Y-86480534D02*
X125699938Y-86480534D01*
X125699938Y-86480534D02*
X125852319Y-86442438D01*
X125852319Y-86442438D02*
X125928509Y-86404343D01*
X125928509Y-86404343D02*
X126004700Y-86328153D01*
X126004700Y-86328153D02*
X126042795Y-86213867D01*
X126042795Y-86213867D02*
X126042795Y-86023391D01*
X132595995Y-85388514D02*
X132595995Y-85007562D01*
X132595995Y-85007562D02*
X131795995Y-85007562D01*
X132176947Y-85655181D02*
X132176947Y-85921847D01*
X132595995Y-86036133D02*
X132595995Y-85655181D01*
X132595995Y-85655181D02*
X131795995Y-85655181D01*
X131795995Y-85655181D02*
X131795995Y-86036133D01*
X132595995Y-86378991D02*
X131795995Y-86378991D01*
X131795995Y-86378991D02*
X131795995Y-86569467D01*
X131795995Y-86569467D02*
X131834090Y-86683753D01*
X131834090Y-86683753D02*
X131910280Y-86759943D01*
X131910280Y-86759943D02*
X131986471Y-86798038D01*
X131986471Y-86798038D02*
X132138852Y-86836134D01*
X132138852Y-86836134D02*
X132253138Y-86836134D01*
X132253138Y-86836134D02*
X132405519Y-86798038D01*
X132405519Y-86798038D02*
X132481709Y-86759943D01*
X132481709Y-86759943D02*
X132557900Y-86683753D01*
X132557900Y-86683753D02*
X132595995Y-86569467D01*
X132595995Y-86569467D02*
X132595995Y-86378991D01*
X132824595Y-89363609D02*
X132824595Y-88906466D01*
X132824595Y-89135038D02*
X132024595Y-89135038D01*
X132024595Y-89135038D02*
X132138880Y-89058847D01*
X132138880Y-89058847D02*
X132215071Y-88982657D01*
X132215071Y-88982657D02*
X132253166Y-88906466D01*
X132824595Y-89706467D02*
X132024595Y-89706467D01*
X132519833Y-89782657D02*
X132824595Y-90011229D01*
X132291261Y-90011229D02*
X132596023Y-89706467D01*
X132024595Y-90735038D02*
X132024595Y-90354086D01*
X132024595Y-90354086D02*
X132405547Y-90315990D01*
X132405547Y-90315990D02*
X132367452Y-90354086D01*
X132367452Y-90354086D02*
X132329357Y-90430276D01*
X132329357Y-90430276D02*
X132329357Y-90620752D01*
X132329357Y-90620752D02*
X132367452Y-90696943D01*
X132367452Y-90696943D02*
X132405547Y-90735038D01*
X132405547Y-90735038D02*
X132481738Y-90773133D01*
X132481738Y-90773133D02*
X132672214Y-90773133D01*
X132672214Y-90773133D02*
X132748404Y-90735038D01*
X132748404Y-90735038D02*
X132786500Y-90696943D01*
X132786500Y-90696943D02*
X132824595Y-90620752D01*
X132824595Y-90620752D02*
X132824595Y-90430276D01*
X132824595Y-90430276D02*
X132786500Y-90354086D01*
X132786500Y-90354086D02*
X132748404Y-90315990D01*
X146171885Y-66802395D02*
X146552837Y-66802395D01*
X146552837Y-66802395D02*
X146552837Y-66002395D01*
X145905218Y-66383347D02*
X145638552Y-66383347D01*
X145524266Y-66802395D02*
X145905218Y-66802395D01*
X145905218Y-66802395D02*
X145905218Y-66002395D01*
X145905218Y-66002395D02*
X145524266Y-66002395D01*
X145181408Y-66802395D02*
X145181408Y-66002395D01*
X145181408Y-66002395D02*
X144990932Y-66002395D01*
X144990932Y-66002395D02*
X144876646Y-66040490D01*
X144876646Y-66040490D02*
X144800456Y-66116680D01*
X144800456Y-66116680D02*
X144762361Y-66192871D01*
X144762361Y-66192871D02*
X144724265Y-66345252D01*
X144724265Y-66345252D02*
X144724265Y-66459538D01*
X144724265Y-66459538D02*
X144762361Y-66611919D01*
X144762361Y-66611919D02*
X144800456Y-66688109D01*
X144800456Y-66688109D02*
X144876646Y-66764300D01*
X144876646Y-66764300D02*
X144990932Y-66802395D01*
X144990932Y-66802395D02*
X145181408Y-66802395D01*
X137087623Y-73114218D02*
X137087623Y-73495171D01*
X137316195Y-73038028D02*
X136516195Y-73304695D01*
X136516195Y-73304695D02*
X137316195Y-73571361D01*
X137316195Y-73838028D02*
X136516195Y-73838028D01*
X136516195Y-73838028D02*
X137087623Y-74104694D01*
X137087623Y-74104694D02*
X136516195Y-74371361D01*
X136516195Y-74371361D02*
X137316195Y-74371361D01*
X137278100Y-74714218D02*
X137316195Y-74828504D01*
X137316195Y-74828504D02*
X137316195Y-75018980D01*
X137316195Y-75018980D02*
X137278100Y-75095171D01*
X137278100Y-75095171D02*
X137240004Y-75133266D01*
X137240004Y-75133266D02*
X137163814Y-75171361D01*
X137163814Y-75171361D02*
X137087623Y-75171361D01*
X137087623Y-75171361D02*
X137011433Y-75133266D01*
X137011433Y-75133266D02*
X136973338Y-75095171D01*
X136973338Y-75095171D02*
X136935242Y-75018980D01*
X136935242Y-75018980D02*
X136897147Y-74866599D01*
X136897147Y-74866599D02*
X136859052Y-74790409D01*
X136859052Y-74790409D02*
X136820957Y-74752314D01*
X136820957Y-74752314D02*
X136744766Y-74714218D01*
X136744766Y-74714218D02*
X136668576Y-74714218D01*
X136668576Y-74714218D02*
X136592385Y-74752314D01*
X136592385Y-74752314D02*
X136554290Y-74790409D01*
X136554290Y-74790409D02*
X136516195Y-74866599D01*
X136516195Y-74866599D02*
X136516195Y-75057076D01*
X136516195Y-75057076D02*
X136554290Y-75171361D01*
X137316195Y-75933266D02*
X137316195Y-75476123D01*
X137316195Y-75704695D02*
X136516195Y-75704695D01*
X136516195Y-75704695D02*
X136630480Y-75628504D01*
X136630480Y-75628504D02*
X136706671Y-75552314D01*
X136706671Y-75552314D02*
X136744766Y-75476123D01*
X137316195Y-76695171D02*
X137316195Y-76238028D01*
X137316195Y-76466600D02*
X136516195Y-76466600D01*
X136516195Y-76466600D02*
X136630480Y-76390409D01*
X136630480Y-76390409D02*
X136706671Y-76314219D01*
X136706671Y-76314219D02*
X136744766Y-76238028D01*
X137316195Y-77457076D02*
X137316195Y-76999933D01*
X137316195Y-77228505D02*
X136516195Y-77228505D01*
X136516195Y-77228505D02*
X136630480Y-77152314D01*
X136630480Y-77152314D02*
X136706671Y-77076124D01*
X136706671Y-77076124D02*
X136744766Y-76999933D01*
X136516195Y-77723743D02*
X136516195Y-78257077D01*
X136516195Y-78257077D02*
X137316195Y-77914219D01*
X148411876Y-70238995D02*
X148411876Y-69438995D01*
X148411876Y-69438995D02*
X148221400Y-69438995D01*
X148221400Y-69438995D02*
X148107114Y-69477090D01*
X148107114Y-69477090D02*
X148030924Y-69553280D01*
X148030924Y-69553280D02*
X147992829Y-69629471D01*
X147992829Y-69629471D02*
X147954733Y-69781852D01*
X147954733Y-69781852D02*
X147954733Y-69896138D01*
X147954733Y-69896138D02*
X147992829Y-70048519D01*
X147992829Y-70048519D02*
X148030924Y-70124709D01*
X148030924Y-70124709D02*
X148107114Y-70200900D01*
X148107114Y-70200900D02*
X148221400Y-70238995D01*
X148221400Y-70238995D02*
X148411876Y-70238995D01*
X147307114Y-70200900D02*
X147383305Y-70238995D01*
X147383305Y-70238995D02*
X147535686Y-70238995D01*
X147535686Y-70238995D02*
X147611876Y-70200900D01*
X147611876Y-70200900D02*
X147649972Y-70124709D01*
X147649972Y-70124709D02*
X147649972Y-69819947D01*
X147649972Y-69819947D02*
X147611876Y-69743757D01*
X147611876Y-69743757D02*
X147535686Y-69705661D01*
X147535686Y-69705661D02*
X147383305Y-69705661D01*
X147383305Y-69705661D02*
X147307114Y-69743757D01*
X147307114Y-69743757D02*
X147269019Y-69819947D01*
X147269019Y-69819947D02*
X147269019Y-69896138D01*
X147269019Y-69896138D02*
X147649972Y-69972328D01*
X146926162Y-70238995D02*
X146926162Y-69438995D01*
X146926162Y-69743757D02*
X146849972Y-69705661D01*
X146849972Y-69705661D02*
X146697591Y-69705661D01*
X146697591Y-69705661D02*
X146621400Y-69743757D01*
X146621400Y-69743757D02*
X146583305Y-69781852D01*
X146583305Y-69781852D02*
X146545210Y-69858042D01*
X146545210Y-69858042D02*
X146545210Y-70086614D01*
X146545210Y-70086614D02*
X146583305Y-70162804D01*
X146583305Y-70162804D02*
X146621400Y-70200900D01*
X146621400Y-70200900D02*
X146697591Y-70238995D01*
X146697591Y-70238995D02*
X146849972Y-70238995D01*
X146849972Y-70238995D02*
X146926162Y-70200900D01*
X145859495Y-69705661D02*
X145859495Y-70238995D01*
X146202352Y-69705661D02*
X146202352Y-70124709D01*
X146202352Y-70124709D02*
X146164257Y-70200900D01*
X146164257Y-70200900D02*
X146088067Y-70238995D01*
X146088067Y-70238995D02*
X145973781Y-70238995D01*
X145973781Y-70238995D02*
X145897590Y-70200900D01*
X145897590Y-70200900D02*
X145859495Y-70162804D01*
X145135685Y-69705661D02*
X145135685Y-70353280D01*
X145135685Y-70353280D02*
X145173780Y-70429471D01*
X145173780Y-70429471D02*
X145211876Y-70467566D01*
X145211876Y-70467566D02*
X145288066Y-70505661D01*
X145288066Y-70505661D02*
X145402352Y-70505661D01*
X145402352Y-70505661D02*
X145478542Y-70467566D01*
X145135685Y-70200900D02*
X145211876Y-70238995D01*
X145211876Y-70238995D02*
X145364257Y-70238995D01*
X145364257Y-70238995D02*
X145440447Y-70200900D01*
X145440447Y-70200900D02*
X145478542Y-70162804D01*
X145478542Y-70162804D02*
X145516638Y-70086614D01*
X145516638Y-70086614D02*
X145516638Y-69858042D01*
X145516638Y-69858042D02*
X145478542Y-69781852D01*
X145478542Y-69781852D02*
X145440447Y-69743757D01*
X145440447Y-69743757D02*
X145364257Y-69705661D01*
X145364257Y-69705661D02*
X145211876Y-69705661D01*
X145211876Y-69705661D02*
X145135685Y-69743757D01*
X144411875Y-69705661D02*
X144411875Y-70353280D01*
X144411875Y-70353280D02*
X144449970Y-70429471D01*
X144449970Y-70429471D02*
X144488066Y-70467566D01*
X144488066Y-70467566D02*
X144564256Y-70505661D01*
X144564256Y-70505661D02*
X144678542Y-70505661D01*
X144678542Y-70505661D02*
X144754732Y-70467566D01*
X144411875Y-70200900D02*
X144488066Y-70238995D01*
X144488066Y-70238995D02*
X144640447Y-70238995D01*
X144640447Y-70238995D02*
X144716637Y-70200900D01*
X144716637Y-70200900D02*
X144754732Y-70162804D01*
X144754732Y-70162804D02*
X144792828Y-70086614D01*
X144792828Y-70086614D02*
X144792828Y-69858042D01*
X144792828Y-69858042D02*
X144754732Y-69781852D01*
X144754732Y-69781852D02*
X144716637Y-69743757D01*
X144716637Y-69743757D02*
X144640447Y-69705661D01*
X144640447Y-69705661D02*
X144488066Y-69705661D01*
X144488066Y-69705661D02*
X144411875Y-69743757D01*
X143726160Y-70200900D02*
X143802351Y-70238995D01*
X143802351Y-70238995D02*
X143954732Y-70238995D01*
X143954732Y-70238995D02*
X144030922Y-70200900D01*
X144030922Y-70200900D02*
X144069018Y-70124709D01*
X144069018Y-70124709D02*
X144069018Y-69819947D01*
X144069018Y-69819947D02*
X144030922Y-69743757D01*
X144030922Y-69743757D02*
X143954732Y-69705661D01*
X143954732Y-69705661D02*
X143802351Y-69705661D01*
X143802351Y-69705661D02*
X143726160Y-69743757D01*
X143726160Y-69743757D02*
X143688065Y-69819947D01*
X143688065Y-69819947D02*
X143688065Y-69896138D01*
X143688065Y-69896138D02*
X144069018Y-69972328D01*
X143345208Y-70238995D02*
X143345208Y-69705661D01*
X143345208Y-69858042D02*
X143307113Y-69781852D01*
X143307113Y-69781852D02*
X143269018Y-69743757D01*
X143269018Y-69743757D02*
X143192827Y-69705661D01*
X143192827Y-69705661D02*
X143116637Y-69705661D01*
D12*
X133181576Y-71203819D02*
X132991100Y-71203819D01*
X132991100Y-71203819D02*
X132895862Y-71251438D01*
X132895862Y-71251438D02*
X132800624Y-71346676D01*
X132800624Y-71346676D02*
X132753005Y-71537152D01*
X132753005Y-71537152D02*
X132753005Y-71870485D01*
X132753005Y-71870485D02*
X132800624Y-72060961D01*
X132800624Y-72060961D02*
X132895862Y-72156200D01*
X132895862Y-72156200D02*
X132991100Y-72203819D01*
X132991100Y-72203819D02*
X133181576Y-72203819D01*
X133181576Y-72203819D02*
X133276814Y-72156200D01*
X133276814Y-72156200D02*
X133372052Y-72060961D01*
X133372052Y-72060961D02*
X133419671Y-71870485D01*
X133419671Y-71870485D02*
X133419671Y-71537152D01*
X133419671Y-71537152D02*
X133372052Y-71346676D01*
X133372052Y-71346676D02*
X133276814Y-71251438D01*
X133276814Y-71251438D02*
X133181576Y-71203819D01*
X132372052Y-72156200D02*
X132276814Y-72203819D01*
X132276814Y-72203819D02*
X132086338Y-72203819D01*
X132086338Y-72203819D02*
X131991100Y-72156200D01*
X131991100Y-72156200D02*
X131943481Y-72060961D01*
X131943481Y-72060961D02*
X131943481Y-72013342D01*
X131943481Y-72013342D02*
X131991100Y-71918104D01*
X131991100Y-71918104D02*
X132086338Y-71870485D01*
X132086338Y-71870485D02*
X132229195Y-71870485D01*
X132229195Y-71870485D02*
X132324433Y-71822866D01*
X132324433Y-71822866D02*
X132372052Y-71727628D01*
X132372052Y-71727628D02*
X132372052Y-71680009D01*
X132372052Y-71680009D02*
X132324433Y-71584771D01*
X132324433Y-71584771D02*
X132229195Y-71537152D01*
X132229195Y-71537152D02*
X132086338Y-71537152D01*
X132086338Y-71537152D02*
X131991100Y-71584771D01*
X131086338Y-72156200D02*
X131181576Y-72203819D01*
X131181576Y-72203819D02*
X131372052Y-72203819D01*
X131372052Y-72203819D02*
X131467290Y-72156200D01*
X131467290Y-72156200D02*
X131514909Y-72108580D01*
X131514909Y-72108580D02*
X131562528Y-72013342D01*
X131562528Y-72013342D02*
X131562528Y-71727628D01*
X131562528Y-71727628D02*
X131514909Y-71632390D01*
X131514909Y-71632390D02*
X131467290Y-71584771D01*
X131467290Y-71584771D02*
X131372052Y-71537152D01*
X131372052Y-71537152D02*
X131181576Y-71537152D01*
X131181576Y-71537152D02*
X131086338Y-71584771D01*
X130657766Y-72203819D02*
X130657766Y-71537152D01*
X130657766Y-71203819D02*
X130705385Y-71251438D01*
X130705385Y-71251438D02*
X130657766Y-71299057D01*
X130657766Y-71299057D02*
X130610147Y-71251438D01*
X130610147Y-71251438D02*
X130657766Y-71203819D01*
X130657766Y-71203819D02*
X130657766Y-71299057D01*
X130038719Y-72203819D02*
X130133957Y-72156200D01*
X130133957Y-72156200D02*
X130181576Y-72060961D01*
X130181576Y-72060961D02*
X130181576Y-71203819D01*
X129514909Y-72203819D02*
X129610147Y-72156200D01*
X129610147Y-72156200D02*
X129657766Y-72060961D01*
X129657766Y-72060961D02*
X129657766Y-71203819D01*
X128705385Y-72203819D02*
X128705385Y-71680009D01*
X128705385Y-71680009D02*
X128753004Y-71584771D01*
X128753004Y-71584771D02*
X128848242Y-71537152D01*
X128848242Y-71537152D02*
X129038718Y-71537152D01*
X129038718Y-71537152D02*
X129133956Y-71584771D01*
X128705385Y-72156200D02*
X128800623Y-72203819D01*
X128800623Y-72203819D02*
X129038718Y-72203819D01*
X129038718Y-72203819D02*
X129133956Y-72156200D01*
X129133956Y-72156200D02*
X129181575Y-72060961D01*
X129181575Y-72060961D02*
X129181575Y-71965723D01*
X129181575Y-71965723D02*
X129133956Y-71870485D01*
X129133956Y-71870485D02*
X129038718Y-71822866D01*
X129038718Y-71822866D02*
X128800623Y-71822866D01*
X128800623Y-71822866D02*
X128705385Y-71775247D01*
X128372051Y-71537152D02*
X127991099Y-71537152D01*
X128229194Y-71203819D02*
X128229194Y-72060961D01*
X128229194Y-72060961D02*
X128181575Y-72156200D01*
X128181575Y-72156200D02*
X128086337Y-72203819D01*
X128086337Y-72203819D02*
X127991099Y-72203819D01*
X127514908Y-72203819D02*
X127610146Y-72156200D01*
X127610146Y-72156200D02*
X127657765Y-72108580D01*
X127657765Y-72108580D02*
X127705384Y-72013342D01*
X127705384Y-72013342D02*
X127705384Y-71727628D01*
X127705384Y-71727628D02*
X127657765Y-71632390D01*
X127657765Y-71632390D02*
X127610146Y-71584771D01*
X127610146Y-71584771D02*
X127514908Y-71537152D01*
X127514908Y-71537152D02*
X127372051Y-71537152D01*
X127372051Y-71537152D02*
X127276813Y-71584771D01*
X127276813Y-71584771D02*
X127229194Y-71632390D01*
X127229194Y-71632390D02*
X127181575Y-71727628D01*
X127181575Y-71727628D02*
X127181575Y-72013342D01*
X127181575Y-72013342D02*
X127229194Y-72108580D01*
X127229194Y-72108580D02*
X127276813Y-72156200D01*
X127276813Y-72156200D02*
X127372051Y-72203819D01*
X127372051Y-72203819D02*
X127514908Y-72203819D01*
X126753003Y-72203819D02*
X126753003Y-71537152D01*
X126753003Y-71727628D02*
X126705384Y-71632390D01*
X126705384Y-71632390D02*
X126657765Y-71584771D01*
X126657765Y-71584771D02*
X126562527Y-71537152D01*
X126562527Y-71537152D02*
X126467289Y-71537152D01*
D11*
X126169795Y-89058761D02*
X126169795Y-88601618D01*
X126169795Y-88830190D02*
X125369795Y-88830190D01*
X125369795Y-88830190D02*
X125484080Y-88753999D01*
X125484080Y-88753999D02*
X125560271Y-88677809D01*
X125560271Y-88677809D02*
X125598366Y-88601618D01*
X126169795Y-89401619D02*
X125369795Y-89401619D01*
X125865033Y-89477809D02*
X126169795Y-89706381D01*
X125636461Y-89706381D02*
X125941223Y-89401619D01*
D12*
X132283104Y-78626619D02*
X132283104Y-79436142D01*
X132283104Y-79436142D02*
X132235485Y-79531380D01*
X132235485Y-79531380D02*
X132187866Y-79579000D01*
X132187866Y-79579000D02*
X132092628Y-79626619D01*
X132092628Y-79626619D02*
X131902152Y-79626619D01*
X131902152Y-79626619D02*
X131806914Y-79579000D01*
X131806914Y-79579000D02*
X131759295Y-79531380D01*
X131759295Y-79531380D02*
X131711676Y-79436142D01*
X131711676Y-79436142D02*
X131711676Y-78626619D01*
X130711676Y-79626619D02*
X131283104Y-79626619D01*
X130997390Y-79626619D02*
X130997390Y-78626619D01*
X130997390Y-78626619D02*
X131092628Y-78769476D01*
X131092628Y-78769476D02*
X131187866Y-78864714D01*
X131187866Y-78864714D02*
X131283104Y-78912333D01*
D11*
X143097238Y-67241795D02*
X143554381Y-67241795D01*
X143325809Y-67241795D02*
X143325809Y-66441795D01*
X143325809Y-66441795D02*
X143402000Y-66556080D01*
X143402000Y-66556080D02*
X143478190Y-66632271D01*
X143478190Y-66632271D02*
X143554381Y-66670366D01*
X142754380Y-67241795D02*
X142754380Y-66441795D01*
X142678190Y-66937033D02*
X142449618Y-67241795D01*
X142449618Y-66708461D02*
X142754380Y-67013223D01*
X138372790Y-89365195D02*
X138829933Y-89365195D01*
X138601361Y-89365195D02*
X138601361Y-88565195D01*
X138601361Y-88565195D02*
X138677552Y-88679480D01*
X138677552Y-88679480D02*
X138753742Y-88755671D01*
X138753742Y-88755671D02*
X138829933Y-88793766D01*
X138029932Y-89365195D02*
X138029932Y-88565195D01*
X137953742Y-89060433D02*
X137725170Y-89365195D01*
X137725170Y-88831861D02*
X138029932Y-89136623D01*
X137001361Y-88565195D02*
X137382313Y-88565195D01*
X137382313Y-88565195D02*
X137420409Y-88946147D01*
X137420409Y-88946147D02*
X137382313Y-88908052D01*
X137382313Y-88908052D02*
X137306123Y-88869957D01*
X137306123Y-88869957D02*
X137115647Y-88869957D01*
X137115647Y-88869957D02*
X137039456Y-88908052D01*
X137039456Y-88908052D02*
X137001361Y-88946147D01*
X137001361Y-88946147D02*
X136963266Y-89022338D01*
X136963266Y-89022338D02*
X136963266Y-89212814D01*
X136963266Y-89212814D02*
X137001361Y-89289004D01*
X137001361Y-89289004D02*
X137039456Y-89327100D01*
X137039456Y-89327100D02*
X137115647Y-89365195D01*
X137115647Y-89365195D02*
X137306123Y-89365195D01*
X137306123Y-89365195D02*
X137382313Y-89327100D01*
X137382313Y-89327100D02*
X137420409Y-89289004D01*
D12*
X144209419Y-86814066D02*
X144923704Y-86814066D01*
X144923704Y-86814066D02*
X145066561Y-86766447D01*
X145066561Y-86766447D02*
X145161800Y-86671209D01*
X145161800Y-86671209D02*
X145209419Y-86528352D01*
X145209419Y-86528352D02*
X145209419Y-86433114D01*
X144209419Y-87195019D02*
X144209419Y-87814066D01*
X144209419Y-87814066D02*
X144590371Y-87480733D01*
X144590371Y-87480733D02*
X144590371Y-87623590D01*
X144590371Y-87623590D02*
X144637990Y-87718828D01*
X144637990Y-87718828D02*
X144685609Y-87766447D01*
X144685609Y-87766447D02*
X144780847Y-87814066D01*
X144780847Y-87814066D02*
X145018942Y-87814066D01*
X145018942Y-87814066D02*
X145114180Y-87766447D01*
X145114180Y-87766447D02*
X145161800Y-87718828D01*
X145161800Y-87718828D02*
X145209419Y-87623590D01*
X145209419Y-87623590D02*
X145209419Y-87337876D01*
X145209419Y-87337876D02*
X145161800Y-87242638D01*
X145161800Y-87242638D02*
X145114180Y-87195019D01*
D13*
%TO.C,LED*%
X144857600Y-67133800D02*
X147317600Y-67133800D01*
X147317600Y-67133800D02*
X147317600Y-68603800D01*
X147317600Y-68603800D02*
X144857600Y-68603800D01*
%TO.C,D1*%
X126290400Y-88068900D02*
X126290400Y-85608900D01*
X127760400Y-85608900D02*
X127760400Y-88068900D01*
X127760400Y-88068900D02*
X126290400Y-88068900D01*
%TO.C,AMS1117*%
X138042600Y-73816600D02*
X138042600Y-77576600D01*
X138042600Y-77576600D02*
X139302600Y-77576600D01*
X144862600Y-73816600D02*
X144862600Y-77576600D01*
X144862600Y-77576600D02*
X143602600Y-77576600D01*
X138142600Y-72536600D02*
X137812600Y-72776600D01*
X137812600Y-72296600D01*
X138142600Y-72536600D01*
G36*
X138142600Y-72536600D02*
G01*
X137812600Y-72776600D01*
X137812600Y-72296600D01*
X138142600Y-72536600D01*
G37*
%TO.C,R7*%
X133132300Y-90416626D02*
X133132300Y-90926074D01*
X134177300Y-90416626D02*
X134177300Y-90926074D01*
%TO.C,J1*%
X119955800Y-82059000D02*
X122715800Y-82059000D01*
X119955800Y-89789000D02*
X119955800Y-82059000D01*
X119955800Y-89789000D02*
X122715800Y-89789000D01*
X119955800Y-91059000D02*
X119955800Y-92439000D01*
X119955800Y-92439000D02*
X121335800Y-92439000D01*
X122715800Y-89789000D02*
X122715800Y-82059000D01*
%TO.C,J2*%
X145660600Y-73253600D02*
X145660600Y-80983600D01*
X148420600Y-70603600D02*
X147040600Y-70603600D01*
X148420600Y-71983600D02*
X148420600Y-70603600D01*
X148420600Y-73253600D02*
X145660600Y-73253600D01*
X148420600Y-73253600D02*
X148420600Y-80983600D01*
X148420600Y-80983600D02*
X145660600Y-80983600D01*
%TO.C,Oscillator*%
X123231100Y-65589000D02*
X135951100Y-65589000D01*
X123231100Y-70809000D02*
X123231100Y-65589000D01*
X135951100Y-70809000D02*
X123231100Y-70809000D01*
%TO.C,1k*%
X126502900Y-90473624D02*
X126502900Y-89964176D01*
X127547900Y-90473624D02*
X127547900Y-89964176D01*
%TO.C,U1*%
X127911200Y-75612600D02*
X127911200Y-76062600D01*
X127911200Y-82382600D02*
X127911200Y-82832600D01*
X127911200Y-82832600D02*
X128361200Y-82832600D01*
X128361200Y-75612600D02*
X127911200Y-75612600D01*
X134681200Y-82832600D02*
X135131200Y-82832600D01*
X135131200Y-75612600D02*
X134681200Y-75612600D01*
X135131200Y-76062600D02*
X135131200Y-75612600D01*
X135131200Y-82832600D02*
X135131200Y-82382600D01*
X127611200Y-82852600D02*
X126931200Y-82852600D01*
X127271200Y-82382600D01*
X127611200Y-82852600D01*
G36*
X127611200Y-82852600D02*
G01*
X126931200Y-82852600D01*
X127271200Y-82382600D01*
X127611200Y-82852600D01*
G37*
%TO.C,D2*%
X132919800Y-85201350D02*
X134389800Y-85201350D01*
X132919800Y-87661350D02*
X132919800Y-85201350D01*
X134389800Y-85201350D02*
X134389800Y-87661350D01*
%TO.C,1k*%
X142217224Y-67574900D02*
X141707776Y-67574900D01*
X142217224Y-68619900D02*
X141707776Y-68619900D01*
%TO.C,1k5*%
X137541724Y-87132900D02*
X137032276Y-87132900D01*
X137541724Y-88177900D02*
X137032276Y-88177900D01*
%TO.C,J3*%
X144629200Y-82477400D02*
X142929200Y-82477400D01*
X144629200Y-91817400D02*
X142929200Y-91817400D01*
%TD*%
M02*
